<svg width="123" height="117" viewBox="0 0 123 117" fill="none" xmlns="http://www.w3.org/2000/svg">
<path d="M61.3345 116.417C56.1061 116.424 50.928 115.397 46.098 113.395C41.268 111.394 36.8815 108.457 33.1909 104.753L2.88552 74.454C1.03735 72.605 -0.000615895 70.0974 2.74177e-07 67.4831C0.000616444 64.8687 1.03976 62.3617 2.88881 60.5135C4.73785 58.6653 7.24533 57.6274 9.85966 57.628C12.474 57.6286 14.981 58.6678 16.8291 60.5168L47.128 90.8159C50.8993 94.5822 56.0112 96.6976 61.341 96.6976C66.6709 96.6976 71.7828 94.5822 75.5541 90.8159L106.057 60.3065C107.905 58.4557 110.413 57.4149 113.028 57.4131C115.644 57.4112 118.153 58.4485 120.004 60.2967C121.854 62.1449 122.895 64.6526 122.897 67.2682C122.899 69.8838 121.862 72.3929 120.013 74.2437L89.5109 104.753C85.8144 108.458 81.4222 111.395 76.5868 113.397C71.7513 115.399 66.5679 116.425 61.3345 116.417Z" fill="#FFDE2F"/>
<path d="M61.4521 78.0393C72.274 78.0393 81.0468 69.2664 81.0468 58.4445C81.0468 47.6225 72.274 38.8496 61.4521 38.8496C50.6303 38.8496 41.8574 47.6225 41.8574 58.4445C41.8574 69.2664 50.6303 78.0393 61.4521 78.0393Z" fill="#FFDE2F"/>
<path d="M29.4719 39.6562C27.8038 39.6569 26.1627 39.2342 24.7025 38.4277C23.2422 37.6212 22.0106 36.4572 21.1228 35.0449C20.2351 33.6325 19.7204 32.0179 19.6268 30.3524C19.5333 28.6868 19.864 27.0248 20.588 25.5219C24.2558 17.8835 30.0057 11.436 37.1761 6.92132C44.3464 2.4066 52.6457 0.00814399 61.119 0.00196509C69.5922 -0.0042138 77.895 2.38213 85.0719 6.88639C92.2489 11.3906 98.0082 17.8298 101.687 25.4627C102.677 27.7949 102.732 30.4188 101.839 32.7898C100.945 35.1609 99.1735 37.0969 96.8907 38.1961C94.6078 39.2952 91.9894 39.473 89.5789 38.6927C87.1684 37.9123 85.151 36.2336 83.9455 34.0051C81.8857 29.7135 78.6552 26.0914 74.6262 23.5562C70.5973 21.0209 65.9339 19.6758 61.1737 19.6758C56.4135 19.6758 51.7501 21.0209 47.7212 23.5562C43.6923 26.0914 40.4617 29.7135 38.4019 34.0051C37.6035 35.6976 36.3397 37.1279 34.7583 38.1286C33.1769 39.1293 31.3433 39.6592 29.4719 39.6562Z" fill="#0F385A"/>
</svg>
