<svg width="41" height="38" viewBox="0 0 41 38" fill="none" xmlns="http://www.w3.org/2000/svg">
<path d="M20.462 37.9997C18.7177 38.0021 16.9902 37.6669 15.3789 37.0135C13.7675 36.3601 12.3041 35.4014 11.0729 34.1926L0.962645 24.3026C0.346072 23.699 -0.00020547 22.8806 9.14691e-08 22.0272C0.000205653 21.1739 0.346878 20.3555 0.963742 19.7523C1.58061 19.149 2.41713 18.8102 3.28931 18.8104C4.16148 18.8106 4.99784 19.1498 5.61442 19.7533L15.7225 29.6433C16.9806 30.8727 18.686 31.5632 20.4641 31.5632C22.2422 31.5632 23.9477 30.8727 25.2058 29.6433L35.3819 19.6847C35.9984 19.0806 36.835 18.7408 37.7076 18.7402C38.5802 18.7396 39.4173 19.0782 40.0347 19.6815C40.6522 20.2847 40.9994 21.1033 41 21.9571C41.0006 22.8108 40.6546 23.6298 40.038 24.234L29.862 34.1926C28.6288 35.4019 27.1635 36.3607 25.5503 37.0141C23.9371 37.6674 22.2079 38.0024 20.462 37.9997Z" fill="url(#paint0_linear_1620_66)"/>
<path d="M20.5014 25.4732C24.1117 25.4732 27.0384 22.6096 27.0384 19.0772C27.0384 15.5447 24.1117 12.6812 20.5014 12.6812C16.8911 12.6812 13.9644 15.5447 13.9644 19.0772C13.9644 22.6096 16.8911 25.4732 20.5014 25.4732Z" fill="url(#paint1_linear_1620_66)"/>
<path d="M9.83211 12.9441C9.27558 12.9443 8.72811 12.8064 8.24095 12.5431C7.75379 12.2799 7.3429 11.8999 7.04674 11.4389C6.75058 10.9779 6.57886 10.4509 6.54766 9.90723C6.51645 9.36357 6.62677 8.82106 6.86831 8.33049C8.09194 5.83726 10.0102 3.73271 12.4023 2.25905C14.7944 0.785394 17.5632 0.00250905 20.39 0.000492188C23.2167 -0.00152468 25.9867 0.777408 28.381 2.24765C30.7753 3.7179 32.6967 5.8197 33.924 8.31119C34.2544 9.07243 34.2725 9.92891 33.9745 10.7028C33.6765 11.4768 33.0854 12.1087 32.3238 12.4675C31.5623 12.8263 30.6887 12.8843 29.8846 12.6296C29.0804 12.3749 28.4074 11.8269 28.0052 11.0995C27.318 9.69871 26.2403 8.5164 24.8961 7.68886C23.552 6.86133 21.9963 6.42226 20.4082 6.42226C18.8201 6.42226 17.2644 6.86133 15.9203 7.68886C14.5762 8.5164 13.4984 9.69871 12.8113 11.0995C12.5449 11.652 12.1233 12.1188 11.5957 12.4455C11.0681 12.7721 10.4564 12.9451 9.83211 12.9441Z" fill="white"/>
<defs>
<linearGradient id="paint0_linear_1620_66" x1="20.5" y1="18.7402" x2="20.5" y2="37.9998" gradientUnits="userSpaceOnUse">
<stop stop-color="#FFDE2F"/>
<stop offset="1" stop-color="#FFAB2D"/>
</linearGradient>
<linearGradient id="paint1_linear_1620_66" x1="20.5014" y1="12.6812" x2="20.5014" y2="25.4732" gradientUnits="userSpaceOnUse">
<stop stop-color="#FFDE2F"/>
<stop offset="1" stop-color="#FFAB2D"/>
</linearGradient>
</defs>
</svg>
