<svg width="141" height="141" viewBox="0 0 141 141" fill="none" xmlns="http://www.w3.org/2000/svg">
<path d="M70.7664 70.7106C68.6237 70.7135 66.5016 70.2927 64.5221 69.4724C62.5427 68.652 60.745 67.4483 59.2324 65.9306L46.8124 53.5131C46.055 52.7553 45.6296 51.7277 45.6299 50.6563C45.6301 49.5848 46.056 48.5574 46.8138 47.7999C47.5716 47.0425 48.5992 46.6171 49.6706 46.6174C50.7421 46.6176 51.7695 47.0435 52.5269 47.8013L64.9442 60.2187C66.4898 61.7622 68.5848 62.6292 70.7691 62.6292C72.9535 62.6292 75.0485 61.7622 76.5941 60.2187L89.0949 47.7151C89.8523 46.9566 90.88 46.5301 91.9519 46.5293C93.0239 46.5285 94.0522 46.9536 94.8107 47.7111C95.5692 48.4685 95.9957 49.4962 95.9965 50.5682C95.9972 51.6401 95.5722 52.6685 94.8147 53.427L82.3139 65.9306C80.799 67.4489 78.999 68.6528 77.0173 69.4731C75.0355 70.2934 72.9112 70.714 70.7664 70.7106Z" fill="#383D48"/>
<path d="M70.8146 54.9824C75.2497 54.9824 78.8451 51.387 78.8451 46.9519C78.8451 42.5168 75.2497 38.9214 70.8146 38.9214C66.3795 38.9214 62.7842 42.5168 62.7842 46.9519C62.7842 51.387 66.3795 54.9824 70.8146 54.9824Z" fill="#383D48"/>
<path d="M57.7081 39.2519C57.0245 39.2522 56.3519 39.0789 55.7535 38.7484C55.155 38.4179 54.6503 37.9409 54.2865 37.362C53.9226 36.7832 53.7117 36.1215 53.6733 35.4389C53.635 34.7563 53.7705 34.0752 54.0673 33.4593C55.5704 30.3289 57.9269 27.6865 60.8655 25.8362C63.8041 23.986 67.2054 23.003 70.678 23.0005C74.1506 22.998 77.5533 23.976 80.4946 25.8219C83.4359 27.6679 85.7962 30.3068 87.3039 33.435C87.7098 34.3908 87.732 35.4661 87.366 36.4379C86.9999 37.4096 86.2738 38.203 85.3382 38.6535C84.4026 39.104 83.3295 39.1768 82.3416 38.857C81.3538 38.5372 80.527 37.8492 80.0329 36.9359C79.1888 35.1771 77.8648 33.6927 76.2136 32.6537C74.5624 31.6146 72.6513 31.0634 70.7004 31.0634C68.7495 31.0634 66.8384 31.6146 65.1872 32.6537C63.536 33.6927 62.2121 35.1771 61.3679 36.9359C61.0407 37.6296 60.5227 38.2157 59.8746 38.6258C59.2265 39.036 58.4751 39.2531 57.7081 39.2519Z" fill="#383D48"/>
<path d="M54.8517 111.409L54.9156 111.475C54.9384 111.496 54.9612 111.521 54.9856 111.545C55.0091 111.536 55.0304 111.522 55.0479 111.504C55.0753 111.479 55.1027 111.454 55.1301 111.426C55.1552 111.4 55.1785 111.373 55.2001 111.344C55.2157 111.328 55.2277 111.309 55.2351 111.288L54.978 111.003C54.9581 111.015 54.9398 111.03 54.9232 111.046C54.9009 111.065 54.8765 111.088 54.8502 111.114C54.8243 111.14 54.7999 111.166 54.7756 111.193C54.7545 111.218 54.7347 111.243 54.7163 111.27C54.7437 111.295 54.768 111.318 54.7878 111.341L54.8517 111.409Z" fill="#383D48"/>
<path d="M60.3456 111.157C60.3245 111.179 60.3056 111.204 60.2893 111.23L60.3593 111.305L60.4232 111.371L60.4871 111.437C60.5068 111.46 60.5312 111.483 60.5586 111.508C60.5806 111.498 60.6007 111.484 60.6179 111.467C60.6463 111.443 60.6732 111.417 60.6985 111.39C60.7259 111.362 60.7503 111.333 60.7716 111.308C60.7929 111.282 60.805 111.262 60.805 111.25L60.5464 110.967L60.4931 111.008C60.4703 111.028 60.4445 111.05 60.4186 111.076C60.3927 111.102 60.3684 111.13 60.3456 111.157Z" fill="#383D48"/>
<path d="M61.2539 111.823H61.2371C61.138 111.883 61.0483 111.958 60.9709 112.044C61.0226 112.151 61.0633 112.263 61.0926 112.379C61.1236 112.49 61.1405 112.604 61.1428 112.719V112.756C61.1438 112.768 61.1438 112.78 61.1428 112.792C61.1363 112.814 61.1238 112.833 61.1069 112.848C61.0899 112.863 61.0692 112.873 61.047 112.876C60.9937 112.892 60.9383 112.901 60.8826 112.9C60.7622 112.9 60.6425 112.883 60.5266 112.85C60.4064 112.815 60.3456 112.756 60.3456 112.672L60.3669 112.042L60.1432 112.056C60.1432 112.15 60.1432 112.289 60.1432 112.476C60.1472 112.583 60.1385 112.69 60.1174 112.796C60.1006 112.829 60.0489 112.853 59.9652 112.869C59.8898 112.882 59.8135 112.889 59.737 112.89C59.6564 112.89 59.5762 112.879 59.4981 112.859C59.4646 112.853 59.4327 112.84 59.4042 112.821C59.3757 112.803 59.3513 112.778 59.3323 112.75C59.3071 112.683 59.2972 112.611 59.3034 112.54C59.3034 112.424 59.311 112.286 59.3232 112.125V112.042H59.1086C59.1086 112.103 59.1026 112.21 59.0904 112.362C59.0861 112.458 59.0739 112.553 59.0539 112.646C59.0411 112.69 59.0171 112.73 58.9843 112.761C58.9514 112.793 58.9109 112.815 58.8667 112.826C58.7603 112.859 58.6494 112.875 58.5381 112.873H58.3084C58.2575 112.874 58.2067 112.871 58.1562 112.864C58.1181 112.858 58.0815 112.845 58.0482 112.826C58.0175 112.806 57.9902 112.782 57.9676 112.753C57.9406 112.716 57.9162 112.676 57.8945 112.636C57.8428 112.537 57.7941 112.433 57.7424 112.331C57.6992 112.226 57.6483 112.125 57.5903 112.027C57.5561 111.973 57.5169 111.922 57.4731 111.875C57.4306 111.83 57.3832 111.789 57.3316 111.755C57.28 111.72 57.2237 111.692 57.1643 111.673C57.1038 111.653 57.0407 111.643 56.9771 111.644C56.9445 111.644 56.9119 111.646 56.8797 111.651C56.8447 111.657 56.8101 111.665 56.7763 111.676C56.7454 111.686 56.7162 111.7 56.6896 111.718C56.6644 111.735 56.6448 111.759 56.6333 111.787C56.6148 111.832 56.6 111.878 56.5892 111.925C56.5739 111.982 56.5602 112.042 56.5466 112.106C56.5329 112.17 56.5207 112.239 56.507 112.304C56.4933 112.37 56.4796 112.435 56.4659 112.496C56.4533 112.547 56.4381 112.598 56.4203 112.648C56.4102 112.684 56.3937 112.717 56.3716 112.747C56.3516 112.765 56.3284 112.78 56.3031 112.791C56.2683 112.807 56.2322 112.82 56.1951 112.831C56.1479 112.842 56.1002 112.851 56.0521 112.858C55.9965 112.864 55.9406 112.867 55.8847 112.867H55.7219C55.6869 112.867 55.6428 112.867 55.5881 112.867C55.5334 112.866 55.4789 112.86 55.4253 112.849C55.3786 112.84 55.3331 112.826 55.2899 112.806C55.2555 112.791 55.2279 112.764 55.2123 112.73C55.1954 112.681 55.1841 112.63 55.1788 112.578C55.1788 112.513 55.1651 112.446 55.1605 112.373C55.156 112.3 55.1605 112.231 55.1605 112.16C55.1605 112.088 55.1605 112.03 55.1605 111.983L54.9293 112.007L54.946 112.607V112.646C54.9425 112.681 54.9299 112.713 54.9095 112.741C54.8824 112.773 54.8465 112.798 54.806 112.811C54.7469 112.832 54.6857 112.846 54.6235 112.853C54.5092 112.864 54.3944 112.869 54.2796 112.867H54.1868C54.1065 112.868 54.0262 112.864 53.9464 112.855C53.8951 112.849 53.8467 112.828 53.808 112.794C53.7699 112.755 53.7435 112.707 53.7319 112.654C53.7152 112.592 53.6969 112.509 53.6771 112.406C53.6771 112.385 53.668 112.348 53.6604 112.296C53.6528 112.245 53.6452 112.184 53.6376 112.117C53.63 112.05 53.6208 111.98 53.6117 111.907C53.6026 111.834 53.5919 111.755 53.5813 111.651C53.5706 111.548 53.563 111.481 53.5569 111.429C53.555 111.394 53.555 111.358 53.5569 111.323H53.5448L53.2785 111.501C53.2998 111.604 53.3211 111.717 53.3439 111.837C53.3668 111.957 53.3865 112.061 53.4048 112.141C53.4231 112.222 53.4383 112.306 53.455 112.385C53.4717 112.464 53.4839 112.537 53.493 112.619C53.495 112.639 53.4981 112.659 53.5022 112.678C53.5037 112.7 53.5037 112.721 53.5022 112.742C53.5022 112.756 53.4763 112.771 53.4307 112.786C53.3762 112.806 53.3202 112.821 53.2633 112.832C53.1964 112.844 53.1188 112.856 53.0305 112.864C52.9492 112.873 52.8674 112.877 52.7856 112.878C52.7177 112.878 52.6499 112.872 52.5832 112.859C52.5382 112.855 52.4957 112.836 52.4615 112.806C52.4471 112.784 52.4358 112.76 52.428 112.735C52.4195 112.701 52.4139 112.667 52.4113 112.633C52.4083 112.59 52.4083 112.547 52.4113 112.505C52.4113 112.459 52.4113 112.411 52.422 112.362H52.2865L52.2729 112.371C52.2564 112.512 52.2472 112.654 52.2455 112.796C52.2405 112.888 52.2555 112.981 52.2896 113.068C52.3039 113.101 52.3248 113.13 52.351 113.155C52.3771 113.18 52.408 113.199 52.4417 113.211C52.5324 113.243 52.6285 113.258 52.7247 113.253C52.778 113.253 52.8495 113.253 52.9377 113.243C53.0229 113.237 53.1078 113.226 53.1918 113.211C53.2694 113.198 53.3462 113.18 53.4215 113.158C53.4796 113.144 53.534 113.118 53.5813 113.082C53.5913 113.071 53.5976 113.057 53.5995 113.042C53.606 113.02 53.6106 112.998 53.6132 112.975C53.6132 112.951 53.6208 112.925 53.6239 112.899C53.6269 112.873 53.6239 112.853 53.6239 112.838C53.6497 112.923 53.671 112.99 53.6908 113.045C53.7079 113.092 53.7361 113.134 53.773 113.168C53.8129 113.2 53.8608 113.221 53.9114 113.228C53.9871 113.238 54.0633 113.243 54.1397 113.241H54.4546C54.5187 113.241 54.5827 113.237 54.6463 113.229C54.7056 113.221 54.7641 113.209 54.8213 113.191C54.8726 113.177 54.9206 113.152 54.9627 113.12C54.9951 113.095 55.0203 113.062 55.0358 113.024L55.0769 112.914C55.0788 112.933 55.0818 112.952 55.086 112.97C55.0891 112.992 55.0937 113.012 55.0997 113.033C55.0997 113.053 55.1118 113.071 55.1179 113.086C55.1249 113.102 55.1341 113.116 55.1453 113.129C55.1761 113.156 55.2124 113.176 55.2518 113.188C55.3015 113.204 55.3523 113.217 55.404 113.225C55.462 113.233 55.5204 113.238 55.5789 113.24H55.8908C55.941 113.24 55.9928 113.24 56.043 113.24C56.0917 113.237 56.14 113.23 56.1875 113.218C56.2308 113.209 56.2731 113.196 56.3138 113.179C56.3491 113.164 56.3808 113.142 56.4066 113.114C56.4361 113.081 56.4598 113.043 56.4766 113.002C56.4948 112.958 56.5116 112.911 56.5268 112.862C56.5268 112.902 56.5268 112.942 56.5344 112.978C56.5352 113.002 56.5415 113.026 56.5526 113.048C56.5688 113.073 56.5914 113.094 56.6181 113.107C56.6558 113.13 56.6955 113.15 56.7367 113.165C56.7839 113.185 56.8356 113.203 56.8889 113.222C56.9468 113.24 57.0057 113.255 57.0654 113.267C57.1247 113.279 57.184 113.29 57.2418 113.298C57.2923 113.304 57.3431 113.308 57.394 113.308C57.4338 113.309 57.4736 113.305 57.5127 113.298C57.5405 113.292 57.5666 113.28 57.5887 113.263C57.6063 113.242 57.6207 113.219 57.6313 113.194C57.6466 113.162 57.6618 113.126 57.6785 113.085C57.696 113.041 57.7112 112.997 57.7241 112.952C57.7383 112.905 57.7505 112.86 57.7607 112.82C57.7813 112.88 57.8063 112.938 57.8352 112.995C57.8542 113.036 57.8772 113.076 57.9037 113.114C57.9209 113.139 57.9438 113.16 57.9706 113.176C58.0007 113.193 58.0329 113.207 58.0665 113.215C58.1043 113.226 58.143 113.234 58.1821 113.238C58.2244 113.244 58.2672 113.246 58.3099 113.246H58.4225C58.5373 113.246 58.6521 113.241 58.7663 113.229C58.8565 113.221 58.9428 113.188 59.0158 113.135C59.0463 113.107 59.0711 113.074 59.0889 113.037C59.1111 112.993 59.1304 112.946 59.1467 112.899C59.1502 112.95 59.1579 113.001 59.1695 113.051C59.178 113.09 59.1981 113.125 59.2273 113.152C59.2887 113.194 59.3598 113.221 59.4342 113.229C59.5227 113.244 59.6123 113.252 59.702 113.252C59.8087 113.252 59.9153 113.247 60.0215 113.237C60.1 113.234 60.176 113.208 60.2406 113.164C60.2503 113.152 60.2575 113.138 60.2619 113.123C60.2684 113.106 60.273 113.089 60.2756 113.071C60.2999 113.13 60.373 113.174 60.4916 113.202C60.6003 113.228 60.7116 113.242 60.8233 113.243C60.888 113.244 60.9527 113.239 61.0165 113.228C61.0716 113.219 61.1238 113.197 61.1687 113.164C61.2188 113.116 61.2547 113.056 61.2721 112.989C61.3005 112.898 61.3219 112.805 61.336 112.71C61.3482 112.632 61.3553 112.552 61.3573 112.473C61.3569 112.358 61.3483 112.244 61.3315 112.131C61.3161 112.026 61.2901 111.923 61.2539 111.823ZM57.5857 112.736L57.5766 112.797C57.5748 112.816 57.5712 112.834 57.5659 112.852C57.5624 112.866 57.5573 112.88 57.5507 112.893C57.5365 112.909 57.5171 112.919 57.4959 112.922C57.462 112.93 57.4273 112.933 57.3925 112.932C57.321 112.932 57.2498 112.925 57.1795 112.913C57.1013 112.899 57.024 112.881 56.9482 112.858C56.8804 112.838 56.815 112.81 56.7535 112.776C56.7086 112.755 56.6722 112.72 56.65 112.675C56.65 112.657 56.65 112.63 56.65 112.59C56.65 112.551 56.6591 112.508 56.6652 112.459C56.6713 112.411 56.6804 112.359 56.6896 112.307L56.7185 112.164C56.7261 112.128 56.7362 112.092 56.7489 112.058C56.7596 112.029 56.7687 112.012 56.7793 112.009C56.822 111.997 56.866 111.992 56.9102 111.992C56.9824 111.992 57.0541 112.005 57.1217 112.03C57.1851 112.054 57.245 112.086 57.2997 112.126C57.3468 112.163 57.3888 112.206 57.4244 112.254C57.461 112.301 57.4921 112.352 57.5172 112.406C57.5397 112.455 57.5571 112.506 57.569 112.558C57.5801 112.601 57.5852 112.646 57.5842 112.691C57.5862 112.708 57.5867 112.726 57.5857 112.744V112.736Z" fill="#383D48"/>
<path d="M60.0474 110.778C60.0671 110.802 60.0884 110.824 60.1097 110.847L60.1828 110.917C60.2051 110.906 60.2257 110.892 60.2436 110.875C60.2695 110.851 60.2969 110.825 60.3227 110.798C60.3486 110.77 60.3745 110.743 60.3958 110.717C60.413 110.702 60.4248 110.681 60.4292 110.658L60.1721 110.375C60.1522 110.385 60.1337 110.398 60.1173 110.413C60.0945 110.434 60.0687 110.457 60.0428 110.483C60.0169 110.509 59.9911 110.538 59.9683 110.565C59.9454 110.592 59.9256 110.617 59.9104 110.638L59.9835 110.711L60.0474 110.778Z" fill="#383D48"/>
<path d="M59.7766 111.378L59.8405 111.443C59.8617 111.466 59.8861 111.489 59.9104 111.513C59.9337 111.504 59.9549 111.491 59.9728 111.473C60.0016 111.45 60.0285 111.424 60.0535 111.396C60.0808 111.367 60.1037 111.339 60.1265 111.314C60.1404 111.297 60.1517 111.279 60.1599 111.259L59.9013 110.971C59.8827 110.984 59.8649 110.999 59.8481 111.014C59.8257 111.033 59.8014 111.056 59.775 111.082C59.7492 111.108 59.7233 111.136 59.7005 111.163C59.679 111.187 59.6592 111.212 59.6411 111.239C59.6685 111.263 59.6913 111.288 59.7126 111.311L59.7766 111.378Z" fill="#383D48"/>
<path d="M66.0646 112.093C66.0254 112.037 65.977 111.988 65.9216 111.948C65.8573 111.902 65.7879 111.863 65.7147 111.832C65.6356 111.799 65.5534 111.769 65.4682 111.74C65.383 111.711 65.2583 111.679 65.1472 111.654C65.0361 111.63 64.9296 111.607 64.8277 111.589C64.7258 111.571 64.6299 111.556 64.5401 111.542L64.3104 111.505C64.3104 111.533 64.2922 111.574 64.2769 111.626C64.2617 111.677 64.2435 111.735 64.2252 111.799C64.207 111.863 64.1857 111.931 64.1644 112.006C64.1431 112.08 64.1248 112.158 64.1065 112.23C64.0883 112.301 64.0715 112.382 64.0579 112.447C64.0442 112.513 64.0366 112.584 64.0305 112.643C64.0253 112.694 64.0253 112.745 64.0305 112.796C64.0312 112.828 64.0437 112.859 64.0655 112.884H63.3321C63.3218 112.687 63.2839 112.492 63.2195 112.306C63.1666 112.147 63.0758 112.003 62.9548 111.887C62.842 111.785 62.6944 111.731 62.5425 111.735C62.4614 111.732 62.3811 111.751 62.3097 111.79C62.2426 111.83 62.1896 111.89 62.1576 111.962C62.108 112.098 62.0743 112.239 62.0572 112.383C62.0552 112.41 62.0516 112.437 62.0465 112.464C62.0389 112.525 62.0328 112.57 62.0313 112.601C62.0237 112.688 62.0206 112.776 62.0222 112.864C62.0204 112.927 62.0245 112.989 62.0344 113.051C62.0473 113.095 62.0723 113.134 62.1065 113.164C62.1407 113.193 62.1827 113.213 62.2276 113.22C62.3619 113.253 62.5 113.269 62.6384 113.266H62.7342C62.8504 113.27 62.9668 113.267 63.0826 113.257C63.0518 113.398 62.9894 113.531 62.9 113.644C62.8032 113.782 62.6845 113.902 62.5486 114.001C62.4472 114.08 62.3273 114.132 62.2002 114.153C62.1085 114.155 62.0174 114.138 61.9324 114.104C61.8378 114.072 61.7461 114.032 61.6586 113.984L61.5734 114.165C61.65 114.223 61.732 114.274 61.8183 114.317C61.9216 114.371 62.0283 114.418 62.1378 114.458C62.2128 114.49 62.2938 114.505 62.3752 114.503C62.4445 114.487 62.5104 114.459 62.5699 114.42C62.6459 114.377 62.7173 114.326 62.7829 114.268C63.0816 114.009 63.2726 113.647 63.3184 113.253H63.8479C63.9133 113.253 63.9848 113.253 64.0655 113.246C64.1461 113.238 64.2267 113.235 64.3104 113.226C64.3941 113.217 64.4763 113.208 64.5569 113.194C64.6375 113.18 64.709 113.168 64.776 113.153C64.9053 113.179 65.0361 113.199 65.1639 113.215C65.2937 113.231 65.4242 113.239 65.5549 113.24C65.6036 113.24 65.6508 113.24 65.6995 113.24C65.7454 113.237 65.7911 113.232 65.8364 113.225C65.8731 113.219 65.9093 113.211 65.9444 113.199C65.9697 113.191 65.9919 113.175 66.0083 113.155C66.0314 113.115 66.0483 113.072 66.0585 113.027C66.0738 112.964 66.0874 112.894 66.0996 112.812C66.1121 112.725 66.1203 112.637 66.124 112.549C66.1293 112.457 66.1293 112.364 66.124 112.272C66.1223 112.208 66.1016 112.145 66.0646 112.093ZM62.7068 112.908C62.601 112.91 62.4953 112.9 62.3919 112.878C62.3113 112.858 62.2626 112.834 62.2489 112.805C62.2316 112.762 62.2243 112.715 62.2276 112.669C62.2286 112.556 62.2387 112.443 62.258 112.331C62.2639 112.251 62.289 112.172 62.331 112.103C62.4363 112.069 62.5498 112.069 62.6551 112.103C62.7421 112.137 62.8172 112.196 62.8711 112.272C62.9376 112.36 62.989 112.458 63.0233 112.563C63.061 112.67 63.085 112.781 63.0948 112.894C63.0522 112.897 62.9229 112.908 62.7068 112.908ZM65.0955 112.528C65.092 112.546 65.0894 112.565 65.0879 112.584C65.0788 112.608 65.0648 112.63 65.0468 112.648C65.0198 112.678 64.9891 112.705 64.9555 112.727C64.9134 112.756 64.8686 112.781 64.8216 112.802C64.7678 112.825 64.7117 112.842 64.6543 112.853C64.5927 112.843 64.5318 112.829 64.4717 112.812C64.4227 112.798 64.3772 112.774 64.3378 112.742C64.3019 112.712 64.2754 112.672 64.2617 112.627C64.2456 112.568 64.2409 112.507 64.248 112.447C64.2556 112.385 64.2663 112.321 64.28 112.254C64.2937 112.187 64.3104 112.126 64.3272 112.07C64.3398 112.022 64.3556 111.975 64.3743 111.93C64.3817 111.908 64.392 111.887 64.4047 111.867C64.5208 111.865 64.6363 111.884 64.7455 111.924C64.8234 111.952 64.8945 111.997 64.954 112.055C65.0016 112.103 65.0385 112.161 65.062 112.225C65.0805 112.281 65.0928 112.338 65.0985 112.397C65.1024 112.438 65.1014 112.479 65.0955 112.52V112.528ZM65.9399 112.68C65.9374 112.719 65.9329 112.757 65.9262 112.796C65.9262 112.829 65.9155 112.849 65.9094 112.852C65.8902 112.863 65.8691 112.871 65.8471 112.875L65.7482 112.891C65.7086 112.891 65.666 112.894 65.6204 112.9C65.5747 112.9 65.5276 112.9 65.4804 112.9C65.4332 112.9 65.3602 112.9 65.307 112.9C65.2537 112.9 65.2035 112.9 65.1624 112.887C65.1776 112.862 65.1913 112.834 65.2081 112.802C65.2225 112.772 65.2338 112.741 65.2415 112.709C65.2545 112.662 65.2642 112.614 65.2704 112.566C65.2785 112.51 65.2826 112.453 65.2826 112.397C65.2826 112.337 65.2795 112.277 65.2735 112.217C65.2673 112.157 65.2566 112.097 65.2415 112.038C65.3749 112.072 65.5052 112.117 65.631 112.173C65.7037 112.205 65.7718 112.246 65.8334 112.296C65.867 112.323 65.8945 112.356 65.914 112.394C65.9225 112.413 65.9286 112.434 65.9323 112.455C65.9407 112.486 65.9443 112.519 65.9429 112.552C65.9429 112.581 65.9429 112.624 65.9429 112.668L65.9399 112.68Z" fill="#383D48"/>
<path d="M70.6183 111.409L70.7537 111.545C70.7767 111.536 70.7974 111.522 70.8145 111.504C70.8434 111.479 70.8693 111.454 70.8967 111.426C70.9222 111.4 70.9461 111.373 70.9682 111.344C70.9839 111.328 70.9958 111.309 71.0032 111.288L70.7445 111.003C70.725 111.016 70.7066 111.03 70.6898 111.046C70.6675 111.065 70.6431 111.088 70.6167 111.114C70.5924 111.14 70.5665 111.166 70.5437 111.193C70.5226 111.218 70.5028 111.243 70.4844 111.27L70.5559 111.341L70.6183 111.409Z" fill="#383D48"/>
<path d="M72.3603 113.853L72.2858 113.921C72.2593 113.947 72.2344 113.975 72.2112 114.004L72.1549 114.078L72.2279 114.15L72.2903 114.217C72.3101 114.238 72.3314 114.261 72.3542 114.282L72.4242 114.355C72.4472 114.346 72.468 114.332 72.4851 114.314C72.5125 114.29 72.5398 114.264 72.5672 114.236C72.5928 114.21 72.6166 114.183 72.6387 114.154C72.6537 114.138 72.6656 114.119 72.6737 114.098L72.4151 113.813C72.3948 113.824 72.3763 113.837 72.3603 113.853Z" fill="#383D48"/>
<path d="M72.7087 111.954C72.6948 111.89 72.677 111.827 72.6555 111.766H72.6372C72.6134 111.778 72.5906 111.792 72.5687 111.808C72.5383 111.829 72.5079 111.852 72.479 111.877C72.4501 111.901 72.4227 111.922 72.3999 111.942C72.3845 111.953 72.3711 111.967 72.3603 111.983C72.388 112.04 72.4119 112.099 72.4318 112.16C72.4546 112.228 72.4744 112.296 72.4912 112.37C72.5088 112.438 72.5216 112.508 72.5292 112.578C72.5352 112.638 72.5352 112.698 72.5292 112.757C72.5241 112.77 72.5164 112.781 72.5067 112.79C72.497 112.798 72.4855 112.805 72.4729 112.809C72.4355 112.826 72.3961 112.838 72.3557 112.846C72.3081 112.855 72.2533 112.862 72.1914 112.869C72.1306 112.869 72.0712 112.879 72.0149 112.881C71.9587 112.882 71.8902 112.881 71.808 112.881H71.5037C71.4688 112.881 71.4246 112.881 71.3683 112.881C71.3142 112.879 71.2602 112.873 71.2071 112.862C71.1599 112.854 71.1139 112.839 71.0701 112.82C71.0358 112.805 71.0082 112.778 70.9925 112.744C70.9763 112.694 70.9656 112.643 70.9606 112.592C70.9515 112.526 70.9454 112.459 70.9423 112.386C70.9393 112.313 70.9423 112.245 70.9347 112.173C70.9271 112.102 70.9347 112.044 70.9347 111.997L70.702 112.021L70.7202 112.621V112.66C70.7155 112.694 70.7024 112.727 70.6822 112.754C70.6557 112.787 70.6203 112.811 70.5802 112.824C70.5207 112.845 70.4589 112.86 70.3961 112.867C70.2819 112.878 70.1671 112.883 70.0523 112.881H69.0938C69.0821 112.906 69.0739 112.932 69.0695 112.96C69.0618 112.992 69.0558 113.022 69.0482 113.054C69.0406 113.086 69.036 113.117 69.0329 113.145C69.0301 113.169 69.0301 113.193 69.0329 113.217L69.0527 113.243C69.1577 113.243 69.2475 113.257 69.322 113.267C69.3851 113.274 69.4477 113.286 69.5092 113.302C69.549 113.312 69.5874 113.326 69.6233 113.346C69.645 113.358 69.663 113.375 69.675 113.396C69.6828 113.412 69.6864 113.429 69.6856 113.447C69.6871 113.475 69.6871 113.504 69.6856 113.532C69.6856 113.562 69.6826 113.59 69.6765 113.614C69.6755 113.632 69.6719 113.649 69.6659 113.666C69.6456 113.695 69.6178 113.719 69.5852 113.734C69.5328 113.764 69.4778 113.789 69.4209 113.809C69.3473 113.837 69.2721 113.861 69.1957 113.88C69.1105 113.903 69.0208 113.924 68.9264 113.941C68.8321 113.958 68.7332 113.972 68.6313 113.982C68.5302 113.993 68.4287 113.999 68.327 113.999C68.1911 114.002 68.0552 113.994 67.9208 113.973C67.8312 113.959 67.743 113.937 67.6576 113.906C67.6035 113.888 67.5522 113.861 67.5054 113.829C67.4803 113.812 67.4599 113.789 67.4461 113.762C67.4316 113.717 67.4249 113.671 67.4263 113.625C67.4263 113.561 67.4263 113.489 67.4263 113.407C67.4263 113.325 67.4263 113.237 67.4415 113.144C67.4567 113.051 67.4583 112.958 67.4689 112.869C67.4796 112.779 67.4902 112.695 67.5024 112.616C67.5146 112.537 67.5222 112.473 67.5298 112.421H67.3594L67.3365 112.429C67.3264 112.487 67.3158 112.56 67.3046 112.648C67.2924 112.735 67.2818 112.831 67.2726 112.934C67.2635 113.037 67.2544 113.144 67.2468 113.255C67.2392 113.366 67.2346 113.473 67.2316 113.578C67.2285 113.683 67.2316 113.777 67.2316 113.865C67.2343 113.938 67.2424 114.011 67.2559 114.083C67.2653 114.136 67.294 114.184 67.3365 114.218C67.3858 114.258 67.4413 114.289 67.5009 114.311C67.5692 114.335 67.6394 114.353 67.7108 114.366C67.7869 114.379 67.863 114.388 67.9375 114.395C68.0121 114.401 68.082 114.404 68.1475 114.407H68.3118C68.3787 114.407 68.4639 114.407 68.5507 114.39C68.6374 114.373 68.7363 114.367 68.8352 114.352C68.934 114.337 69.0329 114.315 69.1394 114.29C69.2339 114.267 69.3269 114.238 69.4179 114.204C69.4957 114.175 69.5702 114.137 69.64 114.092C69.6956 114.058 69.7409 114.01 69.7708 113.952C69.7882 113.918 69.8005 113.881 69.8074 113.844C69.8074 113.806 69.8195 113.763 69.8256 113.718C69.8317 113.672 69.8363 113.631 69.8393 113.584C69.8423 113.536 69.8469 113.492 69.8499 113.451C69.853 113.41 69.8499 113.371 69.8499 113.339C69.8522 113.315 69.8522 113.291 69.8499 113.267H70.2121C70.2761 113.267 70.3402 113.263 70.4038 113.255C70.4636 113.247 70.5226 113.235 70.5802 113.217C70.631 113.202 70.6785 113.178 70.7202 113.145C70.7535 113.121 70.7789 113.088 70.7932 113.05C70.8105 113.01 70.8242 112.974 70.8343 112.94C70.8343 112.957 70.8343 112.975 70.8434 112.996C70.8526 113.018 70.8526 113.037 70.8587 113.059C70.8627 113.077 70.8688 113.095 70.8769 113.112C70.8827 113.128 70.8921 113.143 70.9043 113.155C70.9343 113.182 70.9702 113.202 71.0093 113.214C71.059 113.23 71.1099 113.242 71.1614 113.25C71.2199 113.259 71.2788 113.264 71.3379 113.266H71.8887C71.9739 113.266 72.0408 113.266 72.1108 113.266C72.1808 113.266 72.2325 113.257 72.2873 113.249C72.3387 113.243 72.3896 113.233 72.4394 113.218C72.4809 113.208 72.5209 113.192 72.5581 113.171C72.5885 113.157 72.6123 113.131 72.625 113.1C72.6463 113.048 72.6692 112.99 72.692 112.926C72.7143 112.863 72.7306 112.797 72.7407 112.73C72.7539 112.642 72.761 112.553 72.762 112.464C72.7632 112.377 72.7581 112.291 72.7468 112.205C72.7393 112.121 72.7266 112.037 72.7087 111.954Z" fill="#383D48"/>
<path d="M71.7152 113.859C71.6889 113.881 71.6639 113.904 71.6407 113.929C71.6148 113.955 71.5905 113.982 71.5676 114.01L71.5098 114.083L71.5798 114.154C71.6026 114.179 71.6239 114.2 71.6437 114.223L71.7061 114.288L71.7791 114.361C71.8015 114.351 71.822 114.337 71.84 114.32C71.8658 114.296 71.8932 114.27 71.9191 114.242C71.9451 114.217 71.9695 114.189 71.9921 114.16C72.0089 114.144 72.0215 114.124 72.0286 114.102L71.7685 113.821C71.7491 113.831 71.7312 113.844 71.7152 113.859Z" fill="#383D48"/>
<path d="M73.8452 111.2C73.865 111.222 73.8878 111.244 73.9091 111.265L73.9791 111.336C74.0023 111.326 74.0234 111.312 74.0415 111.294C74.0702 111.27 74.0972 111.244 74.1221 111.216C74.1477 111.191 74.1716 111.164 74.1936 111.136C74.2095 111.119 74.2214 111.099 74.2286 111.078L73.9715 110.795C73.952 110.807 73.9336 110.82 73.9167 110.836C73.8934 110.855 73.8691 110.878 73.8437 110.904C73.8178 110.93 73.792 110.958 73.7692 110.985C73.7477 111.009 73.7278 111.034 73.7098 111.061C73.7372 111.085 73.76 111.11 73.7813 111.133L73.8452 111.2Z" fill="#383D48"/>
<path d="M76.383 112.307C76.3837 112.256 76.3776 112.205 76.3647 112.155C76.3481 112.103 76.3272 112.052 76.3023 112.003C76.2026 111.844 76.0789 111.702 75.9357 111.581C75.7485 111.411 75.5568 111.247 75.3606 111.093C75.4671 111.048 75.5857 111.003 75.7166 110.956C75.8474 110.909 75.9752 110.865 76.1 110.824C76.275 110.766 76.4408 110.708 76.5945 110.652L76.6812 110.262L76.669 110.253L76.386 110.357C76.0878 110.465 75.8525 110.555 75.6801 110.626C75.537 110.68 75.399 110.747 75.2678 110.825C75.1903 110.882 75.129 110.957 75.0898 111.044C75.0434 111.131 75.016 111.226 75.0091 111.324C75.1637 111.417 75.313 111.519 75.4564 111.629C75.6243 111.755 75.7829 111.893 75.9311 112.042C76.0438 112.141 76.1283 112.268 76.1761 112.411C76.1836 112.461 76.1872 112.512 76.1867 112.563C76.19 112.614 76.1854 112.665 76.173 112.715C76.138 112.776 76.0422 112.818 75.8855 112.844C75.6838 112.871 75.4804 112.884 75.2769 112.881H75C74.9008 112.886 74.802 112.866 74.7124 112.823C74.6267 112.767 74.5632 112.683 74.5329 112.586C74.4903 112.481 74.4386 112.331 74.3808 112.14L74.3108 111.98H74.291C74.2459 112.017 74.2037 112.058 74.1647 112.102C74.11 112.163 74.0704 112.207 74.0476 112.236C74.1445 112.409 74.2206 112.592 74.2743 112.783C74.2888 112.852 74.2984 112.921 74.3032 112.99C74.3032 113.068 74.3032 113.13 74.3032 113.176C74.2863 113.296 74.2415 113.411 74.1723 113.511C74.0859 113.659 73.9788 113.795 73.8544 113.914C73.7624 114.015 73.635 114.078 73.4983 114.089C73.4173 114.084 73.3373 114.068 73.261 114.04C73.1787 114.017 73.0999 113.984 73.0267 113.94L72.94 114.118C73.0612 114.196 73.1884 114.265 73.3203 114.323C73.4326 114.384 73.5555 114.424 73.6824 114.439C73.694 114.44 73.7058 114.44 73.7174 114.439C73.8551 114.396 73.9791 114.318 74.0765 114.212C74.1943 114.097 74.2934 113.965 74.3701 113.819C74.416 113.737 74.4503 113.649 74.4721 113.558C74.4904 113.472 74.499 113.384 74.4979 113.296V113.12C74.4979 113.04 74.4979 112.983 74.4979 112.946C74.5252 113.035 74.5647 113.12 74.6151 113.199C74.643 113.229 74.6807 113.248 74.7216 113.253C74.797 113.266 74.8734 113.272 74.9498 113.27H75.07C75.3438 113.27 75.5964 113.27 75.8307 113.246C75.9935 113.252 76.1538 113.204 76.2871 113.11C76.3525 113.033 76.383 112.77 76.383 112.307Z" fill="#383D48"/>
<path d="M75.5812 110.383L75.6694 110.344C75.7708 110.301 75.9199 110.237 76.1167 110.153L76.4636 110.001L76.5229 109.748C76.3708 109.813 76.2521 109.867 76.1456 109.909C75.9661 109.985 75.8216 110.048 75.7135 110.096C75.6055 110.145 75.499 110.198 75.394 110.256C75.3751 110.295 75.3588 110.334 75.3454 110.375C75.3301 110.419 75.3165 110.463 75.3028 110.504C75.3927 110.457 75.4857 110.417 75.5812 110.383Z" fill="#383D48"/>
<path d="M77.5636 111.759H77.5469C77.4935 111.793 77.4466 111.836 77.4084 111.886C77.3656 111.93 77.3264 111.978 77.2913 112.029C77.3917 112.197 77.4768 112.373 77.5453 112.557C77.607 112.713 77.6409 112.879 77.6458 113.047C77.6237 113.169 77.5714 113.283 77.4936 113.38C77.3961 113.531 77.2772 113.668 77.1406 113.786C77.038 113.889 76.902 113.951 76.7572 113.962C76.6728 113.959 76.5892 113.944 76.5093 113.917C76.432 113.894 76.3579 113.862 76.2886 113.821L76.2004 113.999C76.3213 114.079 76.4485 114.148 76.5808 114.207C76.6929 114.268 76.8151 114.307 76.9413 114.323C76.9529 114.325 76.9647 114.325 76.9763 114.323C77.1308 114.28 77.2727 114.201 77.3902 114.092C77.5157 113.983 77.6191 113.852 77.6944 113.704C77.7268 113.64 77.7543 113.574 77.7766 113.506C77.806 113.421 77.8224 113.331 77.8253 113.241C77.8253 113.141 77.8344 113.018 77.8344 112.87C77.8322 112.679 77.8077 112.488 77.7614 112.303C77.7185 112.114 77.652 111.931 77.5636 111.759Z" fill="#383D48"/>
<path d="M80.6019 110.104C80.2717 110.226 79.969 110.344 79.689 110.46C79.5059 110.523 79.3338 110.614 79.1794 110.731C79.1213 110.81 79.0771 110.899 79.0485 110.993C79.0133 111.091 78.9883 111.193 78.974 111.297C79.3209 111.545 79.6069 111.763 79.8321 111.951C80.0557 112.138 80.1789 112.287 80.2002 112.4C80.2092 112.446 80.2138 112.493 80.2139 112.54C80.217 112.599 80.2124 112.657 80.2002 112.715C80.1729 112.788 80.0694 112.834 79.8868 112.855C79.6755 112.876 79.4632 112.885 79.2509 112.884H79.0333C78.9693 112.886 78.9053 112.879 78.8431 112.864C78.8034 112.855 78.7668 112.835 78.7366 112.808C78.7132 112.784 78.6968 112.755 78.6895 112.722C78.6819 112.689 78.6758 112.653 78.6697 112.611C78.6636 112.57 78.6697 112.543 78.6606 112.478C78.6514 112.412 78.6606 112.335 78.6606 112.245V111.94C78.6606 111.829 78.6606 111.718 78.6606 111.606C78.6606 111.493 78.6606 111.382 78.6606 111.271V110.967C78.6606 110.894 78.6606 110.815 78.6606 110.749C78.6606 110.684 78.6606 110.612 78.6606 110.55C78.6606 110.487 78.6606 110.428 78.6606 110.375C78.6606 110.322 78.6606 110.274 78.6529 110.233H78.6332C78.6129 110.238 78.5931 110.245 78.5738 110.253C78.5385 110.266 78.504 110.282 78.4704 110.299C78.4354 110.317 78.4019 110.335 78.37 110.355C78.3465 110.368 78.3249 110.385 78.3061 110.404C78.3137 110.43 78.3213 110.466 78.3304 110.512C78.3395 110.557 78.3471 110.608 78.3532 110.664C78.3593 110.72 78.3669 110.783 78.373 110.856C78.3791 110.929 78.3867 111.049 78.3928 111.213C78.3989 111.378 78.405 111.518 78.405 111.632C78.405 111.746 78.405 111.861 78.405 111.979C78.405 112.096 78.405 112.211 78.405 112.324C78.405 112.436 78.405 112.544 78.405 112.646C78.405 112.748 78.405 112.841 78.4126 112.926C78.4128 112.989 78.4325 113.05 78.4688 113.101C78.5034 113.146 78.5498 113.18 78.6027 113.2C78.6631 113.224 78.7267 113.239 78.7914 113.244C78.8672 113.252 78.9434 113.256 79.0196 113.255H79.2722C79.4365 113.255 79.5765 113.255 79.6921 113.255C79.8264 113.252 79.9603 113.238 80.0922 113.212C80.1892 113.204 80.2803 113.162 80.3509 113.095C80.3917 113.009 80.4125 112.914 80.4117 112.818C80.4224 112.666 80.4285 112.54 80.4285 112.418C80.4283 112.342 80.4232 112.266 80.4132 112.19C80.3925 112.081 80.3395 111.98 80.2611 111.901C80.1659 111.788 80.0611 111.684 79.9477 111.589C79.829 111.49 79.6784 111.367 79.4913 111.221L79.2387 111.022C79.3036 110.964 79.7535 110.785 80.5882 110.484L80.6719 110.095L80.6597 110.087L80.6019 110.104Z" fill="#383D48"/>
<path d="M83.8745 111.216C83.8943 111.239 83.9171 111.26 83.9384 111.283L84.0084 111.353C84.0313 111.343 84.0523 111.329 84.0708 111.312C84.0981 111.288 84.1255 111.262 84.1514 111.235C84.1774 111.209 84.2013 111.182 84.2229 111.152C84.2388 111.136 84.2507 111.116 84.2579 111.095L83.9993 110.812C83.9805 110.824 83.9627 110.838 83.946 110.853L83.873 110.923C83.8466 110.947 83.8217 110.974 83.7984 111.002C83.7773 111.026 83.7575 111.051 83.7391 111.078C83.7665 111.104 83.7893 111.126 83.8106 111.149L83.8745 111.216Z" fill="#383D48"/>
<path d="M84.3964 111.954C84.3831 111.89 84.3653 111.827 84.3431 111.766H84.3188C84.2943 111.778 84.2708 111.792 84.2488 111.808C84.2183 111.829 84.1879 111.852 84.1575 111.877C84.1271 111.899 84.1012 111.922 84.0784 111.942C84.0637 111.954 84.0509 111.968 84.0403 111.983C84.068 112.04 84.0919 112.099 84.1118 112.16C84.1347 112.228 84.1544 112.296 84.1727 112.37C84.1892 112.438 84.2014 112.508 84.2092 112.578C84.216 112.638 84.216 112.698 84.2092 112.757C84.2041 112.77 84.1965 112.781 84.1867 112.79C84.177 112.798 84.1655 112.805 84.1529 112.809C84.1156 112.826 84.0762 112.839 84.0358 112.846C83.9886 112.855 83.9338 112.864 83.873 112.87C83.8121 112.876 83.7452 112.881 83.6767 112.882C83.6083 112.884 83.5611 112.882 83.5246 112.882H83.3983C83.3154 112.884 83.2324 112.879 83.1503 112.867C83.1021 112.86 83.0561 112.842 83.0164 112.814C82.9851 112.788 82.9636 112.752 82.9556 112.712C82.9449 112.669 82.9343 112.614 82.9221 112.551C82.8917 112.321 82.8658 112.093 82.8445 111.866C82.8217 111.638 82.7989 111.409 82.776 111.158C82.776 111.158 82.776 111.158 82.7654 111.158C82.7547 111.158 82.7563 111.158 82.7563 111.158L82.487 111.311L82.5417 111.626C82.4398 111.662 82.3439 111.699 82.2542 111.737C82.1644 111.775 82.0838 111.811 82.0077 111.849C81.9396 111.884 81.8744 111.924 81.813 111.969C81.7598 112.008 81.7126 112.055 81.673 112.108C81.6474 112.144 81.6297 112.186 81.6213 112.23C81.608 112.29 81.5979 112.352 81.5908 112.414C81.5832 112.481 81.5787 112.551 81.5756 112.624C81.5726 112.697 81.5756 112.767 81.5756 112.832C81.5756 112.897 81.5847 112.954 81.5924 113.004C81.5964 113.04 81.6062 113.076 81.6213 113.109C81.6379 113.132 81.6614 113.149 81.6882 113.158C81.731 113.173 81.7754 113.185 81.8206 113.191C81.879 113.201 81.9379 113.207 81.9971 113.209C82.0625 113.209 82.1279 113.209 82.1948 113.209C82.2618 113.209 82.3074 113.209 82.3637 113.209C82.42 113.209 82.4702 113.2 82.5159 113.194C82.5564 113.189 82.5965 113.18 82.6361 113.17C82.664 113.163 82.6903 113.151 82.7137 113.135C82.7213 113.135 82.7273 113.123 82.735 113.109C82.7429 113.093 82.7495 113.077 82.7547 113.06C82.7547 113.039 82.7684 113.019 82.7745 112.996C82.7806 112.974 82.7882 112.954 82.7928 112.932C82.8026 112.984 82.8169 113.035 82.8354 113.085C82.8491 113.126 82.8745 113.162 82.9084 113.19C82.9468 113.219 82.9916 113.239 83.0392 113.247C83.1121 113.26 83.186 113.265 83.2598 113.264H83.7969C83.8535 113.262 83.9098 113.256 83.9658 113.247C84.0171 113.24 84.0679 113.229 84.1179 113.215C84.1594 113.205 84.1994 113.189 84.2366 113.168C84.2668 113.153 84.2909 113.128 84.3051 113.097C84.3248 113.045 84.3477 112.987 84.3705 112.923C84.3935 112.86 84.4098 112.794 84.4192 112.727C84.4324 112.639 84.4395 112.55 84.4405 112.461C84.4422 112.374 84.4376 112.288 84.4268 112.202C84.4268 112.105 84.4131 112.027 84.3964 111.954ZM82.6452 112.809C82.6055 112.817 82.5653 112.823 82.525 112.827L82.385 112.838H82.2329C82.1751 112.838 82.1203 112.838 82.0686 112.838C82.0211 112.836 81.9739 112.831 81.9271 112.823C81.8904 112.817 81.8542 112.808 81.8191 112.796C81.7971 112.789 81.7782 112.775 81.7658 112.756C81.7592 112.726 81.7556 112.696 81.7551 112.666C81.7529 112.63 81.7529 112.593 81.7551 112.557C81.7551 112.519 81.7551 112.484 81.7658 112.452C81.7677 112.428 81.7756 112.406 81.7886 112.386C81.8198 112.336 81.8607 112.293 81.9088 112.258C81.9671 112.214 82.0298 112.175 82.096 112.143C82.1723 112.104 82.2511 112.071 82.3318 112.042C82.4185 112.012 82.5052 111.983 82.5965 111.959L82.7228 112.786C82.6975 112.796 82.6716 112.804 82.6452 112.809Z" fill="#383D48"/>
<path d="M87.4666 112.087C87.4262 112.006 87.375 111.931 87.3145 111.864C87.2552 111.799 87.1859 111.744 87.1091 111.702C87.029 111.657 86.9402 111.631 86.8489 111.626H86.8033C86.7703 111.624 86.7373 111.624 86.7044 111.626C86.6681 111.63 86.6324 111.638 86.5979 111.65C86.5656 111.661 86.535 111.675 86.5066 111.694C86.4811 111.71 86.461 111.733 86.4488 111.761C86.432 111.806 86.4178 111.852 86.4062 111.899C86.3925 111.959 86.3788 112.021 86.3651 112.088C86.3514 112.155 86.3377 112.223 86.3255 112.295C86.3134 112.366 86.2981 112.435 86.2814 112.499C86.2647 112.563 86.251 112.619 86.2358 112.668C86.2259 112.706 86.2094 112.743 86.1871 112.776L86.1475 112.803C86.1227 112.819 86.0955 112.831 86.0669 112.838C86.0171 112.853 85.9662 112.863 85.9147 112.869C85.8349 112.877 85.7547 112.881 85.6744 112.881H85.6196C85.5556 112.883 85.4916 112.876 85.4294 112.861C85.3897 112.851 85.3531 112.832 85.3229 112.805C85.2989 112.782 85.2824 112.752 85.2757 112.719C85.2681 112.686 85.262 112.649 85.256 112.608C85.2499 112.567 85.256 112.54 85.2468 112.474C85.2377 112.409 85.2468 112.331 85.2468 112.242V111.609C85.2468 111.496 85.2468 111.385 85.2468 111.274C85.2468 111.163 85.2468 111.061 85.2468 110.97C85.2468 110.878 85.2468 110.818 85.2468 110.752C85.2468 110.687 85.2468 110.615 85.2468 110.553C85.2468 110.491 85.2468 110.431 85.2468 110.378C85.2468 110.325 85.2468 110.278 85.2392 110.236H85.2194C85.1992 110.241 85.1793 110.248 85.1601 110.256C85.1247 110.269 85.0901 110.284 85.0567 110.302C85.0217 110.32 84.9882 110.338 84.9562 110.358C84.9327 110.371 84.9112 110.388 84.8923 110.407C84.8999 110.433 84.9076 110.469 84.9167 110.515C84.9258 110.561 84.9334 110.611 84.9395 110.667C84.9456 110.723 84.9532 110.786 84.9593 110.859C84.9654 110.932 84.973 111.052 84.9791 111.216C84.9851 111.381 84.9897 111.521 84.9912 111.635C84.9928 111.749 84.9912 111.864 84.9912 111.982C84.9912 112.099 84.9912 112.214 84.9912 112.327C84.9912 112.44 84.9912 112.548 84.9912 112.649C84.9912 112.751 84.9912 112.844 84.9988 112.929C84.9979 112.989 85.0158 113.048 85.0499 113.097C85.084 113.146 85.1327 113.183 85.189 113.203C85.2489 113.227 85.3119 113.242 85.3762 113.247C85.4525 113.255 85.5292 113.259 85.6059 113.258H85.72C85.8384 113.261 85.9565 113.245 86.0699 113.211C86.1119 113.2 86.1513 113.181 86.1858 113.155C86.2203 113.129 86.2492 113.096 86.2708 113.059C86.286 113.025 86.2997 112.99 86.3118 112.955C86.324 112.92 86.3362 112.879 86.3483 112.834C86.3483 112.856 86.3483 112.879 86.3483 112.905C86.3483 112.931 86.3483 112.952 86.3483 112.972C86.3507 112.989 86.3543 113.007 86.359 113.024C86.3616 113.034 86.3663 113.043 86.3727 113.051C86.4056 113.084 86.4457 113.109 86.4898 113.124C86.5558 113.15 86.6234 113.172 86.6922 113.19C86.7734 113.21 86.8557 113.227 86.9387 113.238C87.0178 113.25 87.0976 113.256 87.1775 113.257C87.2286 113.257 87.2796 113.253 87.3297 113.243C87.3645 113.237 87.3968 113.221 87.4225 113.197C87.437 113.178 87.4492 113.157 87.459 113.135C87.4721 113.107 87.4838 113.079 87.494 113.05C87.5031 113.018 87.5138 112.984 87.5244 112.949C87.5343 112.916 87.5425 112.882 87.5488 112.847C87.5672 112.768 87.5738 112.687 87.5685 112.605C87.5616 112.425 87.5159 112.249 87.4347 112.088L87.4666 112.087ZM87.4012 112.826C87.4012 112.849 87.3784 112.864 87.3479 112.873C87.309 112.882 87.2691 112.886 87.2293 112.885C87.1825 112.885 87.1357 112.882 87.0893 112.876L86.9371 112.852C86.8839 112.841 86.8322 112.831 86.785 112.815C86.7378 112.8 86.6892 112.786 86.6481 112.771C86.6121 112.759 86.5774 112.743 86.5446 112.724C86.5237 112.714 86.5055 112.698 86.4914 112.68C86.4879 112.649 86.4879 112.617 86.4914 112.586C86.4914 112.544 86.4914 112.499 86.5035 112.449C86.5157 112.398 86.5203 112.347 86.5309 112.296C86.5416 112.246 86.5507 112.196 86.5598 112.144C86.569 112.093 86.5796 112.064 86.5887 112.035C86.5979 112.006 86.607 111.989 86.6146 111.988C86.6339 111.981 86.6537 111.976 86.6739 111.972C86.7003 111.971 86.7267 111.971 86.753 111.972H86.823C86.9226 111.988 87.0167 112.028 87.0969 112.09C87.1744 112.147 87.2404 112.219 87.2916 112.301C87.3422 112.381 87.3788 112.469 87.3997 112.561C87.4168 112.649 87.4153 112.739 87.3951 112.826H87.4012Z" fill="#383D48"/>
<path d="M91.7433 112.147C91.7286 112.039 91.7026 111.933 91.6658 111.831H91.6551C91.556 111.891 91.4663 111.965 91.3889 112.052C91.4405 112.159 91.4813 112.271 91.5106 112.386C91.5416 112.497 91.5585 112.612 91.5608 112.727V112.756C91.5618 112.768 91.5618 112.78 91.5608 112.792C91.5542 112.814 91.5418 112.833 91.5248 112.848C91.5079 112.863 91.4871 112.873 91.4649 112.876C91.4117 112.892 91.3563 112.901 91.3006 112.9C91.1802 112.9 91.0604 112.883 90.9446 112.85C90.8244 112.815 90.7651 112.756 90.7651 112.672L90.7849 112.042L90.5612 112.056C90.5612 112.15 90.5612 112.289 90.5612 112.476C90.5652 112.583 90.5565 112.69 90.5353 112.796C90.5186 112.829 90.4684 112.853 90.3832 112.869C90.3078 112.882 90.2315 112.889 90.155 112.89C90.0744 112.89 89.9942 112.879 89.9161 112.859C89.8485 112.846 89.7889 112.807 89.7503 112.75C89.7258 112.683 89.7159 112.611 89.7214 112.54C89.7214 112.424 89.7214 112.286 89.7427 112.125V112.042H89.5281C89.5281 112.103 89.5221 112.21 89.5099 112.362C89.5056 112.458 89.4934 112.553 89.4734 112.646C89.4606 112.69 89.4366 112.73 89.4038 112.761C89.3709 112.793 89.3304 112.815 89.2862 112.826C89.1798 112.859 89.0689 112.875 88.9576 112.873H88.7811C88.7166 112.875 88.6521 112.869 88.5894 112.853C88.5502 112.844 88.514 112.824 88.4844 112.797C88.4604 112.774 88.4439 112.744 88.4373 112.712C88.4373 112.678 88.4221 112.642 88.416 112.601C88.4099 112.56 88.416 112.532 88.416 112.467C88.416 112.401 88.416 112.324 88.416 112.234V111.93C88.416 111.819 88.416 111.708 88.416 111.595C88.416 111.483 88.416 111.371 88.416 111.26C88.416 111.149 88.416 111.047 88.416 110.956C88.416 110.865 88.416 110.804 88.416 110.739V110.539C88.416 110.475 88.416 110.418 88.416 110.364C88.416 110.311 88.416 110.264 88.4069 110.223H88.3871C88.3668 110.228 88.347 110.234 88.3277 110.243C88.2928 110.255 88.2587 110.271 88.2258 110.288C88.1913 110.305 88.1578 110.324 88.1254 110.344C88.1012 110.357 88.0791 110.374 88.06 110.393C88.0702 110.429 88.0783 110.465 88.0843 110.501C88.0934 110.547 88.101 110.598 88.1071 110.653C88.1147 110.708 88.1208 110.772 88.1284 110.845C88.136 110.918 88.1406 111.038 88.1482 111.203C88.1558 111.367 88.1589 111.507 88.1589 111.621C88.1589 111.735 88.1589 111.851 88.1589 111.968C88.1589 112.085 88.1589 112.201 88.1589 112.313C88.1589 112.426 88.1589 112.534 88.1665 112.636C88.1741 112.738 88.1665 112.831 88.1665 112.916C88.1654 112.976 88.1834 113.035 88.2178 113.084C88.2523 113.133 88.3014 113.17 88.3582 113.19C88.418 113.214 88.4811 113.228 88.5453 113.234C88.6216 113.241 88.6983 113.245 88.775 113.244H88.8374C88.9522 113.245 89.067 113.239 89.1813 113.228C89.2715 113.219 89.3577 113.187 89.4308 113.133C89.4612 113.106 89.486 113.073 89.5038 113.036C89.526 112.991 89.5453 112.945 89.5616 112.897C89.5652 112.949 89.5728 113 89.5844 113.05C89.5935 113.088 89.6136 113.123 89.6423 113.15C89.7036 113.193 89.7748 113.22 89.8492 113.228C89.9381 113.243 90.0282 113.25 90.1185 113.25C90.2246 113.251 90.3308 113.246 90.4364 113.235C90.5154 113.232 90.5919 113.207 90.657 113.162C90.6655 113.149 90.6721 113.136 90.6768 113.121C90.6833 113.104 90.6879 113.087 90.6905 113.069C90.7164 113.129 90.7879 113.173 90.9066 113.2C91.0152 113.226 91.1265 113.24 91.2382 113.241C91.303 113.242 91.3677 113.237 91.4315 113.226C91.4865 113.217 91.5387 113.195 91.5836 113.162C91.6338 113.115 91.6696 113.054 91.6871 112.987C91.7169 112.897 91.7383 112.803 91.751 112.709C91.7632 112.63 91.7703 112.551 91.7723 112.471C91.7707 112.363 91.761 112.255 91.7433 112.147Z" fill="#383D48"/>
<path d="M104.127 90.2306H95.642C95.2301 90.2306 94.8349 90.3942 94.5436 90.6855C94.2523 90.9769 94.0887 91.372 94.0887 91.784V96.5659C94.0887 97.9511 93.5384 99.2796 92.5589 100.259C91.5793 101.239 90.2508 101.789 88.8656 101.789H64.7859C63.7495 101.789 62.7556 101.377 62.0227 100.645C61.2897 99.912 60.8777 98.9183 60.8773 97.8819V91.7657C60.8773 91.5641 60.8376 91.3645 60.7605 91.1782C60.6833 90.992 60.5703 90.8227 60.4277 90.6802C60.2852 90.5376 60.1159 90.4246 59.9297 90.3474C59.7434 90.2703 59.5438 90.2306 59.3422 90.2306H46.1712C45.8519 90.2311 45.5406 90.3299 45.2795 90.5137C45.0184 90.6974 44.8203 90.9572 44.7121 91.2575L42.8195 96.4898C42.156 98.0699 41.04 99.4186 39.612 100.366C38.184 101.314 36.5077 101.818 34.7939 101.815H32.3992C31.4042 101.815 30.5141 102.542 30.4213 103.534C30.3952 103.799 30.4248 104.067 30.5084 104.319C30.5919 104.572 30.7275 104.805 30.9064 105.002C31.0853 105.199 31.3035 105.357 31.547 105.464C31.7904 105.572 32.0538 105.628 32.3201 105.628H34.7939C39.8481 105.628 44.3789 102.618 46.372 97.8682L47.755 94.0433H57.0616V97.8804C57.0616 99.9286 57.8752 101.893 59.3235 103.341C60.7718 104.79 62.7362 105.603 64.7844 105.603H88.8656C90.0527 105.603 91.2282 105.37 92.3251 104.916C93.4219 104.461 94.4185 103.796 95.258 102.956C96.0975 102.117 96.7634 101.12 97.2177 100.024C97.6721 98.927 97.9059 97.7515 97.9059 96.5643V94.0433H104.179C106.237 94.0433 108.037 95.5952 108.174 97.6491C108.21 98.1782 108.137 98.7091 107.959 99.2087C107.781 99.7084 107.503 100.166 107.141 100.554C106.779 100.942 106.342 101.251 105.855 101.463C105.369 101.674 104.845 101.784 104.314 101.784H99.2296C98.2346 101.784 97.3445 102.512 97.2517 103.502C97.2253 103.767 97.2548 104.035 97.3383 104.288C97.4217 104.541 97.5573 104.774 97.7362 104.971C97.9151 105.168 98.1334 105.326 98.377 105.434C98.6206 105.542 98.884 105.597 99.1505 105.597H104.316C105.349 105.596 106.372 105.387 107.323 104.982C108.274 104.577 109.133 103.984 109.85 103.239C110.567 102.495 111.126 101.613 111.495 100.647C111.863 99.6817 112.033 98.6516 111.994 97.6187C111.836 93.4606 108.288 90.2306 104.127 90.2306Z" fill="#383D48"/>
<path d="M54.6927 101.821H47.2149C46.2183 101.821 45.3298 102.548 45.237 103.54C45.2109 103.805 45.2405 104.073 45.3241 104.325C45.4076 104.578 45.5432 104.811 45.7221 105.008C45.901 105.205 46.1192 105.363 46.3627 105.471C46.6061 105.578 46.8695 105.634 47.1358 105.634H54.6121C55.6086 105.634 56.4987 104.906 56.5899 103.916C56.6161 103.651 56.5864 103.384 56.503 103.131C56.4195 102.878 56.2841 102.645 56.1054 102.448C55.9267 102.251 55.7087 102.093 55.4654 101.985C55.2221 101.877 54.9589 101.821 54.6927 101.821Z" fill="#383D48"/>
<path d="M72.8829 97.3433C73.8749 97.249 74.6037 96.3589 74.6037 95.3654V94.0433H81.3877C82.3843 94.0433 83.2728 93.3161 83.3656 92.3241C83.3917 92.0591 83.3621 91.7916 83.2785 91.5388C83.195 91.2859 83.0594 91.0534 82.8805 90.8562C82.7017 90.659 82.4834 90.5014 82.24 90.3937C81.9965 90.2859 81.7331 90.2303 81.4669 90.2306H72.6958C72.4245 90.218 72.1537 90.2661 71.9034 90.3715C71.653 90.4768 71.4293 90.6367 71.2485 90.8395C71.0678 91.0422 70.9346 91.2828 70.8586 91.5435C70.7826 91.8043 70.7657 92.0788 70.8092 92.3469C70.7983 92.4164 70.7912 92.4865 70.7879 92.5569V95.4476C70.7883 95.7137 70.8444 95.9767 70.9525 96.2199C71.0606 96.463 71.2184 96.6808 71.4157 96.8593C71.613 97.0379 71.8455 97.1731 72.0981 97.2565C72.3508 97.3398 72.6181 97.3694 72.8829 97.3433Z" fill="#383D48"/>
<path d="M103.255 84.5221C103.255 84.252 103.184 83.9867 103.047 83.7535C102.911 83.5204 102.715 83.3277 102.48 83.1953C102.244 83.0629 101.978 82.9956 101.708 83.0002C101.438 83.0049 101.174 83.0814 100.943 83.2218C100.712 83.3622 100.523 83.5616 100.395 83.7993C100.267 84.0371 100.204 84.3046 100.213 84.5746C100.223 84.8445 100.304 85.1071 100.448 85.3353C100.593 85.5635 100.796 85.7492 101.036 85.8732L100.161 86.3904L100.526 87.0081L102.514 85.8306C102.741 85.6953 102.928 85.5036 103.058 85.2743C103.188 85.0449 103.256 84.7857 103.255 84.5221ZM101.734 85.3315C101.574 85.3324 101.417 85.2857 101.283 85.1973C101.149 85.1089 101.045 84.9828 100.983 84.835C100.921 84.6872 100.904 84.5243 100.935 84.367C100.966 84.2097 101.042 84.0651 101.155 83.9514C101.268 83.8377 101.413 83.7602 101.57 83.7286C101.727 83.697 101.89 83.7128 102.038 83.7739C102.186 83.835 102.313 83.9388 102.402 84.072C102.491 84.2052 102.539 84.3618 102.539 84.5221C102.539 84.6287 102.518 84.7344 102.478 84.833C102.438 84.9317 102.378 85.0213 102.303 85.097C102.228 85.1726 102.138 85.2326 102.04 85.2736C101.941 85.3147 101.836 85.3359 101.729 85.3361L101.734 85.3315Z" fill="#383D48"/>
</svg>
