<svg width="327" height="86" viewBox="0 0 327 86" fill="none" xmlns="http://www.w3.org/2000/svg">
<g clip-path="url(#clip0_927_18943)">
<path d="M125.276 77.1522L125.456 77.3366C125.52 77.3967 125.585 77.4653 125.653 77.5339C125.72 77.5085 125.78 77.469 125.829 77.4181C125.906 77.3495 125.984 77.2766 126.061 77.1994C126.132 77.1265 126.197 77.0491 126.258 76.9678C126.302 76.9228 126.336 76.8686 126.357 76.8091L125.632 76.0071C125.576 76.0411 125.524 76.0814 125.478 76.1272C125.415 76.1815 125.346 76.2458 125.272 76.3202C125.199 76.3931 125.13 76.466 125.062 76.5432C125.002 76.6116 124.946 76.6832 124.894 76.7576C124.972 76.8305 125.04 76.8949 125.096 76.9592L125.276 77.1522Z" fill="url(#paint0_linear_927_18943)"/>
<path d="M140.763 76.4403C140.703 76.5036 140.65 76.5725 140.604 76.6461L140.802 76.8563L140.982 77.045L141.162 77.2294C141.218 77.2937 141.286 77.3581 141.363 77.431C141.425 77.4025 141.482 77.3633 141.531 77.3152C141.611 77.2468 141.687 77.1738 141.758 77.0964C141.835 77.0192 141.904 76.9378 141.964 76.8648C142.024 76.7919 142.058 76.7362 142.058 76.7019L141.329 75.9041L141.179 76.0199C141.115 76.0757 141.042 76.14 140.969 76.2129C140.896 76.2859 140.827 76.3631 140.763 76.4403Z" fill="url(#paint1_linear_927_18943)"/>
<path d="M143.323 78.3188H143.276C142.997 78.488 142.744 78.6976 142.526 78.9407C142.671 79.2429 142.786 79.559 142.869 79.8842C142.956 80.1972 143.004 80.52 143.01 80.8449V80.9478C143.013 80.9821 143.013 81.0165 143.01 81.0508C142.992 81.1114 142.957 81.1657 142.909 81.2074C142.861 81.2491 142.803 81.2766 142.74 81.2866C142.59 81.3325 142.434 81.3556 142.277 81.3553C141.937 81.354 141.6 81.3064 141.273 81.2137C140.934 81.1151 140.763 80.9478 140.763 80.7119L140.823 78.9364L140.193 78.975C140.193 79.2409 140.193 79.6312 140.193 80.1587C140.204 80.4607 140.179 80.763 140.12 81.0593C140.072 81.1537 139.927 81.2223 139.691 81.2652C139.478 81.3024 139.263 81.3225 139.047 81.3252C138.82 81.3245 138.594 81.2956 138.374 81.2395C138.28 81.2216 138.19 81.1851 138.109 81.1321C138.029 81.0791 137.96 81.0106 137.907 80.9307C137.835 80.742 137.808 80.5397 137.825 80.3388C137.825 80.0129 137.847 79.6226 137.881 79.168V78.9364H137.276C137.276 79.1079 137.259 79.4081 137.225 79.837C137.213 80.1068 137.178 80.375 137.122 80.639C137.086 80.7622 137.018 80.8737 136.926 80.9625C136.833 81.0513 136.719 81.1143 136.594 81.1451C136.294 81.2376 135.982 81.2825 135.668 81.2781H135.02C134.877 81.2797 134.734 81.2711 134.591 81.2523C134.484 81.2362 134.381 81.1998 134.287 81.1451C134.2 81.0896 134.123 81.02 134.06 80.9392C133.983 80.834 133.915 80.7237 133.854 80.609C133.708 80.3302 133.571 80.0386 133.425 79.7512C133.303 79.4553 133.16 79.1686 132.996 78.8935C132.9 78.7404 132.789 78.5968 132.666 78.4646C132.546 78.3369 132.412 78.2233 132.267 78.1258C132.121 78.0266 131.962 77.9486 131.795 77.8942C131.625 77.8387 131.447 77.8111 131.268 77.8127C131.176 77.8121 131.084 77.8193 130.993 77.8341C130.894 77.8494 130.797 77.8724 130.701 77.9027C130.614 77.9305 130.532 77.971 130.457 78.0228C130.386 78.07 130.331 78.1372 130.298 78.2158C130.246 78.3423 130.204 78.4728 130.174 78.6061C130.131 78.7648 130.092 78.9364 130.054 79.1165C130.015 79.2966 129.981 79.4896 129.942 79.674C129.904 79.8585 129.865 80.0429 129.826 80.2144C129.791 80.3595 129.748 80.5027 129.698 80.6433C129.669 80.7438 129.623 80.8383 129.561 80.9221C129.504 80.9746 129.439 81.0168 129.368 81.0465C129.269 81.0922 129.168 81.1295 129.063 81.158C128.93 81.1906 128.796 81.2164 128.66 81.2352C128.503 81.2527 128.346 81.2613 128.188 81.2609H127.729C127.631 81.2609 127.506 81.2609 127.352 81.2609C127.198 81.257 127.044 81.2398 126.893 81.2094C126.761 81.1849 126.633 81.1446 126.511 81.0894C126.414 81.0472 126.337 80.9709 126.292 80.8749C126.245 80.736 126.213 80.5921 126.198 80.446C126.198 80.2616 126.16 80.0729 126.147 79.867C126.134 79.6612 126.147 79.4682 126.147 79.2666C126.147 79.065 126.147 78.902 126.147 78.7691L125.495 78.8377L125.542 80.5275V80.639C125.532 80.7353 125.497 80.8271 125.439 80.9049C125.363 80.9971 125.261 81.0655 125.147 81.1022C124.981 81.1611 124.808 81.2014 124.633 81.2223C124.311 81.2533 123.987 81.2662 123.663 81.2609H123.402C123.175 81.2633 122.949 81.2519 122.724 81.2266C122.579 81.2114 122.443 81.1515 122.334 81.0551C122.227 80.9465 122.152 80.8097 122.119 80.6605C122.072 80.4846 122.021 80.253 121.965 79.9614C121.965 79.9014 121.939 79.7984 121.918 79.6526C121.896 79.5068 121.875 79.3352 121.854 79.1465C121.832 78.9578 121.806 78.7605 121.781 78.5546C121.755 78.3488 121.725 78.1258 121.695 77.8341C121.665 77.5425 121.643 77.3538 121.626 77.208C121.621 77.108 121.621 77.0077 121.626 76.9077H121.592L120.841 77.4095C120.901 77.7012 120.962 78.0185 121.026 78.3574C121.09 78.6962 121.146 78.9878 121.197 79.2151C121.249 79.4424 121.292 79.6783 121.339 79.9014C121.386 80.1244 121.42 80.3302 121.446 80.5618C121.452 80.618 121.46 80.6738 121.472 80.7291C121.476 80.7891 121.476 80.8493 121.472 80.9092C121.472 80.9478 121.399 80.9907 121.27 81.0336C121.117 81.0887 120.959 81.1317 120.799 81.1623C120.61 81.1966 120.391 81.2309 120.142 81.2523C119.913 81.2769 119.683 81.2897 119.452 81.2909C119.26 81.2932 119.069 81.276 118.881 81.2395C118.754 81.2256 118.635 81.1732 118.538 81.0894C118.498 81.0269 118.466 80.9591 118.444 80.8878C118.42 80.7936 118.404 80.6974 118.397 80.6004C118.388 80.4805 118.388 80.3601 118.397 80.2402C118.397 80.1115 118.397 79.9743 118.427 79.837H118.045L118.007 79.8628C117.96 80.26 117.934 80.6594 117.929 81.0593C117.915 81.3212 117.958 81.583 118.054 81.827C118.094 81.9198 118.153 82.0034 118.227 82.0727C118.3 82.142 118.387 82.1956 118.483 82.2302C118.738 82.3212 119.009 82.3619 119.28 82.3503C119.43 82.3503 119.632 82.3503 119.881 82.3203C120.121 82.3037 120.36 82.2737 120.597 82.2302C120.816 82.1942 121.032 82.144 121.245 82.0801C121.408 82.0412 121.562 81.9681 121.695 81.8656C121.723 81.8346 121.741 81.7957 121.746 81.7541C121.765 81.6925 121.777 81.6293 121.785 81.5654C121.785 81.4968 121.806 81.4239 121.815 81.351C121.824 81.2781 121.815 81.2223 121.815 81.1794C121.888 81.4196 121.948 81.6083 122.004 81.7627C122.052 81.8954 122.131 82.0146 122.235 82.1101C122.348 82.2001 122.483 82.2579 122.626 82.2774C122.839 82.3065 123.054 82.3194 123.269 82.316H124.157C124.337 82.3155 124.518 82.304 124.697 82.2817C124.864 82.2601 125.029 82.2242 125.19 82.1744C125.335 82.1337 125.47 82.0652 125.589 81.9729C125.68 81.9026 125.751 81.8093 125.795 81.7027L125.911 81.3939C125.916 81.4472 125.925 81.5002 125.937 81.5526C125.945 81.612 125.958 81.6708 125.975 81.7284C125.975 81.7842 126.009 81.8356 126.027 81.8785C126.046 81.9222 126.072 81.9626 126.104 81.9986C126.191 82.0755 126.293 82.1326 126.404 82.1659C126.544 82.2117 126.687 82.2461 126.833 82.2688C126.996 82.2923 127.161 82.3066 127.326 82.3117H128.205C128.347 82.3117 128.493 82.3117 128.634 82.3117C128.771 82.3034 128.908 82.2833 129.042 82.2516C129.164 82.2261 129.283 82.1887 129.398 82.1401C129.497 82.0985 129.587 82.0356 129.659 81.9557C129.742 81.8634 129.809 81.7575 129.856 81.6426C129.908 81.5182 129.955 81.3853 129.998 81.248C129.998 81.3596 129.998 81.4711 130.019 81.574C130.022 81.6428 130.039 81.7101 130.071 81.7713C130.116 81.8424 130.18 81.9001 130.255 81.9386C130.362 82.003 130.474 82.0575 130.59 82.1015C130.723 82.1573 130.869 82.2087 131.019 82.2602C131.182 82.3127 131.348 82.3556 131.516 82.3889C131.684 82.4232 131.851 82.4532 132.014 82.4747C132.156 82.4936 132.299 82.5037 132.443 82.5047C132.555 82.5069 132.667 82.4969 132.777 82.4747C132.856 82.4595 132.929 82.4256 132.992 82.376C133.041 82.3181 133.082 82.253 133.112 82.183C133.155 82.093 133.197 81.99 133.245 81.8742C133.294 81.7522 133.337 81.6276 133.373 81.5011C133.413 81.3667 133.448 81.2423 133.476 81.128C133.535 81.2971 133.605 81.4619 133.686 81.6212C133.74 81.7385 133.805 81.8505 133.879 81.9557C133.928 82.028 133.993 82.0881 134.068 82.1315C134.153 82.1805 134.244 82.218 134.338 82.2431C134.445 82.2739 134.554 82.2955 134.664 82.3074C134.784 82.3233 134.904 82.3305 135.025 82.3288H135.342C135.666 82.3301 135.989 82.3144 136.311 82.2817C136.565 82.2585 136.809 82.1666 137.015 82.0158C137.1 81.9384 137.17 81.8452 137.22 81.7413C137.283 81.6148 137.337 81.4844 137.383 81.351C137.393 81.4954 137.415 81.6388 137.448 81.7799C137.472 81.8888 137.528 81.9876 137.611 82.0629C137.784 82.1836 137.984 82.2589 138.194 82.2817C138.443 82.3238 138.696 82.3453 138.949 82.346C139.25 82.3473 139.55 82.333 139.849 82.3031C140.071 82.295 140.285 82.2235 140.467 82.0972C140.494 82.0629 140.515 82.0236 140.527 81.9814C140.545 81.9344 140.558 81.8855 140.566 81.8356C140.634 82.0029 140.84 82.1273 141.175 82.2045C141.481 82.2779 141.795 82.3167 142.11 82.3203C142.292 82.3225 142.474 82.3082 142.654 82.2774C142.81 82.2524 142.957 82.1906 143.083 82.0972C143.225 81.9633 143.326 81.7924 143.375 81.604C143.455 81.3474 143.515 81.085 143.555 80.8192C143.589 80.5977 143.609 80.3742 143.615 80.1501C143.614 79.8271 143.589 79.5046 143.542 79.1851C143.499 78.8896 143.426 78.5993 143.323 78.3188ZM132.983 80.8921L132.957 81.0636C132.952 81.1159 132.942 81.1676 132.927 81.218C132.917 81.2581 132.903 81.2969 132.884 81.3338C132.844 81.3787 132.79 81.4077 132.73 81.4153C132.634 81.4375 132.536 81.4476 132.438 81.4453C132.237 81.444 132.036 81.4253 131.838 81.3896C131.618 81.3523 131.4 81.3008 131.186 81.2352C130.995 81.1792 130.811 81.1015 130.637 81.0036C130.511 80.9448 130.408 80.8451 130.345 80.7205C130.345 80.6691 130.345 80.5919 130.345 80.4803C130.345 80.3688 130.371 80.2487 130.388 80.1115C130.405 79.9743 130.431 79.8284 130.457 79.6826L130.538 79.2795C130.56 79.1775 130.589 79.0772 130.624 78.9792C130.654 78.8978 130.68 78.8506 130.71 78.842C130.83 78.8095 130.954 78.7936 131.079 78.7948C131.282 78.7938 131.484 78.8301 131.675 78.902C131.854 78.9685 132.023 79.0594 132.177 79.1722C132.31 79.2759 132.428 79.3971 132.528 79.5325C132.632 79.6651 132.719 79.809 132.79 79.9614C132.854 80.0989 132.902 80.2426 132.936 80.3903C132.967 80.5121 132.982 80.6376 132.979 80.7634C132.984 80.8132 132.986 80.8634 132.983 80.9135V80.8921Z" fill="url(#paint2_linear_927_18943)"/>
<path d="M139.922 75.3723C139.978 75.4409 140.038 75.501 140.098 75.5653L140.304 75.7626C140.367 75.7335 140.425 75.6944 140.476 75.6468C140.548 75.5782 140.626 75.5053 140.699 75.4281C140.772 75.3509 140.844 75.2737 140.904 75.2008C140.953 75.1567 140.986 75.098 140.999 75.0335L140.274 74.2358C140.218 74.2641 140.166 74.3002 140.12 74.343C140.055 74.403 139.982 74.4674 139.909 74.5403C139.837 74.6132 139.764 74.6947 139.699 74.7719C139.635 74.8491 139.579 74.9177 139.536 74.9778L139.742 75.1836L139.922 75.3723Z" fill="url(#paint3_linear_927_18943)"/>
<path d="M139.159 77.0621L139.339 77.2466C139.399 77.3109 139.468 77.3752 139.536 77.4438C139.602 77.4188 139.662 77.3809 139.712 77.3323C139.793 77.2651 139.869 77.192 139.939 77.1136C140.017 77.0321 140.081 76.9549 140.145 76.882C140.185 76.8357 140.216 76.7836 140.24 76.7276L139.511 75.917C139.458 75.9538 139.408 75.9939 139.36 76.0371C139.298 76.0914 139.229 76.1558 139.155 76.2301C139.082 76.303 139.009 76.3802 138.944 76.4574C138.884 76.525 138.828 76.5966 138.777 76.6718C138.854 76.7405 138.919 76.8091 138.979 76.8734L139.159 77.0621Z" fill="url(#paint4_linear_927_18943)"/>
<path d="M156.885 79.0779C156.774 78.9204 156.638 78.7827 156.481 78.6704C156.3 78.5397 156.104 78.4304 155.898 78.3445C155.675 78.2501 155.444 78.1644 155.203 78.0829C154.963 78.0014 154.611 77.9113 154.298 77.8427C153.985 77.7741 153.685 77.7097 153.398 77.6583C153.11 77.6068 152.84 77.5639 152.587 77.5253L151.94 77.4224C151.94 77.4996 151.888 77.6154 151.845 77.7612C151.802 77.907 151.751 78.07 151.699 78.2501C151.648 78.4303 151.588 78.6233 151.528 78.8334C151.468 79.0436 151.416 79.2623 151.365 79.4639C151.313 79.6655 151.266 79.8928 151.228 80.0772C151.189 80.2616 151.168 80.4632 151.15 80.6305C151.136 80.773 151.136 80.9167 151.15 81.0593C151.153 81.1514 151.188 81.2396 151.249 81.3081H149.182C149.153 80.7527 149.046 80.2041 148.865 79.6783C148.715 79.2304 148.459 78.8255 148.118 78.4989C147.8 78.2121 147.384 78.0585 146.956 78.07C146.727 78.0622 146.501 78.1155 146.3 78.2244C146.111 78.3384 145.961 78.5075 145.871 78.7091C145.731 79.0928 145.636 79.4915 145.588 79.8971C145.582 79.9734 145.572 80.0492 145.558 80.1244C145.536 80.2959 145.519 80.4246 145.515 80.5104C145.493 80.7571 145.485 81.0047 145.489 81.2523C145.484 81.4289 145.496 81.6055 145.524 81.7799C145.56 81.9026 145.631 82.0124 145.727 82.0967C145.823 82.1809 145.942 82.2361 146.068 82.2559C146.447 82.3499 146.836 82.3932 147.226 82.3846H147.496C147.824 82.3975 148.152 82.3889 148.479 82.3589C148.392 82.7576 148.216 83.1315 147.964 83.4525C147.691 83.8391 147.356 84.1781 146.973 84.4561C146.687 84.6799 146.349 84.8275 145.991 84.885C145.733 84.8913 145.476 84.8446 145.236 84.7477C144.969 84.6579 144.711 84.5445 144.464 84.4089L144.224 84.9193C144.44 85.0838 144.671 85.2274 144.915 85.3482C145.206 85.5009 145.506 85.6342 145.815 85.7471C146.026 85.8367 146.255 85.8791 146.484 85.8714C146.68 85.8276 146.865 85.7492 147.033 85.6398C147.248 85.518 147.449 85.3742 147.634 85.2109C148.476 84.4788 149.014 83.4586 149.143 82.3503H150.636C150.82 82.3503 151.022 82.3503 151.249 82.3288C151.476 82.3074 151.704 82.2988 151.94 82.2731C152.175 82.2474 152.407 82.2216 152.634 82.183C152.862 82.1444 153.063 82.1101 153.252 82.0672C153.617 82.1401 153.985 82.1959 154.346 82.2431C154.711 82.2874 155.079 82.3103 155.448 82.3117C155.585 82.3117 155.718 82.3117 155.855 82.3117C155.985 82.3047 156.113 82.2904 156.241 82.2688C156.345 82.2541 156.447 82.2297 156.546 82.1959C156.617 82.1734 156.68 82.13 156.726 82.0715C156.791 81.9592 156.839 81.8378 156.867 81.7112C156.91 81.5354 156.949 81.3381 156.983 81.1065C157.018 80.8605 157.041 80.6129 157.052 80.3645C157.067 80.1046 157.067 79.8439 157.052 79.584C157.047 79.4025 156.989 79.2264 156.885 79.0779ZM147.419 81.3767C147.121 81.3825 146.823 81.3537 146.531 81.2909C146.304 81.2352 146.167 81.1666 146.128 81.0851C146.079 80.9641 146.059 80.8335 146.068 80.7034C146.071 80.3842 146.1 80.0658 146.154 79.7512C146.171 79.5235 146.241 79.303 146.36 79.1079C146.657 79.0107 146.977 79.0107 147.273 79.1079C147.519 79.2037 147.73 79.3692 147.882 79.584C148.07 79.8315 148.215 80.1083 148.311 80.4031C148.418 80.7051 148.485 81.0192 148.513 81.3381C148.393 81.3467 148.028 81.3767 147.419 81.3767ZM154.153 80.3045C154.143 80.357 154.136 80.41 154.131 80.4632C154.106 80.5307 154.066 80.5921 154.015 80.6433C153.939 80.7281 153.853 80.803 153.758 80.8663C153.639 80.9484 153.513 81.0188 153.381 81.0765C153.229 81.1417 153.071 81.1906 152.909 81.2223C152.735 81.1924 152.564 81.1538 152.394 81.1065C152.256 81.0672 152.128 81.0001 152.017 80.9092C151.915 80.8235 151.841 80.7103 151.802 80.5833C151.757 80.4187 151.744 80.2468 151.764 80.0772C151.785 79.9014 151.815 79.7212 151.854 79.5325C151.892 79.3438 151.94 79.1722 151.987 79.0136C152.023 78.8793 152.067 78.7475 152.12 78.619C152.141 78.5569 152.169 78.4978 152.205 78.4431C152.533 78.437 152.858 78.4908 153.166 78.6018C153.386 78.6821 153.586 78.8078 153.754 78.9707C153.888 79.1074 153.992 79.2712 154.058 79.451C154.11 79.6083 154.145 79.7708 154.161 79.9357C154.172 80.0514 154.169 80.168 154.153 80.2831V80.3045ZM156.533 80.7334C156.526 80.8427 156.513 80.9515 156.494 81.0593C156.494 81.1537 156.464 81.2094 156.447 81.218C156.393 81.2502 156.333 81.272 156.271 81.2824L155.993 81.3295C155.881 81.3295 155.761 81.3381 155.632 81.3553C155.504 81.3553 155.371 81.3553 155.238 81.3553C155.105 81.3553 154.899 81.3553 154.749 81.3553C154.599 81.3553 154.457 81.3553 154.341 81.3167C154.384 81.248 154.423 81.1666 154.47 81.0765C154.511 80.993 154.542 80.9052 154.564 80.8149C154.601 80.6826 154.628 80.5479 154.646 80.4117C154.669 80.2541 154.68 80.095 154.68 79.9357C154.68 79.7666 154.671 79.5977 154.654 79.4296C154.637 79.2589 154.607 79.0897 154.564 78.9235C154.94 79.0199 155.308 79.1475 155.662 79.3052C155.867 79.3947 156.059 79.5116 156.233 79.6526C156.327 79.7265 156.405 79.8202 156.46 79.9271C156.484 79.982 156.501 80.0396 156.511 80.0986C156.535 80.1881 156.545 80.2806 156.541 80.3731C156.541 80.4546 156.541 80.5747 156.541 80.6991L156.533 80.7334Z" fill="url(#paint5_linear_927_18943)"/>
<path d="M169.721 77.1522L170.103 77.5339C170.168 77.5081 170.226 77.4686 170.274 77.4181C170.356 77.3495 170.429 77.2766 170.506 77.1994C170.578 77.1265 170.645 77.0492 170.707 76.9678C170.752 76.9228 170.785 76.8686 170.806 76.8091L170.077 76.0071C170.022 76.0421 169.97 76.0823 169.923 76.1272C169.86 76.1815 169.791 76.2458 169.717 76.3202C169.648 76.3931 169.575 76.466 169.511 76.5432C169.451 76.6116 169.395 76.6832 169.344 76.7576L169.545 76.9592L169.721 77.1522Z" fill="url(#paint6_linear_927_18943)"/>
<path d="M174.632 84.0401L174.422 84.2331C174.347 84.3062 174.277 84.3835 174.211 84.4647L174.053 84.6748L174.259 84.8764L174.434 85.0651C174.49 85.1252 174.55 85.1895 174.615 85.2495L174.812 85.4554C174.877 85.4296 174.935 85.3901 174.983 85.3396C175.061 85.271 175.138 85.1981 175.215 85.1209C175.287 85.048 175.354 84.9707 175.417 84.8893C175.459 84.8428 175.492 84.789 175.515 84.7306L174.786 83.9286C174.729 83.9572 174.677 83.9949 174.632 84.0401Z" fill="url(#paint7_linear_927_18943)"/>
<path d="M175.614 78.6876C175.575 78.5075 175.524 78.3299 175.464 78.1558H175.412C175.345 78.1913 175.281 78.2315 175.219 78.2759C175.133 78.3359 175.048 78.4003 174.966 78.4689C174.885 78.5375 174.808 78.5975 174.743 78.6533C174.7 78.6854 174.662 78.7246 174.632 78.7691C174.71 78.9304 174.777 79.0965 174.833 79.2666C174.898 79.4596 174.953 79.6526 175.001 79.8585C175.05 80.0515 175.086 80.2478 175.108 80.446C175.125 80.6143 175.125 80.7838 175.108 80.9521C175.093 80.9865 175.072 81.0173 175.044 81.0424C175.017 81.0676 174.984 81.0866 174.949 81.0979C174.844 81.1455 174.733 81.1801 174.619 81.2009C174.484 81.2266 174.33 81.2481 174.156 81.2652C173.984 81.2652 173.817 81.2952 173.658 81.2995C173.499 81.3038 173.306 81.2995 173.075 81.2995H172.217C172.118 81.2995 171.994 81.2995 171.835 81.2995C171.683 81.2956 171.531 81.2784 171.381 81.248C171.248 81.2234 171.118 81.1831 170.995 81.128C170.898 81.0858 170.82 81.0095 170.776 80.9135C170.73 80.7743 170.7 80.6305 170.686 80.4846C170.66 80.3002 170.643 80.1115 170.635 79.9056C170.626 79.6998 170.635 79.5068 170.613 79.3052C170.592 79.1036 170.613 78.9406 170.613 78.8077L169.957 78.8763L170.008 80.5661V80.6776C169.995 80.7737 169.958 80.865 169.901 80.9435C169.826 81.0357 169.727 81.1042 169.614 81.1408C169.446 81.2001 169.272 81.2404 169.095 81.2609C168.773 81.2921 168.449 81.3049 168.126 81.2995H165.424C165.391 81.3704 165.368 81.4454 165.355 81.5225C165.334 81.6126 165.316 81.6984 165.295 81.7884C165.274 81.8785 165.261 81.9643 165.252 82.0458C165.244 82.1127 165.244 82.1804 165.252 82.2474L165.308 82.3203C165.604 82.3203 165.857 82.3589 166.067 82.3889C166.245 82.4092 166.421 82.4422 166.594 82.4875C166.707 82.514 166.815 82.5559 166.916 82.6119C166.977 82.6439 167.028 82.6931 167.062 82.7534C167.084 82.7973 167.094 82.846 167.092 82.895C167.096 82.975 167.096 83.0551 167.092 83.1351C167.092 83.2209 167.083 83.2981 167.066 83.3667C167.063 83.4165 167.053 83.4657 167.036 83.5126C166.979 83.5962 166.901 83.6629 166.809 83.7056C166.661 83.7895 166.506 83.8598 166.346 83.9157C166.138 83.9948 165.926 84.0621 165.711 84.1173C165.471 84.1816 165.218 84.2417 164.952 84.2888C164.686 84.336 164.407 84.3746 164.12 84.4046C163.835 84.4354 163.549 84.4512 163.262 84.4518C162.879 84.4614 162.496 84.437 162.117 84.3789C161.864 84.3392 161.616 84.2761 161.375 84.1902C161.222 84.1378 161.078 84.0642 160.946 83.9715C160.875 83.9237 160.818 83.8588 160.779 83.7828C160.738 83.6583 160.719 83.5277 160.723 83.3968C160.723 83.2166 160.723 83.0151 160.723 82.7835C160.723 82.5519 160.723 82.3031 160.766 82.0415C160.809 81.7799 160.813 81.5182 160.843 81.2652C160.873 81.0122 160.903 80.7763 160.938 80.5533C160.972 80.3302 160.993 80.1501 161.015 80.0043H160.534L160.47 80.0257C160.441 80.1887 160.411 80.3946 160.38 80.6433C160.346 80.8878 160.316 81.158 160.29 81.4496C160.264 81.7413 160.238 82.0415 160.217 82.3546C160.196 82.6677 160.183 82.9679 160.174 83.2638C160.166 83.5597 160.174 83.8256 160.174 84.0744C160.182 84.2803 160.205 84.4853 160.243 84.6877C160.269 84.8384 160.35 84.9742 160.47 85.0694C160.609 85.1817 160.765 85.2701 160.933 85.331C161.126 85.3987 161.324 85.4503 161.525 85.4854C161.74 85.524 161.954 85.5498 162.164 85.5669C162.374 85.5841 162.572 85.5927 162.756 85.6012H163.219C163.408 85.6012 163.648 85.6012 163.893 85.5541C164.137 85.5069 164.416 85.4897 164.695 85.4468C164.973 85.4039 165.252 85.3439 165.552 85.271C165.818 85.2068 166.081 85.1266 166.337 85.0308C166.557 84.9477 166.767 84.8413 166.963 84.7134C167.12 84.6183 167.248 84.4818 167.332 84.3189C167.381 84.2229 167.416 84.1203 167.435 84.0144C167.435 83.9071 167.469 83.787 167.487 83.6584C167.504 83.5297 167.517 83.4139 167.525 83.281C167.534 83.148 167.547 83.0236 167.555 82.9078C167.564 82.792 167.555 82.6805 167.555 82.5905C167.562 82.5234 167.562 82.4559 167.555 82.3889H168.576C168.757 82.3884 168.937 82.377 169.116 82.3546C169.285 82.333 169.451 82.2971 169.614 82.2474C169.757 82.2057 169.891 82.1373 170.008 82.0458C170.102 81.9779 170.174 81.8839 170.214 81.7756C170.263 81.6641 170.301 81.5611 170.33 81.4668C170.33 81.514 170.33 81.5654 170.356 81.6255C170.381 81.6855 170.381 81.7413 170.399 81.8013C170.41 81.8532 170.427 81.9035 170.45 81.9514C170.467 81.9967 170.493 82.0378 170.527 82.0715C170.612 82.1493 170.713 82.2065 170.823 82.2388C170.963 82.2836 171.107 82.318 171.252 82.3417C171.417 82.3652 171.583 82.3796 171.75 82.3846H173.302C173.542 82.3846 173.731 82.3846 173.928 82.3846C174.126 82.3846 174.271 82.3589 174.426 82.3374C174.571 82.32 174.714 82.2914 174.855 82.2516C174.972 82.2227 175.084 82.178 175.189 82.1187C175.275 82.0771 175.342 82.0053 175.378 81.9171C175.438 81.7713 175.502 81.6083 175.567 81.4282C175.629 81.2484 175.675 81.0632 175.704 80.8749C175.741 80.6264 175.761 80.3756 175.764 80.1244C175.767 79.8806 175.753 79.6369 175.721 79.3953C175.7 79.1574 175.664 78.921 175.614 78.6876Z" fill="url(#paint8_linear_927_18943)"/>
<path d="M172.813 84.0572C172.739 84.1183 172.669 84.1842 172.603 84.2545C172.53 84.3274 172.462 84.4046 172.397 84.4818L172.234 84.6877L172.432 84.8893C172.496 84.9579 172.556 85.0179 172.612 85.0823L172.787 85.2667L172.993 85.4726C173.056 85.4434 173.114 85.4043 173.165 85.3568C173.238 85.2881 173.315 85.2152 173.388 85.138C173.461 85.0652 173.53 84.9878 173.594 84.9064C173.641 84.8616 173.677 84.8055 173.697 84.7435L172.963 83.95C172.909 83.9788 172.858 84.0149 172.813 84.0572Z" fill="url(#paint9_linear_927_18943)"/>
<path d="M178.818 76.5603C178.873 76.6247 178.938 76.6847 178.998 76.7448L179.195 76.9463C179.26 76.9172 179.32 76.8765 179.371 76.8262C179.452 76.759 179.528 76.6859 179.598 76.6075C179.67 76.5362 179.738 76.4603 179.8 76.3802C179.844 76.334 179.878 76.2783 179.898 76.2172L179.174 75.4195C179.118 75.4531 179.067 75.4919 179.019 75.5353C178.953 75.5896 178.885 75.654 178.813 75.7283C178.74 75.8012 178.667 75.8784 178.603 75.9556C178.543 76.0232 178.487 76.0948 178.436 76.1701C178.513 76.2387 178.577 76.3073 178.637 76.3716L178.818 76.5603Z" fill="url(#paint10_linear_927_18943)"/>
<path d="M185.971 79.6826C185.973 79.538 185.956 79.3938 185.92 79.2537C185.873 79.1063 185.814 78.9628 185.744 78.8249C185.463 78.3779 185.114 77.9771 184.71 77.6368C184.183 77.1565 183.642 76.6933 183.089 76.2601C183.389 76.1343 183.724 76.0056 184.093 75.8741C184.462 75.7426 184.822 75.6182 185.174 75.501C185.667 75.338 186.134 75.175 186.567 75.0163L186.812 73.9184L186.778 73.8927L185.98 74.1843C185.139 74.4902 184.476 74.7433 183.99 74.9434C183.586 75.0957 183.198 75.2837 182.828 75.5053C182.609 75.6639 182.436 75.8768 182.326 76.1229C182.195 76.367 182.118 76.6359 182.098 76.912C182.534 77.1746 182.955 77.4609 183.359 77.7698C183.833 78.1263 184.28 78.5161 184.698 78.9364C185.015 79.2154 185.253 79.5735 185.388 79.9743C185.409 80.1162 185.419 80.2596 185.418 80.4031C185.427 80.5472 185.414 80.6919 185.379 80.832C185.281 81.0036 185.011 81.1237 184.569 81.1966C184 81.2733 183.427 81.3077 182.853 81.2995H182.073C181.793 81.3135 181.515 81.2575 181.262 81.1365C181.021 80.9794 180.842 80.7427 180.756 80.4675C180.636 80.1715 180.49 79.7512 180.327 79.2108L180.13 78.7605H180.074C179.947 78.8659 179.828 78.9806 179.718 79.1036C179.564 79.2752 179.452 79.3996 179.388 79.481C179.661 79.9686 179.876 80.4869 180.027 81.025C180.068 81.2173 180.095 81.4122 180.109 81.6083C180.109 81.827 180.109 82.0029 180.109 82.1315C180.061 82.4706 179.935 82.7937 179.74 83.0751C179.496 83.4943 179.194 83.8769 178.843 84.2116C178.584 84.4981 178.225 84.6745 177.84 84.7049C177.611 84.6921 177.386 84.6458 177.171 84.5676C176.939 84.5035 176.717 84.4083 176.51 84.2846L176.266 84.7863C176.607 85.0072 176.966 85.2008 177.338 85.3653C177.654 85.538 178.001 85.6486 178.359 85.6913C178.391 85.6955 178.425 85.6955 178.457 85.6913C178.845 85.572 179.195 85.3514 179.469 85.0523C179.802 84.7291 180.081 84.3557 180.297 83.9457C180.427 83.7143 180.523 83.4661 180.585 83.2081C180.636 82.9656 180.661 82.7182 180.657 82.4704V81.9729C180.657 81.7498 180.657 81.5869 180.657 81.4839C180.734 81.7352 180.846 81.9748 180.988 82.1959C181.066 82.2811 181.173 82.3357 181.288 82.3503C181.5 82.386 181.716 82.4018 181.931 82.3975H182.27C183.042 82.3975 183.754 82.3975 184.414 82.3288C184.873 82.3453 185.325 82.2113 185.701 81.9471C185.886 81.7284 185.971 80.9864 185.971 79.6826Z" fill="url(#paint11_linear_927_18943)"/>
<path d="M183.711 74.2572L183.96 74.15C184.246 74.0271 184.666 73.8469 185.221 73.6096L186.199 73.1807L186.366 72.4688C185.937 72.6532 185.602 72.8033 185.302 72.9234C184.796 73.1378 184.389 73.3137 184.084 73.4509C183.78 73.5882 183.479 73.7383 183.184 73.9013C183.13 74.0094 183.084 74.1212 183.046 74.2358C183.003 74.3602 182.965 74.4845 182.926 74.6003C183.18 74.4684 183.442 74.3537 183.711 74.2572Z" fill="url(#paint12_linear_927_18943)"/>
<path d="M189.299 78.1386H189.252C189.102 78.2328 188.97 78.3534 188.862 78.4946C188.741 78.6199 188.631 78.7547 188.532 78.8978C188.815 79.3712 189.055 79.8693 189.248 80.386C189.422 80.8264 189.517 81.2937 189.531 81.767C189.469 82.111 189.321 82.4339 189.102 82.7063C188.827 83.1339 188.492 83.5196 188.107 83.8514C187.818 84.1408 187.434 84.3173 187.026 84.3489C186.788 84.3405 186.553 84.2971 186.327 84.2202C186.11 84.1562 185.901 84.0654 185.705 83.95L185.457 84.4518C185.797 84.6767 186.156 84.8732 186.529 85.0394C186.845 85.2093 187.189 85.3198 187.545 85.3653C187.578 85.3699 187.611 85.3699 187.644 85.3653C188.079 85.2444 188.479 85.0209 188.81 84.7134C189.164 84.4078 189.456 84.0364 189.668 83.6198C189.76 83.4401 189.837 83.2537 189.9 83.0622C189.983 82.8217 190.029 82.5702 190.037 82.316C190.037 82.0329 190.063 81.6855 190.063 81.2695C190.057 80.7301 189.988 80.1932 189.857 79.6698C189.736 79.138 189.549 78.6236 189.299 78.1386Z" fill="url(#paint13_linear_927_18943)"/>
<path d="M197.864 73.4724C196.934 73.8155 196.08 74.15 195.291 74.476C194.775 74.6526 194.29 74.9103 193.854 75.2394C193.69 75.4627 193.566 75.7121 193.485 75.9771C193.386 76.255 193.316 76.5425 193.275 76.8348C194.253 77.5353 195.059 78.1501 195.694 78.679C196.324 79.2066 196.672 79.6269 196.732 79.9442C196.757 80.0743 196.77 80.2064 196.771 80.3388C196.779 80.5042 196.766 80.67 196.732 80.832C196.655 81.0379 196.363 81.1666 195.848 81.2266C195.253 81.2857 194.654 81.3129 194.056 81.3081H193.442C193.262 81.3136 193.082 81.2949 192.906 81.2523C192.794 81.2256 192.691 81.171 192.606 81.0937C192.54 81.0278 192.494 80.9445 192.473 80.8535C192.452 80.7591 192.435 80.6562 192.417 80.5404C192.4 80.4246 192.417 80.3474 192.392 80.163C192.366 79.9785 192.392 79.7598 192.392 79.5068V78.649C192.392 78.3359 192.392 78.0228 192.392 77.7055C192.392 77.3881 192.392 77.075 192.392 76.7619V75.9041C192.392 75.6983 192.392 75.4753 192.392 75.2908C192.392 75.1064 192.392 74.9048 192.392 74.729C192.392 74.5532 192.392 74.3859 192.392 74.2358C192.392 74.0857 192.392 73.9527 192.37 73.8369H192.314C192.257 73.851 192.201 73.8697 192.147 73.8927C192.048 73.9299 191.95 73.9729 191.856 74.0213C191.757 74.0728 191.663 74.1243 191.572 74.18C191.506 74.217 191.446 74.2632 191.392 74.3173C191.414 74.3902 191.435 74.4931 191.461 74.6218C191.487 74.7504 191.508 74.892 191.525 75.0507C191.542 75.2094 191.564 75.3852 191.581 75.5911C191.598 75.7969 191.62 76.1357 191.637 76.5989C191.654 77.0621 191.671 77.4567 191.671 77.7784C191.671 78.1 191.671 78.426 191.671 78.7562C191.671 79.0865 191.671 79.4124 191.671 79.7298C191.671 80.0472 191.671 80.3517 191.671 80.639C191.671 80.9264 191.671 81.188 191.693 81.4282C191.693 81.605 191.749 81.7773 191.851 81.9214C191.949 82.0476 192.079 82.1441 192.229 82.2002C192.399 82.2681 192.578 82.31 192.76 82.3246C192.974 82.3463 193.189 82.3563 193.404 82.3546H194.116C194.579 82.3546 194.974 82.3546 195.299 82.3546C195.678 82.3465 196.056 82.3063 196.427 82.2345C196.701 82.2097 196.958 82.0933 197.157 81.9042C197.272 81.6602 197.33 81.3934 197.328 81.1237C197.358 80.6948 197.375 80.3388 197.375 79.9957C197.375 79.7806 197.36 79.5657 197.332 79.3524C197.274 79.0441 197.124 78.7603 196.903 78.5375C196.635 78.2192 196.34 77.925 196.02 77.6583C195.685 77.3795 195.261 77.0321 194.733 76.6204L194.021 76.0585C194.204 75.8956 195.472 75.3909 197.826 74.5446L198.061 73.4466L198.027 73.4252L197.864 73.4724Z" fill="url(#paint14_linear_927_18943)"/>
<path d="M207.089 76.6075C207.145 76.6719 207.21 76.7319 207.27 76.7962L207.467 76.9935C207.531 76.9647 207.591 76.9256 207.643 76.8777C207.72 76.8091 207.797 76.7362 207.87 76.659C207.943 76.5872 208.011 76.5098 208.072 76.4274C208.116 76.3811 208.15 76.3254 208.17 76.2644L207.441 75.4667C207.388 75.5016 207.338 75.5403 207.291 75.5825L207.085 75.7798C207.011 75.8499 206.941 75.9243 206.875 76.0028C206.815 76.0712 206.76 76.1428 206.708 76.2172C206.785 76.2901 206.849 76.3545 206.909 76.4188L207.089 76.6075Z" fill="url(#paint15_linear_927_18943)"/>
<path d="M208.56 78.6876C208.523 78.507 208.473 78.3292 208.41 78.1558H208.342C208.273 78.1901 208.207 78.2302 208.144 78.2759C208.059 78.3359 207.973 78.4003 207.887 78.4689C207.801 78.5332 207.728 78.5975 207.664 78.6533C207.623 78.6863 207.587 78.7254 207.557 78.7691C207.635 78.9304 207.702 79.0965 207.758 79.2666C207.823 79.4596 207.879 79.6526 207.93 79.8585C207.976 80.052 208.011 80.2482 208.033 80.446C208.052 80.6142 208.052 80.784 208.033 80.9521C208.019 80.9865 207.997 81.0173 207.97 81.0424C207.942 81.0676 207.91 81.0866 207.874 81.0979C207.769 81.1461 207.658 81.1807 207.544 81.2009C207.411 81.2266 207.257 81.2523 207.085 81.2695C206.914 81.2867 206.725 81.2995 206.532 81.3038C206.339 81.3081 206.206 81.3038 206.103 81.3038H205.747C205.513 81.3092 205.279 81.2949 205.048 81.2609C204.912 81.2418 204.783 81.1903 204.671 81.1108C204.582 81.0375 204.522 80.9361 204.499 80.8235C204.469 80.7034 204.439 80.549 204.405 80.3688C204.319 79.7226 204.246 79.0793 204.186 78.4389C204.122 77.7955 204.057 77.1522 203.993 76.4445C203.993 76.4445 203.993 76.4445 203.963 76.4445C203.933 76.4445 203.937 76.4445 203.937 76.4445L203.178 76.8734L203.332 77.7612C203.045 77.8642 202.775 77.9671 202.522 78.0743C202.269 78.1815 202.041 78.2845 201.827 78.3917C201.635 78.4892 201.451 78.6025 201.278 78.7305C201.128 78.8405 200.995 78.972 200.884 79.1208C200.811 79.2236 200.762 79.3405 200.738 79.4639C200.7 79.6353 200.672 79.8085 200.652 79.9828C200.63 80.1715 200.618 80.3688 200.609 80.5747C200.6 80.7806 200.609 80.9779 200.609 81.1623C200.609 81.3467 200.635 81.5054 200.656 81.6469C200.668 81.7492 200.695 81.8491 200.738 81.9428C200.785 82.0072 200.851 82.0552 200.926 82.0801C201.047 82.1247 201.172 82.1563 201.3 82.1744C201.464 82.2018 201.63 82.219 201.797 82.2259C201.981 82.2259 202.166 82.2259 202.355 82.2259C202.543 82.2259 202.672 82.2259 202.831 82.2259C202.989 82.2259 203.131 82.2002 203.26 82.183C203.374 82.1672 203.487 82.1443 203.598 82.1144C203.677 82.0962 203.751 82.0627 203.817 82.0158C203.839 82.0158 203.856 81.9814 203.877 81.9428C203.899 81.8987 203.918 81.8528 203.933 81.8056C203.933 81.7456 203.971 81.6898 203.989 81.6255C204.006 81.5611 204.027 81.5054 204.04 81.4453C204.068 81.5914 204.108 81.7349 204.16 81.8742C204.199 81.9906 204.27 82.0933 204.366 82.1702C204.474 82.253 204.601 82.3089 204.735 82.3331C204.94 82.3677 205.148 82.3835 205.357 82.3803H206.871C207.03 82.3731 207.189 82.3573 207.347 82.3331C207.491 82.3121 207.635 82.282 207.776 82.2431C207.893 82.2141 208.005 82.1694 208.11 82.1101C208.195 82.0663 208.263 81.9954 208.303 81.9085C208.359 81.7627 208.423 81.5997 208.488 81.4196C208.552 81.2404 208.598 81.055 208.625 80.8663C208.662 80.6179 208.682 80.3671 208.685 80.1158C208.69 79.8721 208.677 79.6285 208.646 79.3867C208.646 79.1122 208.608 78.8935 208.56 78.6876ZM203.624 81.0979C203.512 81.1209 203.399 81.1381 203.285 81.1494L202.891 81.1794H202.462C202.299 81.1794 202.144 81.1794 201.999 81.1794C201.865 81.1729 201.732 81.1586 201.6 81.1365C201.496 81.1195 201.394 81.0937 201.295 81.0593C201.233 81.0416 201.18 81.0019 201.145 80.9478C201.126 80.8647 201.116 80.7799 201.115 80.6948C201.109 80.592 201.109 80.4888 201.115 80.386C201.115 80.2788 201.115 80.1801 201.145 80.0901C201.151 80.0241 201.173 79.9607 201.209 79.9056C201.297 79.7643 201.413 79.6418 201.548 79.5454C201.713 79.4193 201.889 79.3101 202.076 79.2194C202.291 79.1109 202.513 79.0164 202.741 78.9364C202.985 78.8506 203.229 78.7691 203.487 78.7005L203.843 81.0336C203.772 81.0603 203.698 81.0818 203.624 81.0979Z" fill="url(#paint16_linear_927_18943)"/>
<path d="M217.215 79.0607C217.101 78.8335 216.957 78.6229 216.786 78.4346C216.619 78.2514 216.424 78.0964 216.207 77.9757C215.982 77.8508 215.731 77.7775 215.474 77.7612H215.345C215.253 77.7558 215.159 77.7558 215.067 77.7612C214.964 77.7729 214.864 77.7959 214.766 77.8298C214.676 77.8599 214.589 77.9017 214.509 77.9542C214.437 77.9996 214.381 78.0653 214.346 78.1429C214.299 78.2707 214.259 78.401 214.226 78.5332C214.187 78.7005 214.149 78.8763 214.11 79.065C214.072 79.2537 214.033 79.4467 213.999 79.6483C213.964 79.8499 213.921 80.0429 213.874 80.223C213.827 80.4031 213.789 80.5618 213.746 80.6991C213.718 80.8077 213.671 80.9108 213.608 81.0036L213.497 81.0808C213.427 81.1257 213.35 81.159 213.27 81.1794C213.129 81.22 212.986 81.2487 212.841 81.2652C212.616 81.2902 212.389 81.3017 212.163 81.2995H212.009C211.828 81.3053 211.648 81.2866 211.473 81.2438C211.361 81.217 211.257 81.1624 211.172 81.0851C211.105 81.0205 211.058 80.9366 211.039 80.8449C211.018 80.7505 211.001 80.6476 210.984 80.5318C210.966 80.416 210.984 80.3388 210.958 80.1544C210.932 79.97 210.958 79.7512 210.958 79.4982V77.714C210.958 77.3967 210.958 77.0836 210.958 76.7705C210.958 76.4574 210.958 76.1701 210.958 75.9127C210.958 75.6554 210.958 75.4838 210.958 75.2994C210.958 75.115 210.958 74.9134 210.958 74.7376C210.958 74.5617 210.958 74.3945 210.958 74.2444C210.958 74.0942 210.958 73.9613 210.936 73.8455H210.881C210.824 73.8596 210.768 73.8783 210.713 73.9013C210.614 73.9377 210.516 73.9807 210.422 74.0299C210.323 74.0814 210.229 74.1329 210.139 74.1886C210.072 74.2256 210.012 74.2718 209.959 74.3258C209.98 74.3988 210.002 74.5017 210.027 74.6304C210.053 74.759 210.074 74.9006 210.092 75.0592C210.109 75.2179 210.13 75.3938 210.147 75.5996C210.164 75.8055 210.186 76.1443 210.203 76.6075C210.22 77.0707 210.233 77.4653 210.237 77.7869C210.242 78.1086 210.237 78.4346 210.237 78.7648C210.237 79.095 210.237 79.421 210.237 79.7384C210.237 80.0557 210.237 80.3603 210.237 80.6476C210.237 80.935 210.237 81.1966 210.259 81.4368C210.256 81.6053 210.307 81.7705 210.403 81.9089C210.499 82.0474 210.636 82.1523 210.795 82.2088C210.964 82.2762 211.141 82.3181 211.322 82.3331C211.538 82.3547 211.754 82.3648 211.97 82.3632H212.292C212.625 82.3707 212.958 82.3258 213.278 82.2302C213.396 82.2004 213.508 82.147 213.605 82.0733C213.702 81.9996 213.784 81.9071 213.844 81.8013C213.887 81.707 213.926 81.6083 213.96 81.5097C213.994 81.411 214.029 81.2952 214.063 81.1666C214.063 81.2309 214.063 81.2952 214.063 81.3681C214.063 81.441 214.063 81.5011 214.063 81.5568C214.07 81.6061 214.08 81.6548 214.093 81.7027C214.1 81.7308 214.114 81.7571 214.132 81.7799C214.224 81.8729 214.337 81.9433 214.462 81.9857C214.648 82.0592 214.838 82.1208 215.032 82.1702C215.261 82.2286 215.493 82.2744 215.727 82.3074C215.95 82.34 216.175 82.3572 216.4 82.3589C216.544 82.3607 216.688 82.3477 216.829 82.3203C216.927 82.3045 217.019 82.2596 217.091 82.1916C217.132 82.137 217.166 82.0781 217.194 82.0158C217.231 81.9374 217.264 81.8573 217.292 81.7756C217.318 81.6855 217.348 81.5912 217.378 81.4925C217.406 81.398 217.429 81.3021 217.447 81.2052C217.499 80.9818 217.518 80.752 217.503 80.5232C217.483 80.0157 217.354 79.5184 217.125 79.065L217.215 79.0607ZM217.031 81.1451C217.031 81.2094 216.967 81.2523 216.881 81.2781C216.771 81.3024 216.659 81.3139 216.546 81.3124C216.414 81.3117 216.283 81.3031 216.152 81.2866L215.723 81.218C215.573 81.188 215.427 81.158 215.294 81.1151C215.161 81.0722 215.024 81.0336 214.908 80.9907C214.806 80.9565 214.709 80.9119 214.616 80.8578C214.557 80.8284 214.506 80.7858 214.466 80.7334C214.456 80.645 214.456 80.5558 214.466 80.4675C214.466 80.3517 214.466 80.223 214.5 80.0815C214.535 79.9399 214.548 79.7941 214.578 79.6526C214.608 79.5111 214.633 79.3695 214.659 79.2237C214.685 79.0779 214.715 78.9964 214.741 78.9149C214.766 78.8334 214.792 78.7862 214.814 78.782C214.868 78.7625 214.924 78.7482 214.981 78.7391C215.055 78.7343 215.13 78.7343 215.204 78.7391H215.401C215.682 78.7835 215.947 78.897 216.173 79.0693C216.392 79.2322 216.578 79.4344 216.722 79.6655C216.865 79.8907 216.968 80.1388 217.027 80.3989C217.075 80.6457 217.071 80.9001 217.014 81.1451H217.031Z" fill="url(#paint17_linear_927_18943)"/>
<path d="M229.271 79.2323C229.23 78.9281 229.156 78.6291 229.052 78.3402H229.022C228.743 78.5094 228.49 78.719 228.272 78.9621C228.418 79.2643 228.532 79.5804 228.615 79.9056C228.702 80.2186 228.75 80.5414 228.757 80.8663V80.9478C228.759 80.9821 228.759 81.0165 228.757 81.0508C228.738 81.1114 228.703 81.1657 228.655 81.2074C228.607 81.2491 228.549 81.2766 228.486 81.2866C228.336 81.3325 228.18 81.3556 228.023 81.3553C227.684 81.354 227.346 81.3064 227.02 81.2137C226.681 81.1151 226.513 80.9478 226.513 80.7119L226.569 78.9364L225.939 78.975C225.939 79.2409 225.939 79.6312 225.939 80.1587C225.95 80.4607 225.926 80.763 225.866 81.0593C225.819 81.1537 225.677 81.2223 225.437 81.2652C225.224 81.3024 225.009 81.3225 224.794 81.3252C224.567 81.3245 224.34 81.2956 224.12 81.2395C223.93 81.2025 223.762 81.0914 223.653 80.9307C223.584 80.7414 223.556 80.5396 223.571 80.3388C223.571 80.0129 223.571 79.6226 223.631 79.168V78.9364H223.027C223.027 79.1079 223.01 79.4081 222.975 79.837C222.963 80.1068 222.929 80.375 222.872 80.639C222.836 80.7622 222.769 80.8737 222.676 80.9625C222.583 81.0513 222.469 81.1143 222.345 81.1451C222.045 81.2376 221.732 81.2825 221.418 81.2781H220.921C220.739 81.2839 220.557 81.2651 220.38 81.2223C220.27 81.1956 220.168 81.141 220.085 81.0636C220.017 80.999 219.97 80.9152 219.952 80.8235C219.952 80.7291 219.909 80.6262 219.892 80.5104C219.874 80.3946 219.892 80.3174 219.892 80.1329C219.892 79.9485 219.892 79.7298 219.892 79.4768V78.619C219.892 78.3059 219.892 77.9928 219.892 77.6754C219.892 77.3581 219.892 77.045 219.892 76.7319C219.892 76.4188 219.892 76.1315 219.892 75.8741C219.892 75.6168 219.892 75.4452 219.892 75.2608V74.699C219.892 74.5188 219.892 74.3559 219.892 74.2058C219.892 74.0556 219.892 73.9227 219.866 73.8069H219.81C219.753 73.821 219.697 73.8397 219.643 73.8626C219.544 73.8991 219.448 73.9421 219.355 73.9913C219.258 74.0389 219.164 74.0919 219.072 74.15C219.004 74.186 218.942 74.2323 218.888 74.2872C218.917 74.3873 218.94 74.489 218.957 74.5918C218.982 74.7204 219.004 74.8634 219.021 75.0206C219.042 75.175 219.059 75.3552 219.081 75.561C219.102 75.7669 219.115 76.1057 219.137 76.5689C219.158 77.0321 219.167 77.4267 219.167 77.7483C219.167 78.07 219.167 78.396 219.167 78.7262C219.167 79.0564 219.167 79.3824 219.167 79.6998C219.167 80.0172 219.167 80.3217 219.188 80.609C219.21 80.8964 219.188 81.158 219.188 81.3982C219.185 81.5674 219.236 81.7332 219.333 81.8719C219.43 82.0106 219.569 82.115 219.729 82.1702C219.897 82.2376 220.075 82.2795 220.256 82.2945C220.471 82.3164 220.687 82.3264 220.904 82.3246H221.08C221.403 82.326 221.727 82.3102 222.049 82.2774C222.303 82.2542 222.546 82.1623 222.752 82.0115C222.838 81.9342 222.908 81.8409 222.958 81.737C223.021 81.6105 223.075 81.4801 223.121 81.3467C223.131 81.4911 223.152 81.6346 223.185 81.7756C223.211 81.8838 223.268 81.9822 223.348 82.0586C223.521 82.1794 223.722 82.2546 223.932 82.2774C224.182 82.3197 224.436 82.3412 224.691 82.3417C224.99 82.3429 225.289 82.3286 225.587 82.2988C225.81 82.2905 226.025 82.2191 226.209 82.0929C226.233 82.0571 226.251 82.0181 226.265 81.9771C226.283 81.9301 226.296 81.8812 226.303 81.8313C226.376 81.9986 226.578 82.123 226.912 82.2002C227.219 82.2736 227.532 82.3125 227.847 82.316C228.03 82.3185 228.212 82.3042 228.392 82.2731C228.547 82.2481 228.694 82.1863 228.821 82.0929C228.962 81.959 229.063 81.7882 229.112 81.5997C229.197 81.3442 229.257 81.0815 229.293 80.8149C229.327 80.5934 229.347 80.3699 229.353 80.1458C229.348 79.8397 229.321 79.5344 229.271 79.2323Z" fill="url(#paint18_linear_927_18943)"/>
<path d="M207.801 20.2692H183.883C182.721 20.2692 181.608 20.7305 180.786 21.5518C179.965 22.373 179.504 23.4868 179.504 24.6481V38.128C179.504 42.0329 177.953 45.7779 175.191 48.5391C172.43 51.3003 168.685 52.8516 164.78 52.8516H96.9013C93.9799 52.8516 91.178 51.6913 89.1119 49.626C87.0458 47.5606 85.8844 44.7592 85.8833 41.8378V24.5966C85.8833 24.0284 85.7714 23.4656 85.5539 22.9406C85.3364 22.4156 85.0177 21.9385 84.6158 21.5367C84.214 21.1348 83.7369 20.8161 83.2119 20.5986C82.6869 20.3811 82.1242 20.2692 81.5559 20.2692H44.4276C43.5277 20.2706 42.65 20.5493 41.9141 21.0673C41.1781 21.5853 40.6197 22.3175 40.3147 23.1642L34.9794 37.9135C33.1091 42.3678 29.9633 46.1696 25.9378 48.8405C21.9123 51.5115 17.1869 52.9324 12.3559 52.9245H5.60532C2.80043 52.9245 0.291479 54.9746 0.0298616 57.7709C-0.0438183 58.5178 0.0397909 59.272 0.275303 59.9846C0.510814 60.6973 0.893005 61.3527 1.39725 61.9087C1.9015 62.4647 2.51662 62.9088 3.20298 63.2126C3.88934 63.5164 4.63172 63.673 5.3823 63.6723H12.3559C26.6033 63.6723 39.3754 55.189 44.9938 41.7992L48.8923 31.0171H75.127V41.8335C75.127 47.6073 77.4206 53.1447 81.5033 57.2274C85.5859 61.3101 91.1232 63.6037 96.897 63.6037H164.78C168.127 63.6043 171.44 62.9456 174.532 61.6654C177.624 60.3852 180.434 58.5084 182.8 56.1423C185.166 53.7762 187.044 50.9671 188.324 47.8755C189.605 44.7838 190.264 41.4701 190.264 38.1237V31.0171H207.947C213.75 31.0171 218.824 35.3917 219.21 41.1816C219.311 42.6732 219.104 44.1696 218.603 45.5781C218.102 46.9866 217.318 48.2773 216.298 49.3701C215.277 50.463 214.044 51.3347 212.673 51.9314C211.302 52.528 209.824 52.8368 208.329 52.8387H193.996C191.191 52.8387 188.682 54.8888 188.42 57.6808C188.346 58.4281 188.429 59.1827 188.664 59.8959C188.899 60.6091 189.282 61.265 189.786 61.8215C190.29 62.3779 190.906 62.8225 191.592 63.1265C192.279 63.4305 193.022 63.5873 193.773 63.5866H208.333C211.247 63.584 214.13 62.9941 216.811 61.8522C219.491 60.7103 221.914 59.0397 223.935 56.9404C225.955 54.841 227.532 52.356 228.57 49.6336C229.609 46.9113 230.088 44.0075 229.979 41.0958C229.533 29.3744 219.531 20.2692 207.801 20.2692Z" fill="url(#paint19_linear_927_18943)"/>
<path d="M68.4493 52.9416H47.3698C44.5606 52.9416 42.0559 54.9917 41.7943 57.788C41.7206 58.535 41.8042 59.2891 42.0398 60.0018C42.2753 60.7145 42.6575 61.3699 43.1617 61.9259C43.666 62.4818 44.2811 62.926 44.9674 63.2298C45.6538 63.5335 46.3962 63.6901 47.1468 63.6895H68.222C71.0312 63.6895 73.5401 61.6394 73.7974 58.8474C73.871 58.1006 73.7875 57.3467 73.5523 56.6341C73.3171 55.9215 72.9354 55.266 72.4316 54.7097C71.9279 54.1535 71.3134 53.7088 70.6275 53.4043C69.9417 53.0998 69.1997 52.9422 68.4493 52.9416Z" fill="url(#paint20_linear_927_18943)"/>
<path d="M119.726 40.3196C122.523 40.0537 124.577 37.5447 124.577 34.7441V31.0171H143.701C146.51 31.0171 149.015 28.967 149.276 26.1707C149.35 25.4237 149.266 24.6696 149.031 23.9569C148.795 23.2442 148.413 22.5888 147.909 22.0328C147.405 21.4769 146.789 21.0327 146.103 20.7289C145.417 20.4252 144.674 20.2686 143.924 20.2692H119.199C118.434 20.2338 117.671 20.3695 116.965 20.6664C116.259 20.9633 115.629 21.414 115.119 21.9856C114.609 22.5572 114.234 23.2352 114.02 23.9704C113.805 24.7055 113.758 25.4792 113.881 26.235C113.85 26.431 113.83 26.6286 113.821 26.8268V34.9757C113.822 35.7257 113.98 36.4672 114.285 37.1526C114.589 37.8379 115.034 38.452 115.59 38.9552C116.146 39.4585 116.802 39.8398 117.514 40.0748C118.226 40.3098 118.98 40.3931 119.726 40.3196Z" fill="url(#paint21_linear_927_18943)"/>
<path d="M205.344 4.17744C205.344 3.41601 205.142 2.66822 204.758 2.0109C204.373 1.35357 203.821 0.810406 203.157 0.437205C202.493 0.0640042 201.742 -0.125778 200.981 -0.112643C200.22 -0.0995083 199.476 0.116069 198.825 0.511942C198.175 0.907815 197.642 1.46971 197.28 2.1399C196.919 2.81009 196.742 3.56442 196.769 4.32538C196.795 5.08634 197.024 5.8265 197.431 6.46983C197.839 7.11315 198.41 7.63644 199.086 7.98594L196.62 9.44414L197.65 11.1854L203.255 7.86585C203.893 7.48466 204.421 6.94429 204.787 6.29771C205.153 5.65112 205.345 4.9205 205.344 4.17744ZM201.055 6.45911C200.603 6.46165 200.161 6.33 199.784 6.08085C199.407 5.83169 199.113 5.47624 198.938 5.05955C198.763 4.64286 198.716 4.18369 198.803 3.74025C198.889 3.2968 199.106 2.88905 199.424 2.56866C199.743 2.24828 200.149 2.02969 200.592 1.9406C201.035 1.85151 201.495 1.89594 201.912 2.06825C202.33 2.24056 202.687 2.53299 202.938 2.90848C203.19 3.28398 203.324 3.72562 203.324 4.17744C203.325 4.47799 203.267 4.77582 203.153 5.05388C203.039 5.33194 202.871 5.58476 202.659 5.79788C202.447 6.01101 202.195 6.18025 201.918 6.29592C201.64 6.41158 201.343 6.47141 201.042 6.47197L201.055 6.45911Z" fill="url(#paint22_linear_927_18943)"/>
<path d="M286.157 79.554C282.745 79.5586 279.365 78.8884 276.213 77.5819C273.06 76.2754 270.197 74.3585 267.788 71.9413L248.008 52.1654C246.802 50.9585 246.125 49.3219 246.125 47.6155C246.125 45.9092 246.804 44.2729 248.01 43.0666C249.217 41.8603 250.854 41.1828 252.56 41.1832C254.267 41.1836 255.903 41.8619 257.109 43.0687L276.885 62.8446C279.346 65.3028 282.683 66.6835 286.162 66.6835C289.64 66.6835 292.977 65.3028 295.438 62.8446L315.347 42.9315C316.553 41.7235 318.19 41.0442 319.897 41.043C321.604 41.0418 323.242 41.7188 324.45 42.9251C325.658 44.1314 326.337 45.7681 326.338 47.4753C326.34 49.1824 325.663 50.8201 324.456 52.0281L304.548 71.9413C302.135 74.3593 299.268 76.2766 296.112 77.5831C292.956 78.8895 289.573 79.5593 286.157 79.554Z" fill="url(#paint23_linear_927_18943)"/>
<path d="M286.235 54.5045C293.298 54.5045 299.024 48.7785 299.024 41.7151C299.024 34.6518 293.298 28.9258 286.235 28.9258C279.171 28.9258 273.445 34.6518 273.445 41.7151C273.445 48.7785 279.171 54.5045 286.235 54.5045Z" fill="url(#paint24_linear_927_18943)"/>
<path d="M265.362 29.4522C264.273 29.4526 263.202 29.1768 262.249 28.6503C261.296 28.1239 260.492 27.3642 259.912 26.4424C259.333 25.5206 258.997 24.4668 258.936 23.3797C258.875 22.2926 259.091 21.2078 259.563 20.2269C261.957 15.2414 265.71 11.0332 270.39 8.0865C275.07 5.1398 280.487 3.57435 286.017 3.57032C291.548 3.56629 296.967 5.12383 301.651 8.06371C306.335 11.0036 310.095 15.2063 312.496 20.1883C313.142 21.7104 313.177 23.423 312.595 24.9706C312.012 26.5181 310.855 27.7818 309.365 28.4992C307.875 29.2166 306.166 29.3326 304.593 28.8233C303.02 28.3139 301.703 27.2183 300.916 25.7638C299.572 22.9627 297.463 20.5986 294.833 18.9439C292.204 17.2891 289.16 16.4112 286.053 16.4112C282.946 16.4112 279.902 17.2891 277.273 18.9439C274.643 20.5986 272.535 22.9627 271.19 25.7638C270.669 26.8685 269.844 27.802 268.812 28.4551C267.78 29.1083 266.583 29.4541 265.362 29.4522Z" fill="url(#paint25_linear_927_18943)"/>
</g>
<defs>
<linearGradient id="paint0_linear_927_18943" x1="114.999" y1="-0.113281" x2="114.999" y2="85.8723" gradientUnits="userSpaceOnUse">
<stop stop-color="#0F385A"/>
<stop offset="1" stop-color="#0D557D"/>
</linearGradient>
<linearGradient id="paint1_linear_927_18943" x1="114.999" y1="-0.113281" x2="114.999" y2="85.8723" gradientUnits="userSpaceOnUse">
<stop stop-color="#0F385A"/>
<stop offset="1" stop-color="#0D557D"/>
</linearGradient>
<linearGradient id="paint2_linear_927_18943" x1="114.999" y1="-0.113281" x2="114.999" y2="85.8723" gradientUnits="userSpaceOnUse">
<stop stop-color="#0F385A"/>
<stop offset="1" stop-color="#0D557D"/>
</linearGradient>
<linearGradient id="paint3_linear_927_18943" x1="114.999" y1="-0.113281" x2="114.999" y2="85.8723" gradientUnits="userSpaceOnUse">
<stop stop-color="#0F385A"/>
<stop offset="1" stop-color="#0D557D"/>
</linearGradient>
<linearGradient id="paint4_linear_927_18943" x1="114.999" y1="-0.113281" x2="114.999" y2="85.8723" gradientUnits="userSpaceOnUse">
<stop stop-color="#0F385A"/>
<stop offset="1" stop-color="#0D557D"/>
</linearGradient>
<linearGradient id="paint5_linear_927_18943" x1="114.999" y1="-0.113281" x2="114.999" y2="85.8723" gradientUnits="userSpaceOnUse">
<stop stop-color="#0F385A"/>
<stop offset="1" stop-color="#0D557D"/>
</linearGradient>
<linearGradient id="paint6_linear_927_18943" x1="114.999" y1="-0.113281" x2="114.999" y2="85.8723" gradientUnits="userSpaceOnUse">
<stop stop-color="#0F385A"/>
<stop offset="1" stop-color="#0D557D"/>
</linearGradient>
<linearGradient id="paint7_linear_927_18943" x1="114.999" y1="-0.113281" x2="114.999" y2="85.8723" gradientUnits="userSpaceOnUse">
<stop stop-color="#0F385A"/>
<stop offset="1" stop-color="#0D557D"/>
</linearGradient>
<linearGradient id="paint8_linear_927_18943" x1="114.999" y1="-0.113281" x2="114.999" y2="85.8723" gradientUnits="userSpaceOnUse">
<stop stop-color="#0F385A"/>
<stop offset="1" stop-color="#0D557D"/>
</linearGradient>
<linearGradient id="paint9_linear_927_18943" x1="114.999" y1="-0.113281" x2="114.999" y2="85.8723" gradientUnits="userSpaceOnUse">
<stop stop-color="#0F385A"/>
<stop offset="1" stop-color="#0D557D"/>
</linearGradient>
<linearGradient id="paint10_linear_927_18943" x1="114.999" y1="-0.113281" x2="114.999" y2="85.8723" gradientUnits="userSpaceOnUse">
<stop stop-color="#0F385A"/>
<stop offset="1" stop-color="#0D557D"/>
</linearGradient>
<linearGradient id="paint11_linear_927_18943" x1="114.999" y1="-0.113281" x2="114.999" y2="85.8723" gradientUnits="userSpaceOnUse">
<stop stop-color="#0F385A"/>
<stop offset="1" stop-color="#0D557D"/>
</linearGradient>
<linearGradient id="paint12_linear_927_18943" x1="114.999" y1="-0.113281" x2="114.999" y2="85.8723" gradientUnits="userSpaceOnUse">
<stop stop-color="#0F385A"/>
<stop offset="1" stop-color="#0D557D"/>
</linearGradient>
<linearGradient id="paint13_linear_927_18943" x1="114.999" y1="-0.113281" x2="114.999" y2="85.8723" gradientUnits="userSpaceOnUse">
<stop stop-color="#0F385A"/>
<stop offset="1" stop-color="#0D557D"/>
</linearGradient>
<linearGradient id="paint14_linear_927_18943" x1="114.999" y1="-0.113281" x2="114.999" y2="85.8723" gradientUnits="userSpaceOnUse">
<stop stop-color="#0F385A"/>
<stop offset="1" stop-color="#0D557D"/>
</linearGradient>
<linearGradient id="paint15_linear_927_18943" x1="114.999" y1="-0.113281" x2="114.999" y2="85.8723" gradientUnits="userSpaceOnUse">
<stop stop-color="#0F385A"/>
<stop offset="1" stop-color="#0D557D"/>
</linearGradient>
<linearGradient id="paint16_linear_927_18943" x1="114.999" y1="-0.113281" x2="114.999" y2="85.8723" gradientUnits="userSpaceOnUse">
<stop stop-color="#0F385A"/>
<stop offset="1" stop-color="#0D557D"/>
</linearGradient>
<linearGradient id="paint17_linear_927_18943" x1="114.999" y1="-0.113281" x2="114.999" y2="85.8723" gradientUnits="userSpaceOnUse">
<stop stop-color="#0F385A"/>
<stop offset="1" stop-color="#0D557D"/>
</linearGradient>
<linearGradient id="paint18_linear_927_18943" x1="114.999" y1="-0.113281" x2="114.999" y2="85.8723" gradientUnits="userSpaceOnUse">
<stop stop-color="#0F385A"/>
<stop offset="1" stop-color="#0D557D"/>
</linearGradient>
<linearGradient id="paint19_linear_927_18943" x1="114.999" y1="-0.113281" x2="114.999" y2="85.8723" gradientUnits="userSpaceOnUse">
<stop stop-color="#0F385A"/>
<stop offset="1" stop-color="#0D557D"/>
</linearGradient>
<linearGradient id="paint20_linear_927_18943" x1="114.999" y1="-0.113281" x2="114.999" y2="85.8723" gradientUnits="userSpaceOnUse">
<stop stop-color="#0F385A"/>
<stop offset="1" stop-color="#0D557D"/>
</linearGradient>
<linearGradient id="paint21_linear_927_18943" x1="114.999" y1="-0.113281" x2="114.999" y2="85.8723" gradientUnits="userSpaceOnUse">
<stop stop-color="#0F385A"/>
<stop offset="1" stop-color="#0D557D"/>
</linearGradient>
<linearGradient id="paint22_linear_927_18943" x1="114.999" y1="-0.113281" x2="114.999" y2="85.8723" gradientUnits="userSpaceOnUse">
<stop stop-color="#0F385A"/>
<stop offset="1" stop-color="#0D557D"/>
</linearGradient>
<linearGradient id="paint23_linear_927_18943" x1="286.232" y1="41.043" x2="286.232" y2="79.554" gradientUnits="userSpaceOnUse">
<stop stop-color="#FFDE2F"/>
<stop offset="1" stop-color="#FFAB2D"/>
</linearGradient>
<linearGradient id="paint24_linear_927_18943" x1="286.235" y1="28.9258" x2="286.235" y2="54.5045" gradientUnits="userSpaceOnUse">
<stop stop-color="#FFDE2F"/>
<stop offset="1" stop-color="#FFAB2D"/>
</linearGradient>
<linearGradient id="paint25_linear_927_18943" x1="285.967" y1="3.57031" x2="285.967" y2="29.4522" gradientUnits="userSpaceOnUse">
<stop stop-color="#0F385A"/>
<stop offset="1" stop-color="#0D557D"/>
</linearGradient>
<clipPath id="clip0_927_18943">
<rect width="326.344" height="86" fill="white"/>
</clipPath>
</defs>
</svg>
