<svg width="334" height="88" viewBox="0 0 334 88" fill="none" xmlns="http://www.w3.org/2000/svg">
<g opacity="0.06">
<path d="M-35.1001 -7H-38.6624V-3.68301H-35.1001V-7Z" fill="white"/>
<path d="M170.623 -7C170.623 -5.90035 171.092 -4.84574 171.927 -4.06817C172.762 -3.2906 173.894 -2.85376 175.075 -2.85376C176.256 -2.85376 177.389 -3.2906 178.224 -4.06817C179.059 -4.84574 179.528 -5.90035 179.528 -7H170.623ZM68.2066 -6.76781C59.8373 -6.74965 51.5595 -5.14714 43.8761 -2.05769C43.3216 -1.86308 42.8144 -1.56739 42.3842 -1.18794C41.9541 -0.808488 41.6096 -0.352909 41.3709 0.152103C41.1322 0.657115 41.0042 1.2014 40.9944 1.75307C40.9845 2.30474 41.093 2.85269 41.3135 3.36482C41.5339 3.87695 41.862 4.34295 42.2783 4.73553C42.6947 5.1281 43.191 5.43935 43.7382 5.65103C44.2854 5.86271 44.8725 5.97057 45.4651 5.96829C46.0576 5.966 46.6437 5.85362 47.189 5.63773C53.8208 2.95168 60.9745 1.563 68.2066 1.55783C75.438 1.55783 82.5982 2.95097 89.2241 5.63773C90.0869 5.99164 91.048 6.08144 91.9691 5.8942C92.8902 5.70696 93.7236 5.25234 94.3495 4.59582C94.9753 3.9393 95.3613 3.11476 95.4517 2.24096C95.5421 1.36715 95.3323 0.48918 94.8525 -0.266512C94.3297 -1.09759 93.5103 -1.73148 92.537 -2.05769C84.8536 -5.14714 76.5758 -6.74965 68.2066 -6.76781ZM161.752 -5.6732C161.025 -5.62381 160.321 -5.40865 159.704 -5.04665C159.086 -4.68465 158.574 -4.18691 158.211 -3.5972C157.849 -3.00749 157.648 -2.3439 157.625 -1.66479C157.603 -0.985677 157.76 -0.311865 158.083 0.297376C158.571 1.28525 159.155 2.22907 159.829 3.11682C160.158 3.57557 160.582 3.9686 161.076 4.27288C161.57 4.57716 162.124 4.78657 162.706 4.88886C163.289 4.99114 163.887 4.98424 164.466 4.86856C165.045 4.75287 165.594 4.53074 166.08 4.21515C166.566 3.89956 166.979 3.49688 167.296 3.03067C167.612 2.56447 167.826 2.04412 167.924 1.50011C168.022 0.95609 168.002 0.399343 167.866 -0.137527C167.73 -0.674397 167.48 -1.1806 167.132 -1.62648C166.75 -2.12926 166.416 -2.66199 166.134 -3.21863C165.765 -3.99176 165.151 -4.6413 164.374 -5.08006C163.597 -5.51881 162.695 -5.72579 161.788 -5.6732H161.752ZM118.114 -5.17566C117.498 -5.13269 116.898 -4.97073 116.353 -4.70008C115.807 -4.42943 115.328 -4.05602 114.946 -3.60362C114.564 -3.15121 114.288 -2.62972 114.134 -2.07232C113.98 -1.51492 113.953 -0.93383 114.053 -0.366022C115.039 7.38305 117.706 14.8649 121.89 21.6256C126.073 28.3771 131.684 34.2676 138.384 38.9403C139.036 39.4464 139.831 39.7682 140.673 39.8677C141.515 39.9673 142.371 39.8406 143.138 39.5024C143.906 39.1642 144.554 38.6287 145.005 37.959C145.457 37.2894 145.693 36.5135 145.687 35.7228C145.687 34.3629 144.974 33.1356 143.87 32.4058C138.062 28.3926 133.2 23.3124 129.585 17.4794C125.968 11.6397 123.676 5.17073 122.852 -1.52697C122.718 -2.58568 122.15 -3.55546 121.268 -4.23491C120.386 -4.91436 119.256 -5.25127 118.114 -5.17566ZM147.753 -2.72108C147.057 -2.68005 146.382 -2.48761 145.781 -2.15924C145.18 -1.83087 144.67 -1.37574 144.292 -0.830465C143.915 -0.285187 143.68 0.335019 143.606 0.980266C143.533 1.62551 143.623 2.27779 143.87 2.88463C145.262 6.69078 147.44 10.2065 150.282 13.2336C150.864 13.9008 151.655 14.383 152.544 14.6133C153.434 14.8437 154.378 14.8108 155.247 14.5194C156.116 14.2279 156.866 13.6922 157.393 12.9865C157.92 12.2807 158.199 11.4397 158.19 10.58C158.19 9.55177 157.763 8.58985 157.086 7.86011C154.928 5.6018 153.28 2.96212 152.241 0.0983567C151.93 -0.765574 151.321 -1.50991 150.51 -2.01955C149.699 -2.52919 148.73 -2.77574 147.753 -2.72108ZM133.04 -2.48889C132.381 -2.44715 131.741 -2.26946 131.165 -1.96871C130.589 -1.66796 130.092 -1.25168 129.71 -0.750009C129.328 -0.248343 129.071 0.326142 128.957 0.931827C128.843 1.53751 128.875 2.15923 129.051 2.75195C130.107 7.04878 131.849 11.1743 134.216 14.9916C136.582 18.8086 139.547 22.2745 143.015 25.2743C143.637 25.849 144.428 26.2398 145.288 26.3977C146.149 26.5556 147.04 26.4735 147.85 26.1618C148.66 25.8501 149.354 25.3226 149.843 24.6455C150.333 23.9683 150.597 23.1717 150.602 22.3554C150.602 21.1281 150.068 20.0335 149.178 19.2706C146.312 16.8205 143.861 13.9798 141.91 10.8454C139.969 7.70166 138.552 4.3017 137.707 0.761754C137.479 -0.205823 136.887 -1.06555 136.038 -1.66181C135.188 -2.25807 134.138 -2.55146 133.076 -2.48889H133.04ZM248.103 3.61436C247.034 3.61436 246.001 3.97923 245.253 4.57629C238.539 9.24493 232.916 15.1358 228.724 21.891C224.539 28.6517 221.873 36.1335 220.887 43.8826C220.726 44.9735 221.037 46.079 221.752 46.9561C222.467 47.8332 223.527 48.41 224.698 48.5596C225.87 48.7091 227.057 48.4192 227.999 47.7536C228.941 47.088 229.56 46.1012 229.721 45.0104C230.539 38.3265 232.818 31.8694 236.418 26.0372C240.043 20.2005 244.917 15.1199 250.739 11.1108C251.501 10.593 252.068 9.86298 252.356 9.02604C252.644 8.18911 252.639 7.28858 252.342 6.45442C252.044 5.62027 251.47 4.89566 250.702 4.38519C249.933 3.87471 249.011 3.60479 248.067 3.61436H248.103ZM68.2066 6.50015C63.4687 6.50015 58.7665 7.19671 54.2423 8.49034C53.681 8.6428 53.1574 8.89672 52.7014 9.2376C52.2454 9.57849 51.866 9.99966 51.5848 10.4771C51.3036 10.9545 51.1262 11.4788 51.0627 12.0201C50.9991 12.5613 51.0507 13.109 51.2144 13.6317C51.3781 14.1544 51.6508 14.6419 52.0169 15.0665C52.383 15.4911 52.8353 15.8444 53.3481 16.1062C53.8608 16.368 54.4239 16.5332 55.0052 16.5924C55.5865 16.6516 56.1746 16.6036 56.736 16.4511C60.4473 15.3608 64.3149 14.8016 68.2066 14.7926C72.1251 14.7926 75.9724 15.3897 79.6772 16.4511C80.8109 16.759 82.0295 16.6349 83.065 16.1062C84.1005 15.5774 84.868 14.6873 85.1987 13.6317C85.5294 12.576 85.3961 11.4413 84.8283 10.4771C84.2604 9.51289 83.3045 8.79824 82.1708 8.49034C77.649 7.18087 72.9419 6.51002 68.2066 6.50015ZM253.018 16.9818C251.772 16.9818 250.667 17.4462 249.884 18.2091C246.405 21.2072 243.427 24.6731 241.049 28.4918C238.694 32.311 236.965 36.4365 235.919 40.7315C235.729 41.2733 235.66 41.8458 235.718 42.4134C235.776 42.9809 235.959 43.5313 236.256 44.0301C236.552 44.5288 236.956 44.9653 237.442 45.3121C237.928 45.659 238.485 45.9088 239.08 46.046C239.674 46.1832 240.292 46.2048 240.896 46.1095C241.5 46.0142 242.076 45.8039 242.588 45.492C243.101 45.18 243.538 44.7729 243.874 44.2963C244.21 43.8196 244.437 43.2836 244.54 42.7217C245.397 39.1802 246.827 35.7803 248.779 32.638C250.727 29.4919 253.178 26.6399 256.046 24.1797C256.707 23.6138 257.169 22.8752 257.371 22.0608C257.573 21.2464 257.506 20.3941 257.178 19.6158C256.851 18.8375 256.278 18.1696 255.536 17.6995C254.794 17.2295 253.916 16.9793 253.018 16.9818ZM68.2066 19.8013C66.0692 19.8013 63.8962 20.0003 61.7944 20.3983C60.8822 20.5298 60.0364 20.922 59.374 21.5207C58.7116 22.1194 58.2655 22.895 58.0973 23.7402C57.929 24.5853 58.0471 25.4582 58.435 26.2382C58.8229 27.0182 59.4616 27.6666 60.2626 28.0937C61.2601 28.6245 62.3644 28.7571 63.3975 28.5581C66.5709 27.9559 69.8422 27.9559 73.0157 28.5581C73.5911 28.6561 74.1816 28.6477 74.7534 28.5332C75.3253 28.4187 75.8674 28.2004 76.3487 27.8909C76.83 27.5813 77.2411 27.1865 77.5585 26.729C77.876 26.2716 78.0935 25.7603 78.1988 25.2245C78.3041 24.6888 78.2949 24.1389 78.172 23.6064C78.049 23.0739 77.8146 22.5692 77.4822 22.121C77.1498 21.6729 76.7258 21.2901 76.2345 20.9945C75.7431 20.6989 75.1941 20.4963 74.6187 20.3983C72.5073 20.0053 70.3597 19.8054 68.2066 19.8013ZM260.606 28.724C259.181 28.724 257.97 29.2879 257.151 30.2498C254.31 33.2774 252.131 36.793 250.739 40.5988C250.501 41.1188 250.38 41.6785 250.383 42.2437C250.386 42.8089 250.513 43.3675 250.756 43.8852C251 44.403 251.354 44.869 251.798 45.2545C252.242 45.6401 252.765 45.9371 253.337 46.1274C253.908 46.3176 254.516 46.397 255.121 46.3607C255.727 46.3245 256.318 46.1733 256.859 45.9165C257.4 45.6596 257.878 45.3026 258.265 44.8673C258.652 44.432 258.94 43.9276 259.11 43.3851C260.136 40.5229 261.772 37.8829 263.919 35.6233C264.488 35.0268 264.86 34.29 264.991 33.5015C265.121 32.713 265.004 31.9061 264.655 31.1778C264.305 30.4495 263.737 29.8305 263.019 29.3953C262.301 28.96 261.463 28.7269 260.606 28.724ZM68.2066 33.0692C67.6366 33.0692 67.031 33.1024 66.461 33.1687C65.872 33.2086 65.2974 33.3572 64.7707 33.6059C64.2439 33.8545 63.7756 34.1983 63.3929 34.6171C63.0101 35.0359 62.7207 35.5214 62.5414 36.0453C62.3622 36.5693 62.2966 37.1212 62.3486 37.669C62.4006 38.2167 62.569 38.7494 62.8442 39.2359C63.1194 39.7225 63.4957 40.1532 63.9514 40.5031C64.407 40.8529 64.9328 41.1148 65.4983 41.2736C66.0637 41.4324 66.6573 41.4849 67.2447 41.428C67.8963 41.3702 68.5524 41.3702 69.204 41.428C69.7888 41.4738 70.3775 41.4118 70.9365 41.2457C71.4956 41.0796 72.014 40.8126 72.4622 40.4599C72.9104 40.1072 73.2797 39.6758 73.5488 39.1903C73.818 38.7047 73.9818 38.1746 74.0309 37.6301C74.08 37.0856 74.0135 36.5374 73.8351 36.0169C73.6567 35.4963 73.3699 35.0136 72.9912 34.5962C72.6124 34.1789 72.1491 33.8351 71.6276 33.5845C71.1062 33.3338 70.5368 33.1813 69.9521 33.1356C69.3715 33.0913 68.7891 33.0691 68.2066 33.0692ZM270.367 38.5754C268.835 38.5754 267.481 39.272 266.662 40.3998C265.999 41.2877 265.426 42.2316 264.952 43.2192C264.665 43.7156 264.49 44.2612 264.438 44.8228C264.385 45.3843 264.456 45.9499 264.646 46.485C264.836 47.0201 265.142 47.5136 265.543 47.9351C265.945 48.3567 266.435 48.6976 266.983 48.9369C267.531 49.1763 268.126 49.3091 268.731 49.3272C269.336 49.3453 269.938 49.2484 270.502 49.0423C271.065 48.8362 271.578 48.5254 272.008 48.1287C272.438 47.732 272.776 47.2579 273.003 46.7352C273.276 46.1739 273.61 45.6403 274 45.1431C274.48 44.5225 274.766 43.7905 274.827 43.0281C274.887 42.2657 274.72 41.5025 274.344 40.8228C273.968 40.1432 273.398 39.5736 272.696 39.177C271.994 38.7804 271.188 38.5722 270.367 38.5754ZM281.944 46.3372C280.763 46.3372 279.631 46.774 278.796 47.5516C277.961 48.3292 277.491 49.3838 277.491 50.4834C277.491 51.5831 277.961 52.6377 278.796 53.4153C279.631 54.1928 280.763 54.6297 281.944 54.6297C283.125 54.6297 284.258 54.1928 285.093 53.4153C285.928 52.6377 286.397 51.5831 286.397 50.4834C286.397 49.3838 285.928 48.3292 285.093 47.5516C284.258 46.774 283.125 46.3372 281.944 46.3372ZM68.5272 46.3372C67.9424 46.3002 67.3555 46.3707 66.8001 46.5449C66.2446 46.7191 65.7314 46.9934 65.2898 47.3522C64.8482 47.7111 64.4868 48.1474 64.2263 48.6362C63.9658 49.1251 63.8113 49.657 63.7715 50.2015C63.7317 50.746 63.8075 51.2924 63.9946 51.8096C64.1816 52.3268 64.4762 52.8047 64.8616 53.2159C65.247 53.6271 65.7155 53.9636 66.2406 54.2061C66.7656 54.4487 67.3368 54.5926 67.9216 54.6297C69.1025 54.7044 70.2671 54.3393 71.1589 53.6146C72.0508 52.8899 72.5969 51.865 72.6772 50.7654C72.7575 49.6657 72.3654 48.5814 71.5871 47.7509C70.8088 46.9205 69.7081 46.412 68.5272 46.3372ZM295.232 51.777C294.318 51.7126 293.406 51.9142 292.621 52.354C291.836 52.7937 291.217 53.4499 290.85 54.2316C290.587 54.7907 290.265 55.324 289.888 55.8238C289.54 56.2697 289.29 56.7759 289.154 57.3127C289.018 57.8496 288.998 58.4063 289.096 58.9504C289.194 59.4944 289.408 60.0147 289.724 60.4809C290.041 60.9471 290.454 61.3498 290.94 61.6654C291.426 61.981 291.975 62.2031 292.554 62.3188C293.133 62.4345 293.731 62.4414 294.313 62.3391C294.895 62.2368 295.45 62.0274 295.944 61.7231C296.438 61.4188 296.862 61.0258 297.191 60.5671C297.866 59.6798 298.45 58.7359 298.937 57.7476C299.26 57.136 299.417 56.4594 299.393 55.7778C299.369 55.0962 299.164 54.4307 298.798 53.8403C298.432 53.2498 297.915 52.7526 297.292 52.3927C296.67 52.0328 295.963 51.8213 295.232 51.777ZM338.87 52.3078C337.726 52.2237 336.592 52.5576 335.707 53.2386C334.823 53.9196 334.258 54.8944 334.132 55.9564C333.319 62.6517 331.04 69.1205 327.435 74.9628C323.81 80.799 318.935 85.8794 313.114 89.8892C312.654 90.2246 312.268 90.6413 311.98 91.1154C311.693 91.5894 311.508 92.1116 311.437 92.6522C311.366 93.1928 311.41 93.7411 311.566 94.2658C311.722 94.7906 311.988 95.2815 312.349 95.7106C312.709 96.1396 313.156 96.4984 313.665 96.7665C314.174 97.0345 314.735 97.2066 315.316 97.2728C315.896 97.339 316.485 97.2981 317.049 97.1524C317.612 97.0067 318.14 96.7591 318.6 96.4237C325.314 91.7551 330.937 85.8642 335.129 79.109C339.315 72.3487 341.981 64.8667 342.966 57.1174C343.067 56.547 343.039 55.9633 342.883 55.4038C342.727 54.8442 342.447 54.3212 342.061 53.8683C341.676 53.4154 341.192 53.0426 340.643 52.7739C340.093 52.5051 339.489 52.3463 338.87 52.3078ZM309.303 54.7623C308.313 54.6866 307.325 54.9236 306.497 55.4352C305.67 55.9467 305.052 56.703 304.743 57.5818C303.715 60.4428 302.079 63.0823 299.934 65.3435C299.365 65.9401 298.993 66.6768 298.863 67.4653C298.732 68.2539 298.849 69.0607 299.198 69.789C299.548 70.5174 300.116 71.1363 300.834 71.5715C301.552 72.0068 302.39 72.2399 303.247 72.2429C304.672 72.2429 305.883 71.6458 306.702 70.717C309.544 67.6894 311.722 64.1738 313.114 60.368C313.367 59.7619 313.464 59.1089 313.396 58.4617C313.328 57.8145 313.097 57.1913 312.723 56.6424C312.348 56.0936 311.84 55.6344 311.24 55.302C310.64 54.9697 309.964 54.7734 309.267 54.7292L309.303 54.7623ZM323.944 54.9945C322.881 54.925 321.826 55.2157 320.975 55.8131C320.124 56.4105 319.534 57.2743 319.313 58.2452C318.468 61.7851 317.051 65.1851 315.109 68.3288C313.158 71.4632 310.708 74.3039 307.842 76.754C307.385 77.1222 307.013 77.5732 306.75 78.0795C306.486 78.5857 306.335 79.1368 306.308 79.6989C306.28 80.2611 306.375 80.8226 306.588 81.3493C306.801 81.8761 307.126 82.3569 307.545 82.7627C307.964 83.1684 308.467 83.4905 309.024 83.7094C309.581 83.9282 310.18 84.0393 310.784 84.0357C311.388 84.0321 311.986 83.914 312.539 83.6886C313.093 83.4632 313.592 83.1352 314.005 82.7245C317.47 79.7352 320.436 76.2806 322.804 72.4751C325.162 68.6455 326.891 64.5087 327.934 60.2022C328.103 59.6116 328.131 58.9935 328.014 58.3919C327.897 57.7904 327.638 57.2203 327.257 56.7227C326.876 56.225 326.381 55.812 325.808 55.5132C325.235 55.2145 324.599 55.0373 323.944 54.9945ZM66.5323 59.572C65.3513 59.5632 64.2149 59.9916 63.3732 60.7629C62.5314 61.5343 62.0532 62.5854 62.0438 63.685C62.0343 64.7847 62.4944 65.8428 63.3228 66.6266C64.1512 67.4104 65.2801 67.8556 66.461 67.8644C67.6221 67.9676 68.791 67.9676 69.9521 67.8644C70.5368 67.8165 71.1057 67.6618 71.6263 67.4092C72.1468 67.1566 72.6089 66.8109 72.986 66.392C73.3631 65.9731 73.6479 65.4892 73.8241 64.9678C74.0003 64.4464 74.0646 63.8978 74.0131 63.3533C73.9616 62.8088 73.7955 62.2791 73.5242 61.7944C73.2529 61.3097 72.8817 60.8795 72.4318 60.5284C71.9819 60.1772 71.4622 59.912 70.9022 59.7479C70.3423 59.5838 69.7531 59.5241 69.1684 59.572C68.517 59.6341 67.8605 59.6341 67.2091 59.572C66.972 59.5543 66.7338 59.5543 66.4967 59.572H66.5323ZM-4.78491 61.131C-5.71645 61.1379 -6.62222 61.4166 -7.37468 61.928C-8.12714 62.4394 -8.6884 63.1577 -8.97944 63.9817C-9.27049 64.8057 -9.27667 65.6939 -8.9971 66.5214C-8.71753 67.3488 -8.1663 68.0738 -7.42101 68.5942C-1.61296 72.6074 3.24891 77.6877 6.8638 83.5206C10.4715 89.3617 12.7511 95.8311 13.5609 102.527C13.7263 103.618 14.3502 104.603 15.2955 105.265C16.2408 105.928 17.43 106.214 18.6016 106.06C19.7731 105.906 20.831 105.325 21.5424 104.444C22.2539 103.564 22.5607 102.457 22.3954 101.366C21.4104 93.6167 18.744 86.1348 14.5584 79.3744C10.3661 72.6192 4.74249 66.7283 -1.9707 62.0597C-2.77399 61.448 -3.78292 61.1192 -4.82053 61.131H-4.78491ZM62.5781 72.4087C61.4638 72.4026 60.3875 72.7857 59.5617 73.4824C58.736 74.1791 58.2208 75.1388 58.1179 76.172C58.015 77.2052 58.3318 78.2367 59.0059 79.063C59.68 79.8892 60.6623 80.4501 61.7588 80.6348C65.9926 81.4143 70.3493 81.4143 74.5831 80.6348C75.1608 80.539 75.7126 80.3382 76.207 80.0438C76.7014 79.7494 77.1286 79.3672 77.4644 78.919C77.8001 78.4709 78.0378 77.9655 78.1638 77.4318C78.2898 76.8981 78.3017 76.3466 78.1988 75.8086C78.0959 75.2707 77.8802 74.7569 77.564 74.2965C77.2478 73.8362 76.8374 73.4383 76.3561 73.1257C75.8748 72.8131 75.3321 72.5918 74.7589 72.4744C74.1858 72.3571 73.5934 72.3461 73.0157 72.4419C69.8422 73.0441 66.5709 73.0441 63.3975 72.4419C63.1271 72.3965 62.8528 72.3743 62.5781 72.3755V72.4087ZM-9.7365 74.5316C-10.6311 74.5357 -11.5037 74.7907 -12.2405 75.2633C-12.9772 75.7359 -13.544 76.4041 -13.867 77.181C-14.1899 77.9579 -14.2541 78.8073 -14.0511 79.6186C-13.8481 80.43 -13.3873 81.1655 -12.7288 81.7295C-9.87899 84.184 -7.42101 87.0366 -5.46175 90.1546C-3.52103 93.2986 -2.10374 96.6985 -1.25824 100.238C-1.06469 101.052 -0.611973 101.793 0.0407867 102.364C0.693546 102.935 1.51602 103.31 2.40081 103.439C3.2856 103.567 4.19159 103.445 5.00048 103.087C5.80938 102.729 6.48357 102.153 6.93505 101.432C7.54064 100.437 7.64751 99.3095 7.39815 98.2481C6.34124 93.9512 4.60021 89.8257 2.23281 86.0084C-0.132969 82.1914 -3.09876 78.7255 -6.56606 75.7257C-6.98392 75.3419 -7.47915 75.0389 -8.02325 74.8339C-8.56736 74.629 -9.1496 74.5262 -9.7365 74.5316ZM54.9192 84.383C53.8843 84.4815 52.9192 84.9141 52.1911 85.6059C51.4631 86.2978 51.0181 87.2051 50.9335 88.1705C50.8489 89.1359 51.1299 90.0984 51.7278 90.891C52.3257 91.6836 53.2027 92.2563 54.2067 92.5097C58.74 93.8219 63.4593 94.4928 68.2066 94.4999C72.9444 94.4999 77.6466 93.8365 82.1708 92.5097C82.7321 92.3572 83.2557 92.1033 83.7117 91.7624C84.1677 91.4215 84.5471 91.0003 84.8283 90.5229C85.1095 90.0455 85.2869 89.5212 85.3504 88.9799C85.414 88.4387 85.3624 87.8911 85.1987 87.3683C85.035 86.8456 84.7623 86.3581 84.3962 85.9335C84.0301 85.5089 83.5778 85.1556 83.065 84.8938C82.5523 84.632 81.9892 84.4668 81.4079 84.4076C80.8266 84.3484 80.2385 84.3964 79.6772 84.5489C75.9657 85.6387 72.0982 86.1979 68.2066 86.2074C64.303 86.2013 60.4232 85.6421 56.7003 84.5489C56.1248 84.3819 55.5188 84.3255 54.9192 84.383ZM-17.2886 86.2074C-18.1454 86.2104 -18.9831 86.4435 -19.7012 86.8787C-20.4193 87.314 -20.9873 87.9329 -21.337 88.6612C-21.6868 89.3896 -21.8034 90.1964 -21.6729 90.9849C-21.5425 91.7734 -21.1705 92.5102 -20.6015 93.1067C-18.4539 95.3663 -16.8183 98.0063 -15.7924 100.868C-15.5169 101.619 -15.016 102.28 -14.3491 102.774C-13.6821 103.267 -12.8771 103.572 -12.0296 103.653C-11.1821 103.733 -10.3277 103.585 -9.56761 103.227C-8.80756 102.869 -8.17384 102.315 -7.74162 101.631C-7.02916 100.504 -6.95791 99.21 -7.38539 98.0822C-8.78871 94.2738 -10.9792 90.758 -13.8331 87.7332C-14.2512 87.2558 -14.7783 86.8712 -15.376 86.6073C-15.9737 86.3434 -16.6271 86.2068 -17.2886 86.2074ZM45.2297 95.0306C44.2042 95.0738 43.2262 95.4458 42.4613 96.0833C41.6964 96.7209 41.1916 97.585 41.0323 98.5294C40.8731 99.4737 41.0691 100.44 41.5874 101.266C42.1056 102.091 42.9141 102.724 43.8761 103.058C51.5595 106.147 59.8373 107.75 68.2066 107.768C76.5852 107.764 84.8753 106.172 92.5727 103.091C93.1153 102.886 93.6094 102.584 94.0266 102.201C94.4438 101.819 94.776 101.364 95.0042 100.862C95.2325 100.359 95.3523 99.8205 95.3568 99.2753C95.3614 98.7301 95.2505 98.1895 95.0306 97.6842C94.8108 97.1789 94.4862 96.7189 94.0754 96.3304C93.6646 95.9419 93.1756 95.6326 92.6364 95.4201C92.0973 95.2075 91.5184 95.096 90.9329 95.0917C90.3474 95.0875 89.7668 95.1907 89.2241 95.3955C82.592 98.0806 75.4385 99.4692 68.2066 99.4753C60.9746 99.4692 53.8211 98.0806 47.189 95.3955C46.5708 95.1497 45.9013 95.0363 45.2297 95.0638V95.0306ZM-27.0493 96.0257C-27.8792 96.0195 -28.6946 96.2294 -29.4032 96.6318C-30.1119 97.0341 -30.6856 97.6129 -31.0598 98.3027C-31.4339 98.9926 -31.5936 99.7661 -31.5207 100.536C-31.4478 101.306 -31.1452 102.041 -30.6472 102.66C-30.2732 103.149 -29.9511 103.671 -29.6854 104.219C-29.4374 104.713 -29.0873 105.157 -28.6551 105.526C-28.2228 105.894 -27.7169 106.179 -27.1661 106.366C-26.6153 106.552 -26.0306 106.636 -25.4451 106.612C-24.8597 106.588 -24.2851 106.456 -23.7541 106.225C-23.2232 105.995 -22.7463 105.669 -22.3506 105.266C-21.9549 104.864 -21.6483 104.392 -21.4482 103.88C-21.248 103.367 -21.1583 102.822 -21.1842 102.277C-21.2101 101.732 -21.351 101.197 -21.599 100.703C-22.0967 99.7131 -22.693 98.7691 -23.3801 97.8832C-23.786 97.324 -24.3324 96.8655 -24.9719 96.5476C-25.6113 96.2296 -26.3244 96.0619 -27.0493 96.0588V96.0257ZM388.813 103.854C387.632 103.854 386.5 104.291 385.665 105.068C384.83 105.846 384.36 106.9 384.36 108C384.36 109.1 384.83 110.154 385.665 110.932C386.5 111.709 387.632 112.146 388.813 112.146V103.854ZM-38.6624 103.854V112.146C-37.4814 112.146 -36.3488 111.709 -35.5137 110.932C-34.6786 110.154 -34.2095 109.1 -34.2095 108C-34.2095 106.9 -34.6786 105.846 -35.5137 105.068C-36.3488 104.291 -37.4814 103.854 -38.6624 103.854ZM281.944 108.232C273.578 108.24 265.3 109.831 257.614 112.909C257.059 113.104 256.552 113.399 256.122 113.779C255.692 114.158 255.347 114.614 255.109 115.119C254.87 115.624 254.742 116.168 254.732 116.72C254.722 117.272 254.831 117.82 255.051 118.332C255.272 118.844 255.6 119.31 256.016 119.702C256.433 120.095 256.929 120.406 257.476 120.618C258.023 120.83 258.61 120.937 259.203 120.935C259.795 120.933 260.382 120.82 260.927 120.605C267.559 117.919 274.712 116.53 281.944 116.525C289.176 116.525 296.336 117.951 302.962 120.638C303.507 120.84 304.089 120.941 304.676 120.934C305.263 120.927 305.842 120.812 306.382 120.597C306.921 120.381 307.409 120.069 307.819 119.677C308.228 119.286 308.551 118.823 308.768 118.316C308.986 117.808 309.094 117.266 309.086 116.72C309.079 116.173 308.956 115.634 308.724 115.132C308.493 114.63 308.157 114.175 307.737 113.794C307.317 113.412 306.82 113.112 306.275 112.909C298.586 109.842 290.309 108.263 281.944 108.265V108.232ZM375.49 109.294C374.763 109.343 374.059 109.558 373.441 109.92C372.824 110.282 372.312 110.78 371.949 111.37C371.587 111.959 371.385 112.623 371.363 113.302C371.341 113.981 371.498 114.655 371.821 115.264C372.306 116.253 372.891 117.197 373.567 118.084C373.896 118.542 374.32 118.935 374.814 119.24C375.308 119.544 375.862 119.753 376.444 119.856C377.026 119.958 377.625 119.951 378.204 119.835C378.783 119.72 379.332 119.498 379.818 119.182C380.303 118.866 380.717 118.464 381.033 117.998C381.35 117.531 381.564 117.011 381.662 116.467C381.759 115.923 381.74 115.366 381.604 114.829C381.468 114.292 381.218 113.786 380.869 113.34C380.48 112.842 380.146 112.309 379.872 111.748C379.501 110.969 378.881 110.316 378.097 109.877C377.313 109.438 376.403 109.234 375.49 109.294ZM331.852 109.824C331.236 109.867 330.636 110.029 330.09 110.3C329.545 110.571 329.066 110.944 328.684 111.396C328.302 111.849 328.025 112.37 327.872 112.928C327.718 113.485 327.691 114.066 327.791 114.634C328.766 122.381 331.42 129.862 335.593 136.626C339.79 143.368 345.413 149.247 352.122 153.907C353.052 154.585 354.234 154.89 355.406 154.756C356.579 154.622 357.646 154.061 358.373 153.194C359.101 152.327 359.429 151.227 359.285 150.136C359.142 149.044 358.538 148.05 357.608 147.373C351.787 143.363 346.912 138.282 343.287 132.446C339.687 126.614 337.408 120.157 336.59 113.473C336.455 112.414 335.888 111.445 335.006 110.765C334.124 110.086 332.994 109.749 331.852 109.824ZM361.455 112.246C360.758 112.29 360.082 112.486 359.482 112.819C358.882 113.151 358.374 113.61 357.999 114.159C357.625 114.708 357.394 115.331 357.326 115.978C357.258 116.626 357.355 117.279 357.608 117.885C359 121.69 361.178 125.206 364.02 128.234C364.388 128.679 364.849 129.05 365.376 129.324C365.903 129.598 366.484 129.77 367.084 129.828C367.685 129.887 368.291 129.831 368.868 129.665C369.444 129.498 369.978 129.224 370.437 128.86C370.896 128.495 371.271 128.047 371.539 127.544C371.807 127.04 371.962 126.491 371.995 125.93C372.027 125.369 371.937 124.807 371.73 124.28C371.522 123.752 371.202 123.269 370.788 122.86C368.643 120.599 367.007 117.959 365.979 115.098C365.672 114.222 365.061 113.467 364.242 112.95C363.423 112.433 362.442 112.186 361.455 112.246ZM346.778 112.511C346.123 112.554 345.487 112.731 344.914 113.03C344.341 113.329 343.846 113.742 343.465 114.239C343.084 114.737 342.825 115.307 342.708 115.908C342.591 116.51 342.619 117.128 342.788 117.719C343.831 122.025 345.56 126.162 347.918 129.992C350.296 133.81 353.273 137.276 356.753 140.274C357.377 140.851 358.172 141.242 359.035 141.399C359.898 141.556 360.792 141.471 361.604 141.155C362.416 140.84 363.109 140.307 363.596 139.625C364.083 138.943 364.342 138.141 364.34 137.322C364.34 136.128 363.806 135 362.915 134.271C357.141 129.326 353.127 122.856 351.409 115.729C351.181 114.755 350.583 113.891 349.726 113.294C348.869 112.697 347.81 112.407 346.743 112.478L346.778 112.511ZM34.3647 118.614C33.296 118.614 32.2986 118.946 31.5149 119.543C24.8017 124.212 19.1781 130.103 14.9858 136.858C10.8011 143.619 8.13482 151.1 7.14878 158.849C7.06692 159.39 7.10011 159.939 7.24646 160.468C7.39281 160.996 7.64946 161.492 8.00175 161.928C8.35404 162.364 8.79508 162.731 9.29967 163.008C9.80427 163.285 10.3625 163.467 10.9426 163.543C11.5227 163.619 12.1132 163.588 12.6805 163.452C13.2477 163.316 13.7806 163.077 14.2487 162.749C14.7168 162.421 15.1109 162.01 15.4085 161.54C15.7061 161.07 15.9014 160.551 15.9833 160.01C16.7951 153.315 19.0745 146.846 22.6804 141.004C26.3049 135.167 31.1792 130.087 37.0008 126.078C37.7461 125.557 38.2973 124.832 38.5769 124.005C38.8565 123.177 38.8503 122.289 38.5593 121.465C38.2682 120.641 37.707 119.923 36.9545 119.411C36.202 118.9 35.2963 118.621 34.3647 118.614ZM281.944 121.5C277.207 121.5 272.504 122.164 267.98 123.49C267.419 123.643 266.895 123.897 266.439 124.238C265.983 124.578 265.604 125 265.323 125.477C265.041 125.955 264.864 126.479 264.8 127.02C264.737 127.561 264.788 128.109 264.952 128.632C265.116 129.154 265.389 129.642 265.755 130.067C266.121 130.491 266.573 130.844 267.086 131.106C267.599 131.368 268.162 131.533 268.743 131.592C269.324 131.652 269.912 131.604 270.474 131.451C274.185 130.361 278.053 129.802 281.944 129.793C285.863 129.793 289.71 130.39 293.415 131.451C294.272 131.706 295.193 131.713 296.054 131.471C296.916 131.229 297.678 130.749 298.241 130.095C298.805 129.442 299.142 128.645 299.209 127.809C299.276 126.973 299.069 126.138 298.616 125.414C298.023 124.464 297.049 123.772 295.909 123.49C291.387 122.181 286.68 121.511 281.944 121.5ZM39.2807 131.982C38.0695 131.982 36.9296 132.446 36.1459 133.209C32.6659 136.207 29.688 139.673 27.3114 143.492C24.9554 147.311 23.2264 151.436 22.1817 155.731C22.0413 156.261 22.0143 156.811 22.1022 157.35C22.19 157.888 22.391 158.406 22.6937 158.873C22.9964 159.339 23.3948 159.746 23.8662 160.069C24.3376 160.392 24.8728 160.626 25.4412 160.757C26.0096 160.887 26.6 160.913 27.1788 160.831C27.7577 160.749 28.3135 160.562 28.8147 160.28C29.3158 159.998 29.7525 159.627 30.0996 159.188C30.4468 158.749 30.6977 158.251 30.8381 157.722C31.683 154.182 33.1004 150.782 35.0416 147.638C36.99 144.492 39.4403 141.64 42.3087 139.18C42.9694 138.614 43.4309 137.875 43.6329 137.061C43.8348 136.246 43.7677 135.394 43.4403 134.616C43.1129 133.838 42.5405 133.17 41.7982 132.7C41.0559 132.229 40.1784 131.979 39.2807 131.982ZM281.944 134.768C279.807 134.768 277.634 134.967 275.532 135.365C274.62 135.497 273.774 135.889 273.112 136.488C272.449 137.086 272.003 137.862 271.835 138.707C271.667 139.552 271.785 140.425 272.173 141.205C272.561 141.985 273.199 142.633 274 143.061C274.998 143.591 276.102 143.724 277.135 143.525C280.309 142.923 283.58 142.923 286.753 143.525C287.329 143.625 287.92 143.619 288.493 143.506C289.065 143.394 289.609 143.177 290.092 142.869C290.575 142.561 290.988 142.168 291.307 141.711C291.627 141.255 291.847 140.744 291.954 140.208C292.062 139.672 292.055 139.122 291.934 138.589C291.814 138.055 291.581 137.549 291.25 137.1C290.92 136.65 290.497 136.265 290.007 135.968C289.516 135.67 288.968 135.465 288.392 135.365C286.269 134.97 284.109 134.77 281.944 134.768ZM46.8684 143.724C45.4791 143.724 44.2323 144.288 43.4486 145.217C40.6033 148.254 38.4249 151.781 37.0365 155.599C36.7987 156.119 36.6776 156.679 36.6806 157.244C36.6836 157.809 36.8107 158.367 37.054 158.885C37.2974 159.403 37.6518 159.869 38.0956 160.255C38.5394 160.64 39.0631 160.937 39.6346 161.127C40.2062 161.318 40.8135 161.397 41.4192 161.361C42.0249 161.324 42.6162 161.173 43.1569 160.916C43.6976 160.66 44.1762 160.303 44.5632 159.867C44.9503 159.432 45.2377 158.928 45.4079 158.385C46.432 155.512 48.0677 152.861 50.217 150.59C50.7879 149.991 51.1605 149.252 51.2897 148.46C51.419 147.669 51.2993 146.859 50.9452 146.129C50.5911 145.4 50.0177 144.781 49.2942 144.349C48.5708 143.916 47.7282 143.687 46.8684 143.691V143.724ZM281.944 148.003C281.374 148.003 280.769 148.003 280.199 148.102C279.61 148.142 279.035 148.291 278.509 148.54C277.982 148.788 277.513 149.132 277.131 149.551C276.748 149.97 276.459 150.455 276.279 150.979C276.1 151.503 276.034 152.055 276.086 152.603C276.138 153.15 276.307 153.683 276.582 154.17C276.857 154.656 277.234 155.087 277.689 155.437C278.145 155.787 278.671 156.048 279.236 156.207C279.801 156.366 280.395 156.419 280.983 156.362C281.634 156.302 282.29 156.302 282.942 156.362C283.527 156.407 284.115 156.345 284.674 156.179C285.233 156.013 285.752 155.746 286.2 155.394C286.648 155.041 287.017 154.609 287.287 154.124C287.556 153.638 287.72 153.108 287.769 152.564C287.818 152.019 287.751 151.471 287.573 150.951C287.395 150.43 287.108 149.947 286.729 149.53C286.35 149.113 285.887 148.769 285.365 148.518C284.844 148.268 284.275 148.115 283.69 148.069C283.109 148.022 282.527 148 281.944 148.003ZM56.6291 153.542C55.0973 153.542 53.7792 154.272 52.9243 155.367C52.2624 156.255 51.69 157.199 51.2144 158.186C50.9277 158.682 50.7527 159.228 50.7001 159.79C50.6475 160.351 50.7184 160.917 50.9084 161.452C51.0985 161.987 51.4037 162.48 51.8055 162.902C52.2073 163.324 52.6972 163.664 53.2452 163.904C53.7933 164.143 54.388 164.276 54.993 164.294C55.598 164.312 56.2006 164.215 56.764 164.009C57.3275 163.803 57.8398 163.492 58.2699 163.096C58.6999 162.699 59.0386 162.225 59.2652 161.702C59.5395 161.142 59.8737 160.608 60.2626 160.11C60.7421 159.489 61.028 158.757 61.0887 157.995C61.1494 157.233 60.9825 156.469 60.6065 155.79C60.2305 155.11 59.66 154.54 58.9581 154.144C58.2562 153.747 57.4501 153.539 56.6291 153.542ZM68.2066 161.337C67.0256 161.337 65.893 161.774 65.0579 162.552C64.2228 163.329 63.7537 164.384 63.7537 165.483C63.7537 166.583 64.2228 167.638 65.0579 168.415C65.893 169.193 67.0256 169.63 68.2066 169.63C69.3875 169.63 70.5201 169.193 71.3552 168.415C72.1903 167.638 72.6594 166.583 72.6594 165.483C72.6594 164.384 72.1903 163.329 71.3552 162.552C70.5201 161.774 69.3875 161.337 68.2066 161.337ZM282.265 161.337C281.084 161.262 279.919 161.628 279.028 162.352C278.136 163.077 277.59 164.102 277.509 165.201C277.429 166.301 277.821 167.385 278.599 168.216C279.378 169.046 280.478 169.555 281.659 169.63C282.244 169.667 282.831 169.596 283.386 169.422C283.942 169.248 284.455 168.973 284.897 168.615C285.338 168.256 285.7 167.819 285.96 167.331C286.221 166.842 286.375 166.31 286.415 165.765C286.455 165.221 286.379 164.674 286.192 164.157C286.005 163.64 285.71 163.162 285.325 162.751C284.94 162.34 284.471 162.003 283.946 161.761C283.421 161.518 282.85 161.374 282.265 161.337ZM81.4939 166.777C80.5862 166.72 79.6816 166.925 78.9038 167.364C78.1259 167.803 77.5127 168.456 77.1479 169.232C76.8734 169.792 76.5392 170.325 76.1505 170.824C75.8017 171.27 75.552 171.776 75.416 172.313C75.2799 172.85 75.2603 173.406 75.3583 173.95C75.4563 174.494 75.6698 175.015 75.9864 175.481C76.3031 175.947 76.7164 176.35 77.2023 176.665C77.6882 176.981 78.2368 177.203 78.816 177.319C79.3952 177.434 79.9934 177.441 80.5756 177.339C81.1577 177.237 81.7121 177.027 82.2062 176.723C82.7003 176.419 83.1242 176.026 83.4532 175.567C84.137 174.679 84.7332 173.736 85.2343 172.748C85.559 172.133 85.7153 171.454 85.6893 170.77C85.6634 170.086 85.4559 169.419 85.0855 168.827C84.7151 168.236 84.1933 167.739 83.5666 167.382C82.9399 167.024 82.2278 166.816 81.4939 166.777ZM125.132 167.275C123.988 167.2 122.858 167.543 121.981 168.23C121.103 168.917 120.547 169.895 120.43 170.956C119.607 177.654 117.315 184.124 113.697 189.963C110.082 195.796 105.22 200.876 99.4123 204.889C98.9515 205.225 98.5662 205.641 98.2783 206.115C97.9904 206.589 97.8056 207.112 97.7345 207.652C97.6634 208.193 97.7073 208.741 97.8638 209.266C98.0202 209.791 98.2862 210.282 98.6464 210.711C99.0066 211.14 99.454 211.498 99.9632 211.766C100.472 212.035 101.033 212.207 101.614 212.273C102.194 212.339 102.783 212.298 103.347 212.152C103.91 212.007 104.437 211.759 104.898 211.424C111.611 206.755 117.235 200.864 121.427 194.109C125.612 187.348 128.278 179.866 129.264 172.117C129.371 171.542 129.345 170.952 129.19 170.386C129.035 169.821 128.753 169.292 128.362 168.835C127.972 168.378 127.483 168.002 126.926 167.733C126.37 167.465 125.758 167.308 125.132 167.275ZM95.565 169.729C94.5707 169.655 93.5789 169.897 92.751 170.415C91.9231 170.933 91.3078 171.697 91.0053 172.582C89.9776 175.443 88.3421 178.083 86.1962 180.344C85.7821 180.752 85.4617 181.235 85.2543 181.763C85.0469 182.291 84.9569 182.852 84.9897 183.413C85.0225 183.974 85.1775 184.523 85.4452 185.027C85.7129 185.531 86.0877 185.978 86.5469 186.343C87.0061 186.708 87.5402 186.981 88.1166 187.148C88.693 187.314 89.2997 187.37 89.8999 187.312C90.5001 187.253 91.0813 187.082 91.6081 186.807C92.1349 186.533 92.5964 186.162 92.9645 185.717C95.8088 182.691 97.9874 179.175 99.3766 175.368C99.6297 174.762 99.7261 174.109 99.658 173.462C99.59 172.815 99.3594 172.191 98.9849 171.642C98.6104 171.094 98.1025 170.634 97.5022 170.302C96.9019 169.97 96.2261 169.773 95.5294 169.729H95.565ZM110.242 169.995C109.178 169.925 108.124 170.216 107.273 170.813C106.422 171.41 105.832 172.274 105.611 173.245C104.743 176.789 103.302 180.189 101.336 183.329C99.3959 186.461 96.9577 189.301 94.1044 191.754C93.446 192.318 92.9852 193.053 92.7822 193.865C92.5792 194.676 92.6433 195.526 92.9663 196.302C93.2893 197.079 93.8561 197.748 94.5928 198.22C95.3296 198.693 96.2021 198.948 97.0968 198.952C98.3436 198.952 99.4479 198.487 100.267 197.758C103.734 194.758 106.7 191.292 109.066 187.475C111.453 183.627 113.163 179.514 114.231 175.202C114.401 174.612 114.428 173.993 114.311 173.392C114.195 172.79 113.936 172.22 113.555 171.723C113.174 171.225 112.679 170.812 112.106 170.513C111.533 170.214 110.897 170.037 110.242 169.995ZM280.27 174.539C279.685 174.534 279.105 174.637 278.563 174.842C278.021 175.046 277.528 175.348 277.111 175.73C276.694 176.112 276.362 176.566 276.134 177.068C275.906 177.569 275.786 178.107 275.782 178.652C275.777 179.196 275.887 179.736 276.107 180.241C276.326 180.746 276.65 181.205 277.061 181.593C277.471 181.982 277.959 182.291 278.498 182.503C279.036 182.715 279.614 182.827 280.199 182.831C281.36 182.934 282.529 182.934 283.69 182.831C284.275 182.783 284.844 182.629 285.364 182.376C285.885 182.123 286.347 181.778 286.724 181.359C287.101 180.94 287.386 180.456 287.562 179.935C287.738 179.413 287.802 178.865 287.751 178.32C287.699 177.776 287.533 177.246 287.262 176.761C286.991 176.277 286.619 175.846 286.17 175.495C285.72 175.144 285.2 174.879 284.64 174.715C284.08 174.551 283.491 174.491 282.906 174.539C282.255 174.601 281.598 174.601 280.947 174.539C280.71 174.521 280.472 174.521 280.234 174.539H280.27ZM208.953 176.098C208.012 176.095 207.095 176.37 206.332 176.883C205.57 177.397 205.001 178.121 204.709 178.954C204.416 179.786 204.414 180.684 204.703 181.517C204.992 182.351 205.557 183.078 206.317 183.594C212.112 187.611 216.961 192.691 220.566 198.521C224.188 204.349 226.492 210.806 227.334 217.494C227.38 218.059 227.55 218.61 227.834 219.112C228.118 219.614 228.509 220.057 228.984 220.412C229.459 220.768 230.007 221.029 230.594 221.179C231.182 221.329 231.796 221.366 232.399 221.286C233.002 221.207 233.582 221.013 234.101 220.716C234.621 220.42 235.069 220.027 235.419 219.563C235.769 219.099 236.013 218.573 236.136 218.017C236.259 217.461 236.258 216.888 236.133 216.333C235.148 208.584 232.482 201.102 228.296 194.341C224.1 187.598 218.477 181.719 211.767 177.06C210.969 176.436 209.959 176.095 208.917 176.098H208.953ZM276.316 187.376C275.202 187.369 274.125 187.753 273.3 188.449C272.474 189.146 271.959 190.106 271.856 191.139C271.753 192.172 272.07 193.204 272.744 194.03C273.418 194.856 274.4 195.417 275.497 195.602C279.73 196.38 284.087 196.38 288.321 195.602C288.909 195.519 289.474 195.328 289.982 195.039C290.49 194.75 290.93 194.369 291.277 193.918C291.624 193.468 291.87 192.958 292.002 192.417C292.133 191.877 292.147 191.317 292.042 190.772C291.937 190.226 291.716 189.706 291.392 189.241C291.067 188.777 290.646 188.377 290.153 188.067C289.66 187.756 289.105 187.541 288.521 187.434C287.937 187.327 287.336 187.329 286.753 187.442C283.58 188.044 280.309 188.044 277.135 187.442C276.866 187.385 276.592 187.352 276.316 187.342V187.376ZM204.001 189.498C203.104 189.496 202.226 189.746 201.484 190.216C200.742 190.686 200.169 191.354 199.842 192.132C199.514 192.911 199.447 193.763 199.649 194.577C199.851 195.392 200.313 196.13 200.973 196.696C203.823 199.151 206.317 202.003 208.24 205.121C210.197 208.274 211.627 211.685 212.48 215.238C212.673 216.052 213.126 216.793 213.779 217.364C214.431 217.935 215.254 218.31 216.139 218.439C217.023 218.567 217.929 218.445 218.738 218.087C219.547 217.729 220.221 217.153 220.673 216.432C221.278 215.437 221.385 214.31 221.136 213.281C220.082 208.973 218.341 204.836 215.971 201.008C213.604 197.192 210.639 193.726 207.172 190.726C206.754 190.342 206.259 190.039 205.715 189.834C205.17 189.629 204.588 189.526 204.001 189.532V189.498ZM268.657 199.35C267.622 199.448 266.657 199.881 265.929 200.573C265.201 201.265 264.756 202.172 264.671 203.137C264.587 204.103 264.868 205.065 265.466 205.858C266.063 206.65 266.941 207.223 267.945 207.477C272.478 208.789 277.197 209.46 281.944 209.467C286.682 209.467 291.384 208.803 295.873 207.477C297.007 207.169 297.963 206.454 298.53 205.49C299.098 204.526 299.232 203.391 298.901 202.335C298.57 201.28 297.803 200.389 296.767 199.861C295.732 199.332 294.513 199.208 293.379 199.516C289.668 200.606 285.8 201.165 281.909 201.174C278.026 201.174 274.143 200.61 270.438 199.516C269.863 199.349 269.257 199.292 268.657 199.35ZM196.449 201.207C195.592 201.21 194.755 201.443 194.037 201.879C193.319 202.314 192.751 202.933 192.401 203.661C192.051 204.39 191.934 205.196 192.065 205.985C192.195 206.773 192.567 207.51 193.136 208.107C195.282 210.367 196.918 213.007 197.945 215.868C198.221 216.619 198.722 217.28 199.389 217.774C200.056 218.267 200.861 218.572 201.708 218.653C202.556 218.733 203.41 218.585 204.17 218.227C204.93 217.869 205.564 217.315 205.996 216.631C206.709 215.537 206.78 214.243 206.352 213.115C204.956 209.294 202.765 205.766 199.905 202.733C199.487 202.256 198.96 201.871 198.362 201.607C197.764 201.343 197.111 201.207 196.449 201.207ZM258.968 210.031C257.942 210.074 256.964 210.446 256.199 211.083C255.434 211.721 254.929 212.585 254.77 213.529C254.611 214.474 254.807 215.44 255.325 216.266C255.843 217.091 256.652 217.724 257.614 218.058C265.3 221.136 273.578 222.727 281.944 222.735C290.323 222.731 298.613 221.14 306.31 218.058C306.853 217.853 307.347 217.551 307.764 217.168C308.182 216.786 308.514 216.33 308.742 215.828C308.97 215.326 309.09 214.787 309.095 214.242C309.099 213.697 308.988 213.156 308.768 212.651C308.549 212.146 308.224 211.686 307.813 211.297C307.402 210.909 306.913 210.599 306.374 210.387C305.835 210.174 305.256 210.063 304.671 210.059C304.085 210.054 303.505 210.158 302.962 210.362C296.33 213.048 289.176 214.437 281.944 214.442C274.749 214.442 267.553 213.049 260.962 210.362C260.333 210.112 259.651 209.998 258.968 210.031ZM186.689 211.059C185.871 211.062 185.069 211.274 184.372 211.673C183.676 212.072 183.11 212.643 182.739 213.321C182.367 214 182.203 214.76 182.265 215.52C182.327 216.279 182.613 217.008 183.091 217.626C183.466 218.127 183.788 218.66 184.052 219.219C184.383 219.922 184.917 220.527 185.595 220.964C186.273 221.402 187.069 221.656 187.893 221.697C188.717 221.738 189.536 221.566 190.261 221.198C190.986 220.831 191.586 220.283 191.996 219.617C192.744 218.356 192.744 216.897 192.139 215.703C191.638 214.725 191.041 213.793 190.358 212.916C189.956 212.351 189.411 211.886 188.772 211.562C188.132 211.238 187.417 211.066 186.689 211.059ZM174.79 218.821C173.66 218.897 172.603 219.371 171.835 220.148C171.067 220.924 170.646 221.944 170.658 223H179.564C179.57 222.427 179.449 221.858 179.208 221.331C178.966 220.803 178.61 220.328 178.162 219.935C177.713 219.543 177.182 219.241 176.602 219.049C176.021 218.857 175.405 218.779 174.79 218.821Z" fill="white"/>
<path d="M28.1307 -7C28.1307 -5.90035 28.5999 -4.84574 29.4349 -4.06817C30.27 -3.2906 31.4026 -2.85376 32.5836 -2.85376C33.7646 -2.85376 34.8972 -3.2906 35.7322 -4.06817C36.5673 -4.84574 37.0365 -5.90035 37.0365 -7H28.1307ZM313.114 -7C313.114 -5.90035 313.584 -4.84574 314.419 -4.06817C315.254 -3.2906 316.386 -2.85376 317.567 -2.85376C318.748 -2.85376 319.881 -3.2906 320.716 -4.06817C321.551 -4.84574 322.02 -5.90035 322.02 -7H313.114ZM211.126 -6.76781C200.199 -6.85244 189.447 -4.20643 179.991 0.894434C170.66 5.93789 162.911 13.1704 157.517 21.8712C152.123 30.5719 149.272 40.4371 149.249 50.4834C149.239 59.4088 151.473 68.2123 155.772 76.1896C160.071 84.1669 166.316 91.0965 174.007 96.4237C174.468 96.7591 174.995 97.0067 175.558 97.1524C176.122 97.2981 176.711 97.339 177.291 97.2728C177.872 97.2066 178.433 97.0345 178.942 96.7665C179.451 96.4984 179.898 96.1396 180.259 95.7106C180.619 95.2815 180.885 94.7906 181.041 94.2658C181.198 93.7411 181.242 93.1928 181.17 92.6522C181.099 92.1116 180.915 91.5894 180.627 91.1154C180.339 90.6413 179.953 90.2246 179.493 89.8892C172.867 85.3385 167.484 79.4008 163.777 72.5556C160.07 65.7104 158.144 58.1495 158.155 50.4834C158.174 41.898 160.608 33.4671 165.214 26.0298C169.82 18.5925 176.438 12.4081 184.409 8.0923C191.534 4.25453 199.529 2.03253 207.748 1.60611C215.966 1.17968 224.177 2.56081 231.716 5.63773C232.579 5.99164 233.54 6.08144 234.461 5.8942C235.382 5.70696 236.215 5.25234 236.841 4.59582C237.467 3.9393 237.853 3.11476 237.944 2.24096C238.034 1.36715 237.824 0.48918 237.344 -0.266512C236.819 -1.09576 236.001 -1.72903 235.029 -2.05769C227.489 -5.08963 219.374 -6.6909 211.162 -6.76781H211.126ZM-3.46686 -6.76781C-11.6943 -6.68483 -19.821 -5.07217 -27.3699 -2.02452C-27.9797 -1.87311 -28.548 -1.60272 -29.0371 -1.23129C-29.5261 -0.859848 -29.9248 -0.395847 -30.2067 0.129955C-30.4886 0.655757 -30.6472 1.23135 -30.672 1.81856C-30.6969 2.40578 -30.5874 2.9912 -30.3508 3.53601C-30.1142 4.08083 -29.7559 4.57259 -29.2998 4.9787C-28.8436 5.3848 -28.2999 5.69597 -27.7047 5.89157C-27.1096 6.08718 -26.4766 6.16274 -25.8477 6.11326C-25.2188 6.06377 -24.6084 5.89038 -24.0569 5.60456C-16.5228 2.53312 -8.31845 1.15492 -0.106647 1.58132C8.10516 2.00771 16.0941 4.22674 23.2147 8.05913C31.192 12.3708 37.8168 18.5533 42.4294 25.9909C47.042 33.4286 49.4814 41.8616 49.5045 50.4502C49.5146 58.1163 47.5886 65.6772 43.8819 72.5224C40.1752 79.3676 34.7918 85.3053 28.1663 89.8561C27.7055 90.1915 27.3202 90.6081 27.0323 91.0822C26.7445 91.5563 26.5597 92.0785 26.4886 92.619C26.4175 93.1596 26.4614 93.7079 26.6178 94.2327C26.7743 94.7574 27.0402 95.2483 27.4004 95.6774C27.7607 96.1065 28.2081 96.4652 28.7172 96.7333C29.2264 97.0013 29.7872 97.1734 30.3677 97.2396C30.9483 97.3058 31.5371 97.2649 32.1007 97.1192C32.6643 96.9736 33.1915 96.726 33.6523 96.3905C41.343 91.0633 47.5878 84.1338 51.8869 76.1565C56.186 68.1792 58.4201 59.3756 58.4102 50.4502C58.3679 40.4208 55.5082 30.5762 50.1151 21.8944C44.722 13.2126 36.9833 5.99572 27.6676 0.960774C18.2192 -4.16328 7.46706 -6.83231 -3.46686 -6.76781ZM304.244 -5.6732C303.517 -5.62381 302.813 -5.40865 302.196 -5.04665C301.578 -4.68465 301.066 -4.18691 300.703 -3.5972C300.341 -3.00749 300.14 -2.3439 300.117 -1.66479C300.095 -0.985677 300.252 -0.311865 300.575 0.297376C302.18 3.58143 304.845 6.31778 308.199 8.12547C311.044 9.64742 314.268 10.4483 317.55 10.4483C320.831 10.4483 324.055 9.64742 326.901 8.12547C330.267 6.32315 332.945 3.58624 334.559 0.297376C335.06 -0.701107 335.114 -1.84391 334.71 -2.87963C334.306 -3.91536 333.477 -4.75916 332.404 -5.22541C331.332 -5.69166 330.105 -5.74217 328.992 -5.36583C327.88 -4.98948 326.974 -4.21711 326.473 -3.21863C325.681 -1.64182 324.422 -0.30799 322.845 0.626456C321.268 1.5609 319.437 2.05722 317.567 2.05722C315.698 2.05722 313.867 1.5609 312.29 0.626456C310.712 -0.30799 309.454 -1.64182 308.662 -3.21863C308.288 -4.003 307.663 -4.6603 306.872 -5.09992C306.081 -5.53954 305.163 -5.73984 304.244 -5.6732ZM260.606 -5.20883C259.983 -5.1708 259.376 -5.01121 258.823 -4.74043C258.271 -4.46964 257.786 -4.09372 257.399 -3.63704C257.013 -3.18037 256.734 -2.65317 256.581 -2.08964C256.428 -1.52612 256.403 -0.93887 256.51 -0.366022C257.609 8.5008 260.924 17.0045 266.188 24.4638C271.453 31.9231 278.52 38.1306 286.825 42.589C296.172 47.5947 306.766 50.2292 317.55 50.2292C328.333 50.2292 338.927 47.5947 348.274 42.589C356.579 38.1306 363.646 31.9231 368.911 24.4638C374.175 17.0045 377.49 8.5008 378.589 -0.366022C378.714 -0.921299 378.715 -1.49449 378.592 -2.05012C378.469 -2.60575 378.225 -3.132 377.875 -3.59632C377.525 -4.06064 377.077 -4.45315 376.557 -4.74955C376.038 -5.04595 375.459 -5.23995 374.856 -5.31954C374.252 -5.39913 373.638 -5.36261 373.051 -5.21226C372.463 -5.0619 371.915 -4.8009 371.44 -4.4454C370.966 -4.0899 370.574 -3.64747 370.29 -3.14548C370.007 -2.6435 369.837 -2.09263 369.791 -1.52697C368.873 6.09157 366.045 13.4025 361.534 19.8156C357.023 26.2287 350.955 31.5641 343.821 35.3911C335.828 39.6691 326.769 41.9204 317.55 41.9204C308.33 41.9204 299.271 39.6691 291.278 35.3911C284.15 31.5603 278.09 26.2231 273.585 19.8103C269.08 13.3975 266.257 6.08851 265.344 -1.52697C265.21 -2.58568 264.642 -3.55546 263.76 -4.23491C262.878 -4.91436 261.748 -5.25127 260.606 -5.17566V-5.20883ZM290.209 -2.75425C289.512 -2.71 288.836 -2.51376 288.236 -2.1814C287.636 -1.84904 287.128 -1.38987 286.753 -0.840978C286.379 -0.292091 286.148 0.33112 286.08 0.978311C286.012 1.6255 286.109 2.27853 286.362 2.88463C288.932 9.91414 294.161 15.8327 301.074 19.5359C306.087 22.2191 311.768 23.6312 317.55 23.6312C323.332 23.6312 329.012 22.2191 334.025 19.5359C340.951 15.8165 346.182 9.87246 348.737 2.81829C348.987 2.29562 349.117 1.73056 349.121 1.15862C349.125 0.586675 349.001 0.0202312 348.758 -0.5051C348.515 -1.03043 348.158 -1.50329 347.71 -1.89394C347.261 -2.28459 346.73 -2.58458 346.151 -2.77506C345.572 -2.96554 344.957 -3.04237 344.344 -3.00074C343.732 -2.95911 343.135 -2.79991 342.591 -2.53316C342.048 -2.2664 341.57 -1.89785 341.187 -1.45069C340.804 -1.00352 340.524 -0.487415 340.366 0.065187C338.503 5.24863 334.663 9.61551 329.572 12.338C325.915 14.2967 321.769 15.3275 317.55 15.3275C313.33 15.3275 309.185 14.2967 305.527 12.338C300.437 9.61551 296.596 5.24863 294.733 0.065187C294.426 -0.810724 293.815 -1.56662 292.996 -2.08317C292.177 -2.59972 291.196 -2.84751 290.209 -2.78742V-2.75425ZM275.532 -2.48889C274.877 -2.44609 274.241 -2.26896 273.668 -1.9702C273.095 -1.67143 272.6 -1.25842 272.219 -0.760753C271.838 -0.263082 271.579 0.306939 271.462 0.908486C271.345 1.51003 271.373 2.12822 271.542 2.71878C272.974 8.63387 275.708 14.2082 279.571 19.0896C283.434 23.9711 288.342 28.0535 293.985 31.079C301.162 34.9142 309.292 36.9322 317.567 36.9322C325.842 36.9322 333.973 34.9142 341.15 31.079C346.793 28.0535 351.701 23.9711 355.564 19.0896C359.427 14.2082 362.16 8.63387 363.592 2.71878C363.876 1.64992 363.691 0.519995 363.08 -0.42242C362.469 -1.36483 361.481 -2.04254 360.333 -2.30646C359.185 -2.57038 357.971 -2.39888 356.959 -1.8297C355.947 -1.26052 355.219 -0.340276 354.936 0.728584C353.789 5.5556 351.575 10.1073 348.435 14.0935C345.295 18.0797 341.297 21.4131 336.697 23.8812C330.872 27.0011 324.27 28.643 317.55 28.643C310.83 28.643 304.227 27.0011 298.402 23.8812C293.806 21.4167 289.81 18.0885 286.67 14.1083C283.53 10.128 281.314 5.58279 280.163 0.761754C279.936 -0.205823 279.343 -1.06555 278.494 -1.66181C277.645 -2.25807 276.594 -2.55146 275.532 -2.48889ZM387.032 3.61436C386.091 3.61189 385.174 3.88692 384.411 4.40001C383.649 4.9131 383.081 5.63787 382.788 6.47037C382.495 7.30287 382.493 8.20031 382.782 9.03397C383.071 9.86762 383.636 10.5946 384.396 11.1108C385.928 12.1722 387.424 13.3 388.813 14.5273V3.94606C388.279 3.71387 387.673 3.58119 387.032 3.58119V3.61436ZM105.611 3.61436C104.542 3.61436 103.545 3.94606 102.761 4.57629C95.0749 9.90019 88.8331 16.8244 84.5342 24.7956C80.2353 32.7667 77.9986 41.5637 78.0029 50.4834C78.0229 60.5265 80.8684 70.3895 86.256 79.09C91.6436 87.7905 99.3853 95.0248 108.71 100.072C117.001 104.542 126.301 107.14 135.865 107.659C145.43 108.177 154.991 106.601 163.783 103.058C164.326 102.853 164.82 102.551 165.237 102.168C165.654 101.786 165.986 101.33 166.215 100.828C166.443 100.326 166.563 99.7873 166.567 99.2421C166.572 98.697 166.461 98.1563 166.241 97.651C166.021 97.1457 165.696 96.6857 165.286 96.2972C164.875 95.9087 164.386 95.5994 163.847 95.3869C163.308 95.1744 162.729 95.0628 162.143 95.0586C161.558 95.0544 160.977 95.1576 160.434 95.3623C152.898 98.4287 144.692 99.8013 136.48 99.3692C128.268 98.937 120.281 96.7122 113.163 92.8745C105.192 88.5587 98.5744 82.3743 93.9682 74.937C89.3621 67.4997 86.9281 59.0688 86.9086 50.4834C86.9041 42.8229 88.8328 35.2686 92.5392 28.4296C96.2457 21.5906 101.626 15.6582 108.247 11.1108C109.009 10.593 109.576 9.86298 109.864 9.02604C110.152 8.18911 110.147 7.28858 109.85 6.45442C109.553 5.62027 108.978 4.89566 108.21 4.38519C107.442 3.87471 106.519 3.60479 105.575 3.61436H105.611ZM-38.6624 3.97923V14.5604C-33.3189 19.141 -29.0557 24.7053 -26.1429 30.9005C-23.2302 37.0957 -21.7313 43.7868 -21.7414 50.5498C-21.7414 64.3153 -28.0467 77.351 -38.6624 86.5391V97.2198C-30.6886 91.9075 -24.1875 84.9041 -19.6966 76.7887C-15.2056 68.6734 -12.8538 59.6791 -12.8357 50.5498C-12.8259 41.6244 -15.0599 32.8209 -19.359 24.8435C-23.6581 16.8662 -29.9029 9.93671 -37.5937 4.60946C-37.9181 4.36478 -38.2778 4.16379 -38.6624 4.0124V3.97923ZM210.592 6.53331C202.336 6.53017 194.226 8.55536 187.08 12.4044C179.92 16.2807 173.975 21.8359 169.838 28.5168C165.7 35.1977 163.515 42.7713 163.498 50.4834C163.491 56.5449 164.832 62.5421 167.438 68.0968C170.044 73.6516 173.857 78.6434 178.638 82.7577C179.26 83.3324 180.051 83.7232 180.911 83.8811C181.772 84.039 182.663 83.9569 183.473 83.6452C184.283 83.3335 184.977 82.806 185.466 82.1289C185.956 81.4517 186.22 80.6551 186.225 79.8388C186.225 78.6115 185.691 77.5169 184.801 76.7871C180.885 73.4454 177.76 69.3804 175.626 64.8515C173.491 60.3226 172.394 55.4292 172.404 50.4834C172.42 44.229 174.194 38.0875 177.55 32.6698C180.906 27.252 185.727 22.7468 191.533 19.6023C196.124 17.1218 201.219 15.5604 206.494 15.0178C211.769 14.4752 217.108 14.9634 222.169 16.4511C223.303 16.759 224.521 16.6349 225.557 16.1062C226.592 15.5774 227.36 14.6873 227.691 13.6317C228.021 12.576 227.888 11.4413 227.32 10.4771C226.752 9.51289 225.796 8.79824 224.663 8.49034C220.107 7.17101 215.363 6.50004 210.592 6.50015V6.53331ZM-2.93252 6.53331C-7.70374 6.53321 -12.4476 7.20418 -17.0036 8.52351C-17.565 8.67597 -18.0886 8.92989 -18.5446 9.27077C-19.0005 9.61166 -19.3799 10.0328 -19.6611 10.5103C-19.9423 10.9877 -20.1197 11.512 -20.1833 12.0532C-20.2468 12.5945 -20.1953 13.1421 -20.0315 13.6648C-19.8678 14.1876 -19.5951 14.6751 -19.229 15.0997C-18.8629 15.5243 -18.4106 15.8776 -17.8979 16.1394C-17.3851 16.4012 -16.8221 16.5664 -16.2408 16.6256C-15.6595 16.6847 -15.0713 16.6367 -14.51 16.4843C-9.4514 14.9916 -4.11404 14.4979 1.16105 15.0348C6.43613 15.5717 11.5329 17.1273 16.1258 19.6023C21.9372 22.7496 26.7615 27.2601 30.1178 32.6842C33.4742 38.1082 35.2455 44.2566 35.2553 50.5166C35.2602 55.4568 34.1605 60.3438 32.0262 64.8667C29.8919 69.3896 26.7698 73.4492 22.8585 76.7871C22.4015 77.1553 22.0297 77.6063 21.7658 78.1126C21.502 78.6189 21.3516 79.1699 21.3238 79.7321C21.296 80.2942 21.3914 80.8558 21.6042 81.3825C21.817 81.9092 22.1427 82.3901 22.5615 82.7958C22.9803 83.2016 23.4834 83.5237 24.0402 83.7426C24.597 83.9614 25.1958 84.0724 25.8002 84.0689C26.4046 84.0653 27.0018 83.9472 27.5556 83.7218C28.1094 83.4964 28.608 83.1684 29.0213 82.7577C33.8018 78.6434 37.6151 73.6516 40.2208 68.0968C42.8265 62.5421 44.1681 56.5449 44.161 50.4834C44.1409 42.7681 41.9497 35.1923 37.8058 28.5111C33.6618 21.8299 27.7099 16.2765 20.543 12.4044C13.4216 8.55502 5.33749 6.51874 -2.89689 6.50015L-2.93252 6.53331ZM382.081 17.015C381.186 17.0191 380.313 17.2741 379.577 17.7467C378.84 18.2193 378.273 18.8875 377.95 19.6644C377.627 20.4413 377.563 21.2907 377.766 22.102C377.969 22.9134 378.43 23.6489 379.088 24.2129C383.364 27.882 386.689 32.4074 388.813 37.4477V21.6588C387.693 20.4612 386.503 19.3208 385.251 18.2423C384.836 17.8525 384.342 17.5433 383.798 17.3327C383.254 17.122 382.67 17.014 382.081 17.015ZM110.527 17.015C109.315 17.015 108.176 17.4794 107.392 18.2423C102.616 22.3528 98.805 27.3393 96.1994 32.888C93.5939 38.4367 92.2499 44.4275 92.2521 50.4834C92.2623 58.2012 94.4452 65.7816 98.583 72.4688C102.721 79.156 108.669 84.7165 115.834 88.5956C121.467 91.6347 127.715 93.5518 134.184 94.2256C140.654 94.8993 147.203 94.315 153.417 92.5097C154.277 92.3029 155.051 91.8611 155.64 91.2412C156.228 90.6214 156.604 89.8517 156.719 89.0313C156.834 88.2109 156.683 87.3772 156.285 86.6375C155.887 85.8979 155.26 85.286 154.485 84.8806C153.949 84.5988 153.355 84.4238 152.742 84.3667C152.128 84.3096 151.509 84.3717 150.923 84.5489C145.862 86.0366 140.523 86.5248 135.248 85.9822C129.973 85.4396 124.878 83.8782 120.287 81.3978C114.476 78.2504 109.652 73.7399 106.295 68.3158C102.939 62.8918 101.168 56.7434 101.158 50.4834C101.153 45.5432 102.253 40.6562 104.387 36.1333C106.521 31.6104 109.643 27.5508 113.555 24.2129C114.215 23.647 114.677 22.9084 114.879 22.094C115.081 21.2795 115.014 20.4273 114.686 19.649C114.359 18.8707 113.786 18.2027 113.044 17.7327C112.302 17.2626 111.424 17.0125 110.527 17.015ZM211.34 19.8013C205.343 19.6896 199.429 21.1123 194.241 23.9143C189.241 26.6177 185.087 30.4925 182.194 35.1536C179.3 39.8147 177.767 45.0997 177.747 50.4834C177.747 58.2452 180.811 65.3435 185.905 70.717C186.273 71.1623 186.734 71.5333 187.261 71.8074C187.788 72.0815 188.369 72.2531 188.969 72.3116C189.57 72.3701 190.176 72.3145 190.753 72.148C191.329 71.9815 191.863 71.7076 192.322 71.343C192.782 70.9784 193.156 70.5307 193.424 70.0271C193.692 69.5235 193.847 68.9744 193.88 68.4133C193.912 67.8522 193.822 67.2908 193.615 66.763C193.408 66.2353 193.087 65.7524 192.673 65.3435C188.765 61.2497 186.61 55.9608 186.617 50.4834C186.617 42.5226 191.248 35.0926 198.658 31.1122C203.746 28.3616 209.745 27.4524 215.508 28.5581C216.083 28.6561 216.673 28.6477 217.245 28.5332C217.817 28.4187 218.359 28.2004 218.841 27.8909C219.322 27.5813 219.733 27.1865 220.05 26.729C220.368 26.2716 220.585 25.7603 220.691 25.2245C220.796 24.6888 220.787 24.1389 220.664 23.6064C220.541 23.0739 220.307 22.5692 219.974 22.121C219.642 21.6729 219.218 21.2901 218.726 20.9945C218.235 20.6989 217.686 20.4963 217.111 20.3983C215.21 20.0402 213.279 19.8404 211.34 19.8013ZM-3.71622 19.8013C-5.63986 19.8344 -7.5635 20.0335 -9.45152 20.3983C-10.0269 20.4963 -10.576 20.6989 -11.0673 20.9945C-11.5586 21.2901 -11.9826 21.6729 -12.315 22.121C-12.6475 22.5692 -12.8819 23.0739 -13.0048 23.6064C-13.1278 24.1389 -13.1369 24.6888 -13.0316 25.2245C-12.9264 25.7603 -12.7088 26.2716 -12.3914 26.729C-12.0739 27.1865 -11.6628 27.5813 -11.1815 27.8909C-10.7002 28.2004 -10.1582 28.4187 -9.58627 28.5332C-9.01439 28.6477 -8.42389 28.6561 -7.84849 28.5581C-2.09707 27.4609 3.88685 28.3698 8.96556 31.1122C12.6192 33.0841 15.6538 35.9136 17.7665 39.3184C19.8792 42.7232 20.9962 46.5843 21.0061 50.5166C21.0061 56.1886 18.7262 61.3963 14.9502 65.3767C14.3813 65.9733 14.0093 66.71 13.8788 67.4985C13.7483 68.287 13.865 69.0939 14.2147 69.8222C14.5644 70.5506 15.1324 71.1695 15.8505 71.6047C16.5686 72.04 17.4063 72.2731 18.2631 72.276C19.6881 72.276 20.9349 71.679 21.7186 70.717C27.0048 65.1266 29.9181 57.932 29.9119 50.4834C29.8917 45.0997 28.3586 39.8147 25.4652 35.1536C22.5717 30.4925 18.4185 26.6177 13.4184 23.9143C8.23032 21.1123 2.31589 19.6896 -3.6806 19.8013H-3.71622ZM-38.6624 21.6588V37.3813C-35.0834 45.7982 -35.0834 55.1686 -38.6624 63.5855L-38.6624 79.3412C-31.2045 71.3298 -27.0946 61.0856 -27.0849 50.4834C-27.0797 39.8987 -31.1926 29.6706 -38.6624 21.692V21.6588ZM374.493 28.724C373.636 28.7269 372.798 28.96 372.08 29.3953C371.362 29.8305 370.794 30.4495 370.444 31.1778C370.095 31.9061 369.978 32.713 370.108 33.5015C370.239 34.29 370.611 35.0268 371.18 35.6233C375.088 39.7171 377.243 45.006 377.236 50.4834C377.236 58.4442 372.605 65.9074 365.195 69.8878C360.117 72.6302 354.133 73.5392 348.381 72.4419C347.806 72.3417 347.215 72.348 346.642 72.4605C346.069 72.573 345.526 72.7894 345.043 73.0974C344.56 73.4054 344.147 73.799 343.827 74.2556C343.508 74.7123 343.288 75.2231 343.18 75.7589C343.073 76.2947 343.079 76.8449 343.2 77.3783C343.321 77.9116 343.553 78.4175 343.884 78.8672C344.215 79.3169 344.638 79.7016 345.128 79.9992C345.619 80.2968 346.167 80.5015 346.743 80.6017C354.33 81.9948 362.452 80.9334 369.648 77.0857C374.653 74.3794 378.81 70.4994 381.704 65.832C384.597 61.1646 386.128 55.8727 386.142 50.4834C386.142 42.7548 383.042 35.6565 377.948 30.2498C377.534 29.7767 377.013 29.3947 376.422 29.131C375.83 28.8672 375.184 28.7282 374.528 28.724H374.493ZM118.114 28.724C116.725 28.724 115.478 29.321 114.695 30.2498C109.408 35.8402 106.495 43.0349 106.501 50.4834C106.512 55.8695 108.036 61.1592 110.924 65.8263C113.811 70.4934 117.96 74.3753 122.959 77.0857C129.878 80.8207 138.024 82.0712 145.865 80.6017C146.44 80.5037 146.989 80.3011 147.48 80.0055C147.972 79.7099 148.396 79.3271 148.728 78.879C149.061 78.4308 149.295 77.9261 149.418 77.3936C149.541 76.8611 149.55 76.3112 149.445 75.7755C149.339 75.2397 149.122 74.7284 148.804 74.271C148.487 73.8135 148.076 73.4187 147.595 73.1091C147.113 72.7996 146.571 72.5813 145.999 72.4668C145.428 72.3524 144.837 72.3439 144.262 72.4419C138.499 73.5476 132.501 72.6384 127.412 69.8878C123.765 67.9117 120.737 65.0804 118.631 61.6759C116.525 58.2714 115.413 54.4124 115.407 50.4834C115.407 44.8114 117.687 39.6037 121.463 35.6233C122.034 35.0246 122.406 34.2849 122.536 33.4933C122.665 32.7017 122.545 31.8923 122.191 31.1627C121.837 30.4331 121.264 29.8145 120.54 29.3818C119.817 28.949 118.974 28.7206 118.114 28.724ZM211.055 33.0692C207.742 33.0029 204.393 33.7326 201.365 35.3911C198.524 36.9261 196.165 39.127 194.521 41.7748C192.877 44.4226 192.007 47.4251 191.996 50.4834C191.982 54.0941 193.177 57.6191 195.416 60.5671C196.092 61.4732 197.126 62.0923 198.292 62.2883C199.458 62.4842 200.659 62.2409 201.632 61.6119C202.606 60.9829 203.27 60.0197 203.481 58.9342C203.691 57.8488 203.43 56.7299 202.754 55.8238C201.952 54.7876 201.391 53.6065 201.108 52.3563C200.825 51.1062 200.826 49.8148 201.111 48.5651C201.396 47.3154 201.959 46.1351 202.764 45.1002C203.568 44.0652 204.597 43.1985 205.782 42.5558C207.562 41.603 209.619 41.1967 211.66 41.3949C212.248 41.4517 212.841 41.3993 213.407 41.2405C213.972 41.0817 214.498 40.8197 214.954 40.4699C215.409 40.1201 215.786 39.6893 216.061 39.2028C216.336 38.7162 216.504 38.1835 216.556 37.6358C216.608 37.088 216.543 36.5361 216.364 36.0122C216.184 35.4882 215.895 35.0027 215.512 34.5839C215.129 34.1651 214.661 33.8214 214.134 33.5727C213.608 33.3241 213.033 33.1755 212.444 33.1356C211.97 33.1001 211.495 33.078 211.019 33.0692H211.055ZM-3.39561 33.0692L-4.82053 33.1356C-5.40529 33.1835 -5.97419 33.3382 -6.49475 33.5908C-7.0153 33.8434 -7.47732 34.1891 -7.85442 34.608C-8.61601 35.454 -8.98548 36.547 -8.88155 37.6467C-8.77763 38.7463 -8.20882 39.7625 -7.30025 40.4716C-6.39169 41.1808 -5.2178 41.5248 -4.03683 41.428C-2.16853 41.2732 -0.291664 41.6193 1.3723 42.4254C3.03626 43.2314 4.41788 44.4639 5.35411 45.9773C6.29035 47.4907 6.74215 49.2218 6.65617 50.9665C6.5702 52.7112 5.95005 54.3966 4.86892 55.8238C4.53443 56.2724 4.29813 56.778 4.1735 57.3117C4.04887 57.8454 4.03836 58.3968 4.14256 58.9342C4.353 60.0197 5.01791 60.9829 5.99104 61.6119C6.96416 62.2409 8.16578 62.4842 9.33154 62.2883C10.4973 62.0923 11.5317 61.4732 12.2072 60.5671C14.459 57.6231 15.6671 54.0977 15.6627 50.4834C15.6532 47.4333 14.7867 44.4385 13.1494 41.7967C11.5121 39.1549 9.16092 36.958 6.32946 35.4243C3.38811 33.8406 0.0369835 33.0376 -3.35999 33.1024L-3.39561 33.0692ZM364.732 38.5754C363.914 38.5783 363.113 38.7909 362.416 39.19C361.719 39.589 361.154 40.1591 360.782 40.8376C360.411 41.5161 360.247 42.2769 360.309 43.0364C360.371 43.7959 360.657 44.5248 361.134 45.1431C361.937 46.1792 362.498 47.3604 362.781 48.6105C363.064 49.8606 363.063 51.1521 362.777 52.4018C362.492 53.6515 361.929 54.8317 361.125 55.8667C360.32 56.9016 359.292 57.7683 358.106 58.411C356.317 59.3708 354.246 59.7772 352.193 59.572C351.608 59.5262 351.019 59.5882 350.46 59.7543C349.901 59.9204 349.383 60.1874 348.935 60.5401C348.029 61.2524 347.465 62.2703 347.366 63.3699C347.267 64.4696 347.641 65.5609 348.406 66.4038C349.171 67.2467 350.264 67.7721 351.445 67.8644C355.185 68.163 359.032 67.4664 362.524 65.5757C365.364 64.0408 367.724 61.8399 369.368 59.192C371.012 56.5442 371.882 53.5417 371.892 50.4834C371.897 46.8691 370.689 43.3437 368.437 40.3998C368.028 39.8359 367.476 39.3746 366.829 39.0564C366.183 38.7382 365.463 38.573 364.732 38.5754ZM127.875 38.5754C126.343 38.5754 125.025 39.3052 124.17 40.3998C121.931 43.3477 120.736 46.8727 120.75 50.4834C120.75 56.6862 124.313 62.4909 130.084 65.5757C133.444 67.3901 137.331 68.1789 141.198 67.8313C141.787 67.7914 142.362 67.6428 142.888 67.3941C143.415 67.1455 143.883 66.8017 144.266 66.3829C144.649 65.9641 144.938 65.4786 145.118 64.9547C145.297 64.4307 145.362 63.8788 145.31 63.3311C145.258 62.7833 145.09 62.2506 144.815 61.7641C144.54 61.2775 144.163 60.8468 143.708 60.4969C143.252 60.1471 142.726 59.8852 142.161 59.7264C141.595 59.5676 141.002 59.5151 140.414 59.572C138.546 59.7268 136.669 59.3807 135.005 58.5746C133.341 57.7686 131.96 56.5361 131.023 55.0227C130.087 53.5093 129.635 51.7782 129.721 50.0335C129.807 48.2888 130.427 46.6034 131.509 45.1762C131.998 44.5556 132.293 43.8203 132.359 43.0527C132.425 42.2851 132.26 41.5155 131.883 40.8302C131.505 40.1449 130.931 39.571 130.223 39.1727C129.515 38.7745 128.702 38.5676 127.875 38.5754ZM139.452 46.3372C138.272 46.3372 137.139 46.774 136.304 47.5516C135.469 48.3292 135 49.3838 135 50.4834C135 51.5831 135.469 52.6377 136.304 53.4153C137.139 54.1928 138.272 54.6297 139.452 54.6297C140.633 54.6297 141.766 54.1928 142.601 53.4153C143.436 52.6377 143.905 51.5831 143.905 50.4834C143.905 49.3838 143.436 48.3292 142.601 47.5516C141.766 46.774 140.633 46.3372 139.452 46.3372ZM210.698 46.3372C209.517 46.3372 208.385 46.774 207.55 47.5516C206.715 48.3292 206.246 49.3838 206.246 50.4834C206.246 51.5831 206.715 52.6377 207.55 53.4153C208.385 54.1928 209.517 54.6297 210.698 54.6297C211.879 54.6297 213.012 54.1928 213.847 53.4153C214.682 52.6377 215.151 51.5831 215.151 50.4834C215.151 49.3838 214.682 48.3292 213.847 47.5516C213.012 46.774 211.879 46.3372 210.698 46.3372ZM-3.35999 46.3372C-3.94475 46.3764 -4.51549 46.5225 -5.03963 46.767C-5.56376 47.0116 -6.03103 47.3499 -6.41475 47.7627C-6.79846 48.1754 -7.09111 48.6545 -7.27599 49.1725C-7.46087 49.6906 -7.53436 50.2375 -7.49226 50.7819C-7.45015 51.3264 -7.29329 51.8579 -7.03061 52.3459C-6.76793 52.834 -6.4046 53.2691 -5.96134 53.6263C-5.51808 53.9836 -5.00358 54.2561 -4.44722 54.4283C-3.89087 54.6004 -3.30354 54.6689 -2.71878 54.6297C-1.5378 54.5505 -0.438972 54.0377 0.335976 53.2042C1.11092 52.3706 1.49852 51.2845 1.41349 50.1849C1.32846 49.0852 0.777767 48.0621 -0.117432 47.3405C-1.01263 46.6189 -2.17902 46.258 -3.35999 46.3372ZM353.511 46.3372C352.926 46.298 352.339 46.3664 351.782 46.5386C351.226 46.7107 350.712 46.9832 350.268 47.3405C349.825 47.6978 349.462 48.1329 349.199 48.6209C348.936 49.109 348.78 49.6404 348.737 50.1849C348.695 50.7294 348.769 51.2763 348.954 51.7943C349.139 52.3124 349.431 52.7914 349.815 53.2042C350.199 53.6169 350.666 53.9552 351.19 54.1998C351.714 54.4444 352.285 54.5905 352.87 54.6297C354.051 54.7088 355.217 54.3479 356.112 53.6263C357.007 52.9048 357.558 51.8816 357.643 50.7819C357.728 49.6823 357.341 48.5962 356.566 47.7627C355.791 46.9291 354.692 46.4164 353.511 46.3372ZM246.321 50.7488C231.256 50.7373 216.711 55.8857 205.459 65.2136C194.206 74.5416 187.031 87.3974 185.299 101.333C185.15 102.112 185.243 102.915 185.567 103.647C185.892 104.378 186.435 105.008 187.132 105.461C187.828 105.915 188.65 106.173 189.5 106.206C190.349 106.238 191.191 106.044 191.925 105.645C192.527 105.315 193.038 104.858 193.415 104.311C193.793 103.763 194.027 103.141 194.098 102.494C195.011 94.8783 197.834 87.5694 202.339 81.1565C206.844 74.7437 212.904 69.4066 220.032 65.5757C228.025 61.2978 237.084 59.0465 246.304 59.0465C255.523 59.0465 264.582 61.2978 272.576 65.5757C279.703 69.4066 285.763 74.7437 290.268 81.1565C294.773 87.5694 297.596 94.8783 298.509 102.494C298.674 103.585 299.298 104.57 300.244 105.232C301.189 105.895 302.378 106.18 303.55 106.026C304.721 105.872 305.779 105.291 306.491 104.411C307.202 103.531 307.509 102.424 307.344 101.333C305.612 87.3974 298.437 74.5416 287.184 65.2136C275.931 55.8857 261.387 50.7373 246.321 50.7488ZM388.813 63.5192C385.641 71.0417 379.828 77.3431 372.32 81.3978C367.727 83.8727 362.63 85.4283 357.355 85.9652C352.08 86.5021 346.743 86.0084 341.684 84.5157C340.829 84.2707 339.914 84.2712 339.06 84.5173C338.205 84.7633 337.449 85.2434 336.892 85.895C336.334 86.5466 336 87.3395 335.934 88.1703C335.867 89.0011 336.071 89.8313 336.519 90.5526C336.809 91.0292 337.197 91.4475 337.662 91.7834C338.127 92.1193 338.658 92.3662 339.226 92.5097C347.974 95.0469 357.327 95.1491 366.137 92.8038C374.946 90.4584 382.828 85.7677 388.813 79.3081V63.5192ZM246.321 64.0167C235.613 64.0001 225.219 67.3821 216.852 73.605C208.485 79.8279 202.646 88.52 200.297 98.2481C200.076 99.0377 200.11 99.8704 200.396 100.642C200.681 101.413 201.204 102.089 201.9 102.585C202.596 103.081 203.434 103.375 204.308 103.429C205.183 103.484 206.055 103.297 206.816 102.892C207.349 102.61 207.814 102.229 208.182 101.773C208.549 101.316 208.812 100.794 208.953 100.238C210.099 95.4112 212.313 90.8596 215.454 86.8733C218.594 82.8871 222.592 79.5537 227.192 77.0857C233.013 73.9719 239.608 72.3333 246.321 72.3333C253.034 72.3333 259.63 73.9719 265.451 77.0857C270.051 79.5537 274.049 82.8871 277.189 86.8733C280.329 90.8596 282.543 95.4112 283.69 100.238C283.888 101.05 284.345 101.788 285 102.355C285.655 102.922 286.478 103.292 287.362 103.417C288.246 103.543 289.15 103.417 289.957 103.057C290.763 102.697 291.434 102.119 291.883 101.399C292.524 100.404 292.631 99.2763 292.346 98.2481C290.004 88.5139 284.168 79.8142 275.8 73.5848C267.433 67.3554 257.035 63.9687 246.321 63.9836V64.0167ZM246.321 77.2847C239.431 77.2699 232.709 79.2735 227.109 83.0118C221.509 86.7502 217.313 92.034 215.116 98.1154C214.919 98.6294 214.833 99.1744 214.863 99.7193C214.893 100.264 215.037 100.798 215.289 101.291C215.54 101.784 215.894 102.226 216.328 102.591C216.763 102.957 217.271 103.24 217.823 103.423C218.375 103.606 218.96 103.685 219.546 103.658C220.131 103.63 220.704 103.495 221.234 103.261C221.763 103.027 222.237 102.698 222.63 102.293C223.023 101.889 223.326 101.416 223.523 100.902C225.369 95.7113 229.197 91.3324 234.281 88.5956C237.939 86.637 242.084 85.6062 246.304 85.6062C250.523 85.6062 254.669 86.637 258.326 88.5956C263.417 91.3182 267.257 95.685 269.12 100.868C269.512 101.907 270.331 102.757 271.397 103.233C272.462 103.709 273.687 103.771 274.802 103.406C275.917 103.041 276.83 102.278 277.341 101.286C277.852 100.294 277.919 99.1535 277.527 98.1154C275.336 92.0278 271.143 86.7368 265.542 82.9921C259.941 79.2474 253.217 77.239 246.321 77.2515V77.2847ZM388.813 86.4727C381.325 92.9246 371.977 97.2021 361.916 98.7811C351.856 100.36 341.519 99.172 332.173 95.3623C331.314 95.0166 330.36 94.9314 329.447 95.1189C328.533 95.3064 327.706 95.757 327.083 96.4068C326.461 97.0566 326.073 97.8726 325.976 98.739C325.88 99.6053 326.078 100.478 326.544 101.233C327.063 102.075 327.882 102.721 328.86 103.058C338.553 106.966 349.166 108.476 359.67 107.442C370.174 106.407 380.213 102.863 388.813 97.1535V86.4727ZM246.321 90.5858C242.747 90.5838 239.247 91.5356 236.235 93.3286C233.224 95.1216 230.827 97.6806 229.329 100.703C229.079 101.195 228.935 101.728 228.906 102.272C228.877 102.816 228.964 103.36 229.161 103.873C229.357 104.386 229.661 104.857 230.053 105.261C230.446 105.665 230.92 105.992 231.449 106.225C231.977 106.458 232.55 106.592 233.134 106.619C233.719 106.646 234.303 106.566 234.853 106.382C235.404 106.199 235.911 105.917 236.344 105.551C236.778 105.186 237.13 104.744 237.38 104.252C238.199 102.56 239.589 101.067 241.405 100.072C242.595 99.4366 243.915 99.0397 245.28 98.9073C246.644 98.7749 248.023 98.9098 249.328 99.3035C250.634 99.6971 251.836 100.341 252.858 101.193C253.88 102.045 254.699 103.087 255.263 104.252C255.604 104.944 256.144 105.535 256.822 105.96C257.5 106.385 258.291 106.628 259.108 106.662C259.925 106.696 260.736 106.521 261.453 106.154C262.17 105.787 262.764 105.244 263.171 104.584C263.919 103.356 263.955 101.93 263.314 100.703C261.823 97.6756 259.428 95.112 256.415 93.3181C253.402 91.5241 249.898 90.5756 246.321 90.5858ZM104.15 103.854C103.565 103.815 102.978 103.883 102.422 104.055C101.865 104.227 101.351 104.5 100.908 104.857C100.464 105.214 100.101 105.649 99.8383 106.138C99.5756 106.626 99.4187 107.157 99.3766 107.701C99.3345 108.246 99.4081 108.793 99.5929 109.311C99.7778 109.829 100.07 110.308 100.454 110.721C100.838 111.133 101.305 111.472 101.829 111.716C102.353 111.961 102.924 112.107 103.509 112.146C104.69 112.225 105.856 111.865 106.751 111.143C107.647 110.421 108.197 109.398 108.282 108.299C108.367 107.199 107.98 106.113 107.205 105.279C106.43 104.446 105.331 103.933 104.15 103.854ZM246.001 103.854C245.396 103.865 244.801 103.99 244.25 104.222C243.699 104.454 243.205 104.789 242.797 105.204C242.39 105.62 242.077 106.109 241.879 106.641C241.681 107.173 241.602 107.737 241.645 108.298C241.689 108.86 241.855 109.407 242.133 109.907C242.411 110.407 242.796 110.849 243.263 111.206C243.731 111.562 244.271 111.827 244.852 111.983C245.433 112.139 246.042 112.183 246.642 112.113C247.823 112.034 248.922 111.521 249.697 110.688C250.472 109.854 250.859 108.768 250.774 107.668C250.689 106.569 250.139 105.546 249.243 104.824C248.348 104.102 247.182 103.741 246.001 103.821V103.854ZM210.235 108.232C202.027 108.287 193.913 109.866 186.368 112.876C185.267 113.285 184.386 114.084 183.919 115.098C183.451 116.112 183.435 117.258 183.874 118.283C184.314 119.308 185.172 120.128 186.261 120.563C187.35 120.999 188.58 121.014 189.681 120.605C197.218 117.538 205.424 116.165 213.635 116.598C221.847 117.03 229.835 119.255 236.953 123.092C244.93 127.404 251.555 133.587 256.167 141.024C260.78 148.462 263.219 156.895 263.242 165.483C263.243 173.147 261.309 180.703 257.596 187.542C253.883 194.381 248.496 200.312 241.869 204.856C240.933 205.538 240.327 206.538 240.183 207.636C240.04 208.734 240.37 209.84 241.103 210.711C241.835 211.581 242.909 212.146 244.088 212.28C245.267 212.413 246.455 212.105 247.39 211.424C255.081 206.096 261.326 199.167 265.625 191.19C269.924 183.212 272.158 174.409 272.148 165.483C272.124 155.437 269.273 145.572 263.879 136.871C258.485 128.17 250.737 120.938 241.405 115.894C231.95 110.794 221.198 108.148 210.271 108.232H210.235ZM-2.57629 108.232C-15.5083 108.125 -28.1434 111.841 -38.6624 118.847V129.527C-31.1736 123.075 -21.8262 118.798 -11.7656 117.219C-1.70491 115.64 8.63191 116.828 17.9782 120.638C18.8409 120.992 19.8021 121.081 20.7231 120.894C21.6442 120.707 22.4777 120.252 23.1035 119.596C23.7294 118.939 24.1153 118.115 24.2057 117.241C24.2961 116.367 24.0863 115.489 23.6066 114.733C23.0838 113.902 22.2644 113.269 21.2911 112.942C13.7507 109.91 5.63669 108.309 -2.57629 108.232ZM90.5065 109.294C89.7788 109.343 89.0752 109.558 88.4578 109.92C87.8403 110.282 87.3278 110.78 86.9654 111.37C86.603 111.959 86.4018 112.623 86.3795 113.302C86.3571 113.981 86.5144 114.655 86.8374 115.264C88.4497 118.554 91.128 121.292 94.4963 123.092C97.3375 124.608 100.555 125.406 103.83 125.406C107.104 125.406 110.322 124.608 113.163 123.092C116.531 121.292 119.209 118.554 120.822 115.264C121.108 114.768 121.283 114.222 121.336 113.661C121.389 113.099 121.318 112.534 121.128 111.998C120.938 111.463 120.632 110.97 120.231 110.548C119.829 110.127 119.339 109.786 118.791 109.546C118.243 109.307 117.648 109.174 117.043 109.156C116.438 109.138 115.835 109.235 115.272 109.441C114.709 109.647 114.196 109.958 113.766 110.355C113.336 110.751 112.997 111.226 112.771 111.748C111.983 113.334 110.724 114.677 109.143 115.618C107.562 116.56 105.724 117.06 103.847 117.06C101.971 117.06 100.133 116.56 98.5518 115.618C96.9706 114.677 95.7117 113.334 94.9238 111.748C94.5507 110.964 93.9254 110.307 93.1343 109.867C92.3432 109.427 91.4251 109.227 90.5065 109.294ZM46.8684 109.791C46.2485 109.834 45.645 109.996 45.0968 110.269C44.5486 110.542 44.0677 110.918 43.6852 111.375C43.3027 111.831 43.0269 112.356 42.8758 112.918C42.7246 113.479 42.7013 114.064 42.8074 114.634C43.906 123.497 47.2165 131.998 52.4742 139.456C57.7319 146.915 64.791 153.125 73.0869 157.589C82.4385 162.601 93.0395 165.239 103.83 165.239C114.62 165.239 125.221 162.601 134.572 157.589C142.868 153.125 149.927 146.915 155.185 139.456C160.443 131.998 163.753 123.497 164.852 114.634C164.976 114.079 164.977 113.506 164.854 112.95C164.732 112.394 164.488 111.868 164.138 111.404C163.788 110.939 163.339 110.547 162.82 110.25C162.3 109.954 161.721 109.76 161.118 109.68C160.515 109.601 159.9 109.637 159.313 109.788C158.725 109.938 158.177 110.199 157.702 110.555C157.228 110.91 156.836 111.353 156.553 111.855C156.269 112.357 156.099 112.907 156.053 113.473C155.139 121.089 152.317 128.397 147.812 134.81C143.307 141.223 137.247 146.56 130.119 150.391C122.563 154.468 114.034 156.725 105.305 156.959C96.5752 157.193 87.921 155.396 80.1255 151.73C72.3301 148.065 65.6396 142.646 60.6599 135.966C55.6801 129.286 52.5683 121.555 51.6062 113.473C51.4717 112.414 50.9044 111.445 50.0222 110.765C49.1399 110.086 48.0104 109.749 46.8684 109.824V109.791ZM76.5067 112.246C75.8069 112.285 75.1269 112.478 74.5221 112.808C73.9173 113.138 73.4049 113.597 73.0265 114.146C72.648 114.696 72.4143 115.321 72.3443 115.971C72.2744 116.62 72.3701 117.276 72.6238 117.885C75.188 124.944 80.4324 130.889 87.3717 134.602C92.3802 137.279 98.0545 138.688 103.83 138.688C109.605 138.688 115.279 137.279 120.287 134.602C127.227 130.889 132.471 124.944 135.035 117.885C135.232 117.371 135.318 116.826 135.288 116.281C135.258 115.736 135.113 115.202 134.862 114.709C134.611 114.216 134.257 113.774 133.823 113.409C133.388 113.043 132.88 112.76 132.328 112.577C131.776 112.394 131.191 112.315 130.605 112.342C130.02 112.37 129.447 112.505 128.917 112.739C128.388 112.973 127.914 113.302 127.521 113.707C127.128 114.111 126.825 114.584 126.628 115.098C124.774 120.276 120.947 124.643 115.87 127.371C112.208 129.336 108.056 130.37 103.83 130.37C99.6031 130.37 95.4509 129.336 91.789 127.371C86.7121 124.643 82.8849 120.276 81.0308 115.098C80.7242 114.222 80.1131 113.467 79.2939 112.95C78.4746 112.433 77.494 112.186 76.5067 112.246ZM61.7944 112.511C61.1355 112.553 60.4949 112.731 59.9189 113.031C59.3428 113.332 58.8459 113.748 58.464 114.25C58.0821 114.752 57.8248 115.326 57.7107 115.932C57.5967 116.538 57.6288 117.159 57.8046 117.752C59.2409 123.661 61.9766 129.229 65.8393 134.104C69.7019 138.98 74.6077 143.057 80.2471 146.079C87.4284 149.92 95.5655 151.942 103.847 151.942C112.129 151.942 120.266 149.92 127.448 146.079C133.084 143.05 137.985 138.966 141.842 134.085C145.699 129.204 148.427 123.631 149.854 117.719C150.075 116.929 150.041 116.096 149.755 115.325C149.47 114.553 148.947 113.877 148.251 113.382C147.555 112.886 146.717 112.592 145.843 112.538C144.968 112.483 144.096 112.67 143.335 113.075C142.802 113.357 142.337 113.738 141.969 114.194C141.602 114.651 141.339 115.173 141.198 115.729C140.051 120.556 137.838 125.107 134.697 129.094C131.557 133.08 127.559 136.413 122.959 138.881C117.138 141.995 110.543 143.634 103.83 143.634C97.1165 143.634 90.5208 141.995 84.7 138.881C80.1035 136.417 76.1082 133.089 72.9682 129.108C69.8281 125.128 67.6121 120.583 66.461 115.762C66.2326 114.788 65.6351 113.924 64.7782 113.327C63.9212 112.73 62.862 112.44 61.7944 112.511ZM319.348 118.581C318.28 118.581 317.282 118.946 316.499 119.543C308.813 124.867 302.571 131.791 298.272 139.762C293.973 147.734 291.736 156.531 291.741 165.45C291.761 175.493 294.606 185.356 299.994 194.057C305.381 202.757 313.123 209.992 322.448 215.039C330.739 219.509 340.039 222.107 349.603 222.626C359.167 223.144 368.729 221.568 377.521 218.025C378.075 217.83 378.582 217.534 379.013 217.155C379.443 216.775 379.787 216.32 380.026 215.815C380.265 215.31 380.393 214.765 380.402 214.214C380.412 213.662 380.304 213.114 380.083 212.602C379.863 212.09 379.535 211.624 379.119 211.231C378.702 210.839 378.206 210.527 377.659 210.316C377.111 210.104 376.524 209.996 375.932 209.999C375.339 210.001 374.753 210.113 374.208 210.329C366.669 213.406 358.458 214.787 350.239 214.361C342.021 213.934 334.026 211.712 326.901 207.875C318.925 203.556 312.304 197.366 307.697 189.923C303.091 182.479 300.66 174.041 300.646 165.45C300.642 157.79 302.571 150.235 306.277 143.396C309.984 136.557 315.364 130.625 321.985 126.078C322.745 125.561 323.31 124.834 323.599 124.001C323.888 123.167 323.886 122.27 323.593 121.437C323.3 120.605 322.732 119.88 321.969 119.367C321.207 118.854 320.289 118.579 319.348 118.581ZM173.294 118.581C172.344 118.569 171.414 118.84 170.641 119.354C169.868 119.869 169.293 120.601 168.998 121.442C168.703 122.283 168.706 123.19 169.004 124.03C169.303 124.87 169.883 125.599 170.658 126.111C177.279 130.658 182.659 136.591 186.366 143.43C190.072 150.269 192.001 157.823 191.996 165.483C191.973 174.072 189.534 182.505 184.921 189.943C180.309 197.38 173.684 203.563 165.707 207.875C158.589 211.712 150.601 213.937 142.389 214.369C134.178 214.801 125.972 213.429 118.435 210.362C117.576 210.017 116.623 209.931 115.709 210.119C114.796 210.306 113.969 210.757 113.346 211.407C112.723 212.057 112.335 212.873 112.239 213.739C112.142 214.605 112.341 215.478 112.807 216.233C113.314 217.071 114.121 217.716 115.086 218.058C123.878 221.601 133.44 223.177 143.004 222.659C152.568 222.14 161.869 219.542 170.159 215.072C179.491 210.029 187.24 202.796 192.634 194.096C198.028 185.395 200.878 175.53 200.902 165.483C200.912 156.558 198.678 147.755 194.379 139.777C190.08 131.8 183.835 124.87 176.144 119.543C175.341 118.931 174.332 118.603 173.294 118.614V118.581ZM388.813 118.813C380.84 124.126 374.338 131.129 369.847 139.244C365.357 147.36 363.005 156.354 362.987 165.483C362.977 174.409 365.211 183.212 369.51 191.19C373.809 199.167 380.054 206.096 387.745 211.424C388.101 211.689 388.457 211.888 388.813 212.021V201.473C383.472 196.891 379.21 191.326 376.297 185.131C373.384 178.937 371.884 172.246 371.892 165.483C371.892 151.751 378.198 138.682 388.813 129.527V118.813ZM210.805 121.467C206.034 121.467 201.29 122.138 196.734 123.457C196.173 123.61 195.649 123.864 195.193 124.204C194.737 124.545 194.358 124.966 194.077 125.444C193.509 126.408 193.376 127.543 193.706 128.599C194.037 129.654 194.804 130.544 195.84 131.073C196.875 131.602 198.094 131.726 199.228 131.418C204.289 129.93 209.628 129.442 214.903 129.985C220.178 130.527 225.273 132.089 229.864 134.569C235.668 137.721 240.486 142.233 243.835 147.657C247.185 153.08 248.951 159.227 248.957 165.483C248.962 170.424 247.863 175.311 245.728 179.834C243.594 184.356 240.472 188.416 236.561 191.754C236.104 192.122 235.732 192.573 235.468 193.079C235.204 193.586 235.054 194.137 235.026 194.699C234.998 195.261 235.094 195.823 235.306 196.349C235.519 196.876 235.845 197.357 236.264 197.763C236.682 198.168 237.186 198.491 237.742 198.709C238.299 198.928 238.898 199.039 239.502 199.036C240.107 199.032 240.704 198.914 241.258 198.689C241.812 198.463 242.31 198.135 242.723 197.725C247.506 193.617 251.323 188.632 253.935 183.083C256.547 177.534 257.896 171.542 257.899 165.483C257.885 157.762 255.697 150.18 251.552 143.492C247.408 136.805 241.453 131.246 234.281 127.371C227.145 123.529 219.048 121.504 210.805 121.5V121.467ZM-3.14625 121.5C-9.88831 121.502 -16.5507 122.857 -22.6796 125.473C-28.8084 128.089 -34.2598 131.904 -38.6624 136.659L-38.6624 152.481C-35.4969 144.946 -29.683 138.632 -22.1689 134.569C-17.5761 132.094 -12.4793 130.539 -7.2042 130.002C-1.9291 129.465 3.40826 129.958 8.46683 131.451C9.03732 131.631 9.64117 131.702 10.2418 131.659C10.8424 131.615 11.4274 131.459 11.9612 131.199C12.4951 130.939 12.9667 130.581 13.3476 130.146C13.7285 129.712 14.0107 129.21 14.1772 128.67C14.3436 128.131 14.3909 127.566 14.316 127.01C14.2412 126.453 14.0458 125.916 13.7418 125.432C13.4377 124.948 13.0313 124.526 12.5471 124.192C12.0629 123.859 11.511 123.62 10.9248 123.49C6.36884 122.171 1.62497 121.5 -3.14625 121.5ZM324.264 131.982C323.053 131.982 321.913 132.446 321.13 133.209C316.354 137.32 312.543 142.306 309.937 147.855C307.332 153.404 305.988 159.394 305.99 165.45C306 173.168 308.183 180.748 312.321 187.436C316.459 194.123 322.407 199.683 329.572 203.562C335.204 206.602 341.453 208.519 347.922 209.192C354.391 209.866 360.94 209.282 367.155 207.477C368.288 207.169 369.244 206.454 369.812 205.49C370.38 204.526 370.513 203.391 370.182 202.335C369.852 201.28 369.084 200.389 368.049 199.861C367.013 199.332 365.795 199.208 364.661 199.516C359.6 201.001 354.261 201.489 348.986 200.946C343.712 200.403 338.616 198.843 334.025 196.365C328.219 193.22 323.398 188.715 320.042 183.297C316.686 177.879 314.912 171.738 314.896 165.483C314.891 160.543 315.99 155.656 318.125 151.133C320.259 146.61 323.381 142.551 327.292 139.213C327.953 138.647 328.415 137.908 328.617 137.094C328.819 136.28 328.751 135.427 328.424 134.649C328.097 133.871 327.524 133.203 326.782 132.733C326.04 132.263 325.162 132.012 324.264 132.015V131.982ZM168.343 131.982C167.44 131.979 166.558 132.231 165.813 132.705C165.068 133.179 164.495 133.853 164.171 134.637C163.846 135.421 163.785 136.279 163.996 137.096C164.207 137.913 164.679 138.651 165.35 139.213C169.262 142.551 172.384 146.61 174.518 151.133C176.652 155.656 177.752 160.543 177.747 165.483C177.731 171.738 175.957 177.879 172.601 183.297C169.245 188.715 164.424 193.22 158.618 196.365C154.027 198.845 148.932 200.406 143.657 200.949C138.382 201.492 133.043 201.003 127.982 199.516C127.421 199.363 126.832 199.315 126.251 199.374C125.67 199.434 125.107 199.599 124.594 199.861C124.081 200.122 123.629 200.476 123.263 200.9C122.897 201.325 122.624 201.812 122.46 202.335C122.297 202.858 122.245 203.406 122.309 203.947C122.372 204.488 122.55 205.012 122.831 205.49C123.112 205.967 123.491 206.388 123.947 206.729C124.403 207.07 124.927 207.324 125.488 207.477C131.697 209.277 138.24 209.859 144.702 209.185C151.165 208.511 157.407 206.597 163.035 203.562C170.202 199.69 176.154 194.137 180.298 187.456C184.442 180.775 186.633 173.199 186.653 165.483C186.66 159.422 185.318 153.425 182.713 147.87C180.107 142.315 176.294 137.323 171.513 133.209C171.104 132.822 170.616 132.514 170.078 132.303C169.54 132.093 168.962 131.983 168.378 131.982H168.343ZM210.022 134.768C208.098 134.801 206.174 135.033 204.286 135.365C203.374 135.497 202.528 135.889 201.866 136.488C201.204 137.086 200.757 137.862 200.589 138.707C200.421 139.552 200.539 140.425 200.927 141.205C201.315 141.985 201.953 142.633 202.754 143.061C203.752 143.591 204.856 143.724 205.889 143.525C211.641 142.428 217.625 143.337 222.703 146.079C226.357 148.051 229.392 150.88 231.504 154.285C233.617 157.69 234.734 161.551 234.744 165.483C234.744 171.189 232.464 176.396 228.688 180.344C228.119 180.94 227.747 181.677 227.617 182.465C227.486 183.254 227.603 184.061 227.953 184.789C228.302 185.517 228.87 186.136 229.588 186.572C230.306 187.007 231.144 187.24 232.001 187.243C233.426 187.243 234.673 186.646 235.456 185.717C240.743 180.127 243.656 172.932 243.65 165.483C243.636 160.094 242.106 154.802 239.212 150.135C236.318 145.467 232.162 141.587 227.156 138.881C221.968 136.079 216.054 134.656 210.057 134.768H210.022ZM-2.36255 134.768C-8.37781 134.67 -14.3059 136.116 -19.4972 138.948C-24.4921 141.648 -28.6419 145.518 -31.5351 150.172C-34.4283 154.827 -35.9642 160.105 -35.9906 165.483C-35.9906 173.245 -32.8914 180.31 -27.7973 185.717C-27.2115 186.371 -26.4234 186.842 -25.5403 187.064C-24.6573 187.286 -23.7221 187.25 -22.8619 186.96C-22.0017 186.67 -21.2583 186.141 -20.7328 185.444C-20.2072 184.746 -19.9251 183.915 -19.9247 183.063C-19.9247 182.068 -20.3165 181.073 -21.029 180.344C-24.9372 176.25 -27.0925 170.961 -27.0849 165.483C-27.0849 157.523 -22.4539 150.059 -15.0443 146.079C-9.96562 143.337 -3.9817 142.428 1.76972 143.525C2.34512 143.623 2.93562 143.614 3.5075 143.5C4.07939 143.386 4.62145 143.167 5.10275 142.858C5.58405 142.548 5.99516 142.153 6.3126 141.696C6.63004 141.238 6.8476 140.727 6.95286 140.191C7.05811 139.656 7.04901 139.106 6.92606 138.573C6.8031 138.041 6.56871 137.536 6.23627 137.088C5.90383 136.64 5.47984 136.257 4.98851 135.961C4.49719 135.666 3.94815 135.463 3.37275 135.365C1.48391 135.007 -0.435497 134.808 -2.36255 134.768ZM388.813 136.659C381.374 144.654 377.266 154.872 377.236 165.45C377.213 176.058 381.327 186.312 388.813 194.308V178.586C385.247 170.178 385.247 160.822 388.813 152.414V136.626V136.659ZM331.852 143.691C330.463 143.691 329.216 144.321 328.397 145.25C323.111 150.84 320.197 158.035 320.203 165.483C320.224 170.867 321.757 176.152 324.65 180.813C327.544 185.474 331.697 189.349 336.697 192.053C343.616 195.788 351.762 197.038 359.602 195.569C360.178 195.471 360.727 195.268 361.218 194.972C361.71 194.677 362.134 194.294 362.466 193.846C362.798 193.398 363.033 192.893 363.156 192.36C363.279 191.828 363.288 191.278 363.183 190.742C363.077 190.207 362.86 189.695 362.542 189.238C362.225 188.78 361.814 188.386 361.332 188.076C360.851 187.766 360.309 187.548 359.737 187.434C359.165 187.319 358.575 187.311 357.999 187.409C352.241 188.524 346.243 187.627 341.15 184.888C337.497 182.909 334.467 180.072 332.36 176.662C330.254 173.251 329.145 169.385 329.145 165.45C329.145 159.778 331.425 154.571 335.201 150.623C335.772 150.025 336.144 149.285 336.273 148.493C336.403 147.702 336.283 146.892 335.929 146.163C335.575 145.433 335.001 144.815 334.278 144.382C333.555 143.949 332.712 143.721 331.852 143.724V143.691ZM160.826 143.724C159.966 143.721 159.124 143.949 158.4 144.382C157.677 144.815 157.104 145.433 156.749 146.163C156.395 146.892 156.276 147.702 156.405 148.493C156.534 149.285 156.907 150.025 157.478 150.623C161.386 154.717 163.541 160.006 163.534 165.483C163.534 173.444 158.903 180.907 151.529 184.888C146.44 187.638 140.442 188.548 134.679 187.442C134.104 187.344 133.513 187.352 132.941 187.467C132.369 187.581 131.827 187.8 131.346 188.109C130.865 188.419 130.454 188.813 130.136 189.271C129.819 189.728 129.601 190.24 129.496 190.775C129.391 191.311 129.4 191.861 129.523 192.394C129.646 192.926 129.88 193.431 130.212 193.879C130.545 194.327 130.969 194.71 131.46 195.006C131.952 195.301 132.501 195.504 133.076 195.602C140.628 196.995 148.75 195.933 155.982 192.086C160.974 189.371 165.116 185.487 167.997 180.821C170.878 176.154 172.397 170.866 172.404 165.483C172.404 157.722 169.305 150.656 164.21 145.25C163.792 144.772 163.265 144.388 162.668 144.124C162.07 143.86 161.417 143.723 160.755 143.724H160.826ZM210.413 148.036C209.915 148.036 209.452 148.069 208.989 148.136C208.393 148.165 207.81 148.306 207.275 148.55C206.739 148.793 206.261 149.134 205.869 149.553C205.478 149.971 205.181 150.459 204.995 150.987C204.81 151.514 204.74 152.071 204.79 152.624C204.84 153.177 205.009 153.716 205.287 154.207C205.565 154.698 205.945 155.132 206.407 155.484C206.868 155.836 207.4 156.098 207.972 156.254C208.544 156.41 209.144 156.458 209.737 156.395C211.611 156.235 213.495 156.579 215.165 157.386C216.835 158.194 218.222 159.43 219.159 160.95C220.097 162.469 220.547 164.207 220.455 165.957C220.364 167.708 219.734 169.397 218.642 170.824C218.31 171.272 218.076 171.778 217.954 172.31C217.831 172.843 217.823 173.393 217.929 173.929C218.034 174.465 218.253 174.977 218.571 175.434C218.889 175.891 219.3 176.286 219.782 176.595C220.264 176.905 220.807 177.122 221.379 177.237C221.951 177.351 222.542 177.359 223.118 177.26C223.693 177.161 224.242 176.958 224.733 176.662C225.225 176.366 225.649 175.983 225.981 175.534C228.225 172.599 229.433 169.086 229.436 165.483C229.436 159.281 225.838 153.476 220.067 150.391C217.126 148.807 213.775 148.004 210.378 148.069L210.413 148.036ZM-2.64753 148.069C-5.96047 148.003 -9.30903 148.766 -12.337 150.391C-15.1869 151.919 -17.5557 154.118 -19.2062 156.767C-20.8567 159.415 -21.7309 162.421 -21.7414 165.483C-21.7459 169.098 -20.5378 172.623 -18.286 175.567C-17.9515 176.016 -17.5254 176.399 -17.032 176.694C-16.5386 176.989 -15.9875 177.191 -15.4103 177.288C-14.8331 177.385 -14.241 177.375 -13.6678 177.259C-13.0947 177.143 -12.5516 176.923 -12.0698 176.612C-11.588 176.3 -11.1767 175.904 -10.8596 175.444C-10.5424 174.985 -10.3255 174.472 -10.2213 173.934C-10.1171 173.397 -10.1276 172.845 -10.2523 172.312C-10.3769 171.778 -10.6132 171.272 -10.9477 170.824C-12.0397 169.397 -12.6689 167.708 -12.7606 165.957C-12.8522 164.207 -12.4025 162.469 -11.4647 160.95C-10.527 159.43 -9.14066 158.194 -7.47037 157.386C-5.80008 156.579 -3.91602 156.235 -2.04194 156.395C-1.45454 156.452 -0.860863 156.399 -0.29546 156.24C0.269943 156.082 0.795776 155.82 1.25142 155.47C1.70707 155.12 2.08343 154.689 2.3586 154.203C2.63377 153.716 2.80224 153.184 2.85422 152.636C2.90619 152.088 2.84063 151.536 2.66135 151.012C2.48206 150.488 2.19264 150.003 1.80993 149.584C1.42722 149.165 0.958851 148.821 0.43211 148.573C-0.0946312 148.324 -0.669228 148.175 -1.25824 148.136C-1.7324 148.1 -2.20758 148.078 -2.68316 148.069H-2.64753ZM341.648 153.575C340.117 153.575 338.799 154.272 337.944 155.4C335.704 158.348 334.509 161.873 334.524 165.483C334.531 168.539 335.396 171.539 337.033 174.186C338.67 176.834 341.023 179.037 343.857 180.576C347.218 182.39 351.105 183.179 354.971 182.831C355.556 182.783 356.125 182.629 356.646 182.376C357.166 182.123 357.628 181.778 358.005 181.359C358.382 180.94 358.667 180.456 358.843 179.935C359.02 179.413 359.084 178.865 359.032 178.32C358.981 177.776 358.815 177.246 358.544 176.761C358.272 176.277 357.901 175.846 357.451 175.495C357.001 175.144 356.482 174.879 355.922 174.715C355.362 174.551 354.772 174.491 354.188 174.539C352.319 174.694 350.443 174.348 348.779 173.541C347.115 172.735 345.733 171.503 344.797 169.99C343.861 168.476 343.409 166.745 343.495 165C343.581 163.256 344.201 161.57 345.282 160.143C345.762 159.522 346.047 158.791 346.108 158.028C346.169 157.266 346.002 156.502 345.626 155.823C345.25 155.143 344.679 154.574 343.977 154.177C343.276 153.78 342.47 153.572 341.648 153.575ZM151.066 153.575C150.245 153.572 149.438 153.78 148.737 154.177C148.035 154.574 147.464 155.143 147.088 155.823C146.712 156.502 146.545 157.266 146.606 158.028C146.667 158.791 146.953 159.522 147.432 160.143C148.524 161.57 149.153 163.259 149.245 165.01C149.337 166.76 148.887 168.498 147.949 170.017C147.011 171.536 145.625 172.773 143.955 173.581C142.284 174.388 140.4 174.732 138.526 174.572C137.942 174.524 137.352 174.584 136.792 174.748C136.232 174.912 135.713 175.177 135.263 175.528C134.813 175.88 134.442 176.31 134.17 176.794C133.899 177.279 133.733 177.809 133.682 178.353C133.63 178.898 133.694 179.446 133.871 179.968C134.047 180.489 134.332 180.973 134.709 181.392C135.086 181.811 135.548 182.157 136.068 182.409C136.589 182.662 137.158 182.817 137.743 182.864C141.483 183.196 145.366 182.466 148.857 180.543C151.682 179.005 154.026 176.806 155.657 174.164C157.288 171.523 158.149 168.53 158.155 165.483C158.155 161.735 156.872 158.252 154.699 155.4C154.293 154.841 153.747 154.382 153.107 154.064C152.468 153.746 151.755 153.578 151.03 153.575H151.066ZM-3.03938 161.337C-4.22036 161.337 -5.35297 161.774 -6.18804 162.552C-7.02312 163.329 -7.49226 164.384 -7.49226 165.483C-7.49226 166.583 -7.02312 167.638 -6.18804 168.415C-5.35297 169.193 -4.22036 169.63 -3.03938 169.63C-1.85841 169.63 -0.725803 169.193 0.109272 168.415C0.944347 167.638 1.41349 166.583 1.41349 165.483C1.41349 164.384 0.944347 163.329 0.109272 162.552C-0.725803 161.774 -1.85841 161.337 -3.03938 161.337ZM353.19 161.337C352.009 161.337 350.877 161.774 350.042 162.552C349.207 163.329 348.737 164.384 348.737 165.483C348.737 166.583 349.207 167.638 350.042 168.415C350.877 169.193 352.009 169.63 353.19 169.63C354.371 169.63 355.504 169.193 356.339 168.415C357.174 167.638 357.643 166.583 357.643 165.483C357.643 164.384 357.174 163.329 356.339 162.552C355.504 161.774 354.371 161.337 353.19 161.337ZM139.773 161.337C138.592 161.258 137.426 161.619 136.531 162.341C135.635 163.062 135.085 164.085 135 165.185C134.915 166.285 135.302 167.371 136.077 168.204C136.852 169.038 137.951 169.55 139.132 169.63C139.717 169.669 140.304 169.6 140.86 169.428C141.417 169.256 141.931 168.984 142.374 168.626C142.818 168.269 143.181 167.834 143.444 167.346C143.706 166.858 143.863 166.326 143.905 165.782C143.947 165.237 143.874 164.691 143.689 164.173C143.504 163.654 143.212 163.175 142.828 162.763C142.444 162.35 141.977 162.012 141.453 161.767C140.929 161.522 140.358 161.376 139.773 161.337ZM210.378 161.337C209.793 161.376 209.222 161.522 208.698 161.767C208.174 162.012 207.707 162.35 207.323 162.763C206.939 163.175 206.647 163.654 206.462 164.173C206.277 164.691 206.203 165.237 206.246 165.782C206.288 166.326 206.445 166.858 206.707 167.346C206.97 167.834 207.333 168.269 207.776 168.626C208.22 168.984 208.734 169.256 209.291 169.428C209.847 169.6 210.434 169.669 211.019 169.63C212.2 169.55 213.299 169.038 214.074 168.204C214.849 167.371 215.236 166.285 215.151 165.185C215.066 164.085 214.516 163.062 213.62 162.341C212.725 161.619 211.559 161.258 210.378 161.337ZM32.6192 165.749C17.5411 165.721 2.97947 170.862 -8.28828 180.192C-19.556 189.521 -26.7415 202.386 -28.4742 216.333C-28.6156 217.11 -28.5165 217.908 -28.1884 218.634C-27.8603 219.36 -27.3169 219.984 -26.6217 220.433C-25.9265 220.882 -25.1083 221.137 -24.2629 221.169C-23.4175 221.201 -22.58 221.007 -21.8483 220.612C-21.246 220.282 -20.7355 219.825 -20.358 219.278C-19.9805 218.73 -19.7466 218.108 -19.6753 217.461C-18.7528 209.848 -15.922 202.544 -11.4111 196.137C-6.90029 189.73 -0.835617 184.4 6.29383 180.576C14.2874 176.298 23.346 174.046 32.5658 174.046C41.7856 174.046 50.8442 176.298 58.8377 180.576C65.965 184.407 72.0255 189.744 76.5303 196.157C81.035 202.569 83.8579 209.878 84.7712 217.494C84.8172 218.059 84.9873 218.61 85.271 219.112C85.5548 219.614 85.9462 220.057 86.4209 220.412C86.8957 220.768 87.4437 221.029 88.0312 221.179C88.6186 221.329 89.233 221.366 89.8362 221.286C90.4394 221.207 91.0186 221.013 91.5381 220.716C92.0575 220.42 92.5061 220.027 92.8561 219.563C93.2061 219.099 93.4501 218.573 93.5729 218.017C93.6957 217.461 93.6947 216.888 93.5701 216.333C91.8395 202.403 84.6694 189.552 73.4241 180.225C62.1788 170.898 47.6433 165.745 32.5836 165.749H32.6192ZM-38.6624 178.586V194.308C-37.5426 195.517 -36.3534 196.668 -35.1001 197.758C-34.4793 198.344 -33.6853 198.745 -32.8191 198.909C-31.9529 199.073 -31.0537 198.994 -30.2361 198.681C-29.4185 198.368 -28.7195 197.835 -28.2281 197.151C-27.7367 196.467 -27.4751 195.662 -27.4767 194.839C-27.4767 193.611 -28.0467 192.517 -28.9017 191.787C-33.1861 188.131 -36.5235 183.617 -38.6624 178.586ZM32.5836 179.017C21.8802 178.998 11.4894 182.376 3.12328 188.592C-5.24287 194.808 -11.0853 203.493 -13.4413 213.215C-13.7247 214.284 -13.5405 215.414 -12.9293 216.356C-12.318 217.299 -11.3297 217.976 -10.1818 218.24C-9.03388 218.504 -7.8204 218.333 -6.80829 217.763C-5.79618 217.194 -5.06834 216.274 -4.78491 215.205C-3.63836 210.378 -1.42441 205.826 1.71584 201.84C4.85608 197.854 8.85374 194.521 13.454 192.053C19.2791 188.933 25.8814 187.291 32.6014 187.291C39.3214 187.291 45.9237 188.933 51.7487 192.053C56.3463 194.528 60.3394 197.868 63.4736 201.86C66.6078 205.852 68.8142 210.408 69.9521 215.238C70.1505 216.05 70.6069 216.788 71.2619 217.355C71.9168 217.922 72.7399 218.292 73.624 218.417C74.5082 218.543 75.4123 218.417 76.2187 218.057C77.0252 217.697 77.6965 217.119 78.1454 216.399C78.7866 215.404 78.8934 214.276 78.6085 213.248C76.2595 203.52 70.4201 194.828 62.0533 188.605C53.6865 182.382 43.2919 179 32.5836 179.017ZM32.5836 192.285C25.6972 192.268 18.9792 194.266 13.3794 197.998C7.77954 201.73 3.58119 207.007 1.37786 213.082C0.981052 214.12 1.04337 215.263 1.5511 216.258C2.05882 217.253 2.97037 218.02 4.08521 218.389C5.20005 218.759 6.42686 218.701 7.49576 218.228C8.56466 217.755 9.38808 216.907 9.78489 215.868C11.6402 210.673 15.4817 206.293 20.5786 203.562C24.2364 201.604 28.382 200.573 32.6014 200.573C36.8208 200.573 40.9664 201.604 44.6241 203.562C49.7077 206.299 53.5358 210.678 55.3823 215.868C55.6526 216.628 56.1532 217.298 56.8235 217.799C57.4938 218.299 58.3053 218.608 59.1601 218.689C60.0149 218.77 60.8765 218.618 61.641 218.253C62.4055 217.888 63.0403 217.325 63.4687 216.631C64.1812 215.504 64.2524 214.21 63.7893 213.082C61.586 207.007 57.3876 201.73 51.7878 197.998C46.188 194.266 39.47 192.268 32.5836 192.285ZM-38.6624 212.021C-37.661 212.418 -36.5381 212.46 -35.5056 212.139C-34.4732 211.818 -33.6029 211.156 -33.059 210.278C-32.5152 209.4 -32.3356 208.367 -32.5541 207.374C-32.7727 206.381 -33.3742 205.497 -34.2451 204.889C-35.7843 203.816 -37.2589 202.664 -38.6624 201.44L-38.6624 212.021ZM32.5836 205.553C29.0052 205.554 25.5023 206.51 22.4904 208.309C19.4785 210.109 17.0841 212.674 15.5914 215.703C15.3047 216.199 15.1297 216.745 15.0771 217.306C15.0245 217.868 15.0954 218.433 15.2855 218.968C15.4755 219.504 15.7808 219.997 16.1826 220.419C16.5843 220.84 17.0742 221.181 17.6223 221.42C18.1703 221.66 18.765 221.793 19.37 221.811C19.975 221.829 20.5776 221.732 21.1411 221.526C21.7045 221.32 22.2169 221.009 22.6469 220.612C23.077 220.215 23.4156 219.741 23.6422 219.219C24.4257 217.623 25.685 216.271 27.2701 215.323C28.8553 214.375 30.6996 213.871 32.5836 213.871C34.4676 213.871 36.3119 214.375 37.897 215.323C39.4822 216.271 40.7414 217.623 41.5249 219.219C41.7515 219.741 42.0902 220.215 42.5203 220.612C42.9503 221.009 43.4627 221.32 44.0261 221.526C44.5895 221.732 45.1922 221.829 45.7972 221.811C46.4022 221.793 46.9969 221.66 47.5449 221.42C48.093 221.181 48.5828 220.84 48.9846 220.419C49.3864 219.997 49.6916 219.504 49.8817 218.968C50.0718 218.433 50.1427 217.868 50.0901 217.306C50.0375 216.745 49.8625 216.199 49.5757 215.703C48.0902 212.669 45.6976 210.099 42.6841 208.299C39.6706 206.499 36.1639 205.545 32.5836 205.553ZM32.263 218.821C31.1384 218.896 30.0865 219.366 29.3196 220.136C28.5527 220.905 28.1278 221.917 28.1307 222.967H37.0365C37.038 222.396 36.9132 221.832 36.6696 221.308C36.426 220.784 36.0691 220.313 35.621 219.924C35.173 219.535 34.6434 219.236 34.0656 219.046C33.4878 218.856 32.8741 218.78 32.263 218.821ZM317.888 218.821C317.276 218.774 316.66 218.848 316.079 219.036C315.499 219.224 314.968 219.522 314.518 219.913C314.069 220.303 313.712 220.776 313.47 221.302C313.229 221.828 313.108 222.395 313.114 222.967H322.02C322.032 221.915 321.61 220.899 320.841 220.127C320.072 219.356 319.016 218.888 317.888 218.821Z" fill="white"/>
</g>
</svg>
